Urbanist-ExtraBoldItalic.ufo
<glyph name="exclam" format="2">
  <advance width="472.0"/>
  <unicode hex="0021"/>
  <outline>
    <contour>
      <point x="92.0" y="420.0" type="line"/>
      <point x="318.2" y="420.0" type="line"/>
      <point x="455.2" y="1400.0" type="line"/>
      <point x="229.0" y="1400.0" type="line"/>
    </contour>
    <contour>
      <point x="158.2" y="-26.0" type="curve" smooth="yes"/>
      <point x="225.0" y="-26.0"/>
      <point x="285.4" y="27.000000000000004"/>
      <point x="295.4" y="97.60000000000001" type="curve" smooth="yes"/>
      <point x="307.2" y="180.20000000000002"/>
      <point x="248.8" y="247.8"/>
      <point x="166.0" y="247.8" type="curve" smooth="yes"/>
      <point x="97.39999999999999" y="247.8"/>
      <point x="37.0" y="194.8"/>
      <point x="27.8" y="128.0" type="curve" smooth="yes"/>
      <point x="16.0" y="41.6"/>
      <point x="73.6" y="-26.0"/>
    </contour>
  </outline>
</glyph>
<glyph name="numbersign" format="2">
  <advance width="1588.25"/>
  <unicode hex="0023"/>
  <outline>
    <contour>
      <point x="1490.8" y="864.8" type="line"/>
      <point x="1598.0" y="1125.8" type="line"/>
      <point x="1440.0" y="1125.8" type="line"/>
      <point x="1550.2" y="1400.0" type="line"/>
      <point x="1277.4" y="1400.0" type="line"/>
      <point x="1166.6000000000001" y="1125.8" type="line"/>
      <point x="826.2" y="1125.8" type="line"/>
      <point x="938.2" y="1400.0" type="line"/>
      <point x="664.6" y="1400.0" type="line"/>
      <point x="552.8000000000001" y="1125.8" type="line"/>
      <point x="394.59999999999997" y="1125.8" type="line"/>
      <point x="287.2" y="864.8" type="line"/>
      <point x="447.2" y="864.8" type="line"/>
      <point x="311.4" y="535.6" type="line"/>
      <point x="153.39999999999998" y="535.6" type="line"/>
      <point x="46.2" y="274.6" type="line"/>
      <point x="204.6" y="274.6" type="line"/>
      <point x="94.2" y="0.0" type="line"/>
      <point x="367.8" y="0.0" type="line"/>
      <point x="478.2" y="274.6" type="line"/>
      <point x="818.2" y="274.6" type="line"/>
      <point x="706.2" y="0.0" type="line"/>
      <point x="979.8" y="0.0" type="line"/>
      <point x="1091.8" y="274.6" type="line"/>
      <point x="1249.8" y="274.6" type="line"/>
      <point x="1357.0" y="535.6" type="line"/>
      <point x="1197.0" y="535.6" type="line"/>
      <point x="1332.8" y="864.8" type="line"/>
    </contour>
    <contour>
      <point x="923.4000000000001" y="535.6" type="line"/>
      <point x="585.0" y="535.6" type="line"/>
      <point x="720.8" y="864.8" type="line"/>
      <point x="1059.2" y="864.8" type="line"/>
    </contour>
  </outline>
</glyph>
<glyph name="dollar" format="2">
  <advance width="1215.75"/>
  <unicode hex="0024"/>
  <outline>
    <contour>
      <point x="714.1999999999999" y="1153.2" type="curve"/>
      <point x="843.6" y="1153.2"/>
      <point x="943.6" y="1099.6000000000001"/>
      <point x="958.4" y="1029.0" type="curve"/>
      <point x="1219.6" y="1106.1999999999998" type="line"/>
      <point x="1181.8" y="1276.6"/>
      <point x="1013.6" y="1393.2"/>
      <point x="821.0" y="1418.6" type="curve"/>
      <point x="857.2" y="1624.0" type="line"/>
      <point x="674.8" y="1624.0" type="line"/>
      <point x="638.5999999999999" y="1420.3999999999999" type="line"/>
      <point x="393.2" y="1387.6"/>
      <point x="183.79999999999998" y="1232.6000000000001"/>
      <point x="153.0" y="1010.0" type="curve"/>
      <point x="113.60000000000001" y="730.8000000000001"/>
      <point x="330.2" y="610.4"/>
      <point x="632.1999999999999" y="567.2" type="curve"/>
      <point x="746.5999999999999" y="546.4"/>
      <point x="866.2" y="509.59999999999997"/>
      <point x="853.2" y="419.59999999999997" type="curve"/>
      <point x="838.4" y="315.8"/>
      <point x="697.6" y="244.0"/>
      <point x="556.1999999999999" y="244.0" type="curve"/>
      <point x="427.8" y="244.0"/>
      <point x="327.8" y="299.6"/>
      <point x="313.0" y="370.0" type="curve"/>
      <point x="52.2" y="290.8" type="line"/>
      <point x="91.6" y="123.0"/>
      <point x="255.79999999999998" y="7.4"/>
      <point x="451.79999999999995" y="-18.2" type="curve"/>
      <point x="414.79999999999995" y="-224.0" type="line"/>
      <point x="597.2" y="-224.0" type="line"/>
      <point x="633.4000000000001" y="-19.8" type="line"/>
      <point x="878.6" y="13.2"/>
      <point x="1087.6" y="168.0"/>
      <point x="1118.6" y="389.0" type="curve"/>
      <point x="1155.8" y="651.0"/>
      <point x="925.6" y="791.4000000000001"/>
      <point x="639.4" y="832.2" type="curve"/>
      <point x="509.0" y="855.6"/>
      <point x="402.59999999999997" y="866.0"/>
      <point x="418.59999999999997" y="979.5999999999999" type="curve"/>
      <point x="432.4" y="1079.6"/>
      <point x="577.0" y="1155.0"/>
    </contour>
  </outline>
</glyph>
<glyph name="percent" format="2">
  <advance width="1564.75"/>
  <unicode hex="0025"/>
  <outline>
    <contour>
      <point x="149.79999999999998" y="0.0" type="line"/>
      <point x="466.6" y="0.0" type="line"/>
      <point x="1471.6" y="1400.0" type="line"/>
      <point x="1153.8" y="1400.0" type="line"/>
    </contour>
    <contour>
      <point x="450.2" y="777.6" type="curve" smooth="yes"/>
      <point x="610.2" y="777.6"/>
      <point x="767.4" y="905.2"/>
      <point x="792.0" y="1076.8" type="curve" smooth="yes"/>
      <point x="817.5999999999999" y="1260.8"/>
      <point x="688.1999999999999" y="1406.8"/>
      <point x="508.59999999999997" y="1406.8" type="curve" smooth="yes"/>
      <point x="346.8" y="1406.8"/>
      <point x="189.4" y="1280.6000000000001"/>
      <point x="165.8" y="1107.2" type="curve" smooth="yes"/>
      <point x="139.4" y="923.2"/>
      <point x="270.40000000000003" y="777.6"/>
    </contour>
    <contour>
      <point x="445.8" y="960.0" type="curve" smooth="yes"/>
      <point x="379.2" y="960.0"/>
      <point x="334.6" y="1011.0"/>
      <point x="343.8" y="1076.8" type="curve" smooth="yes"/>
      <point x="354.6" y="1158.8"/>
      <point x="431.59999999999997" y="1224.2"/>
      <point x="513.6" y="1224.2" type="curve" smooth="yes"/>
      <point x="577.8000000000001" y="1224.2"/>
      <point x="623.2" y="1173.2"/>
      <point x="614.0" y="1107.2" type="curve" smooth="yes"/>
      <point x="602.2" y="1025.6000000000001"/>
      <point x="525.4" y="960.0"/>
    </contour>
    <contour>
      <point x="1112.1999999999998" y="-8.400000000000006" type="curve" smooth="yes"/>
      <point x="1278.3999999999999" y="-8.400000000000006"/>
      <point x="1432.2" y="126.60000000000001"/>
      <point x="1455.2" y="291.0" type="curve" smooth="yes"/>
      <point x="1479.8" y="466.20000000000005"/>
      <point x="1359.2" y="622.6"/>
      <point x="1170.8" y="622.6" type="curve" smooth="yes"/>
      <point x="1010.6" y="622.6"/>
      <point x="853.1999999999999" y="493.0"/>
      <point x="828.5999999999999" y="321.59999999999997" type="curve" smooth="yes"/>
      <point x="803.8" y="148.0"/>
      <point x="928.2" y="-8.400000000000006"/>
    </contour>
    <contour>
      <point x="1107.1999999999998" y="174.0" type="curve" smooth="yes"/>
      <point x="1043.2" y="174.0"/>
      <point x="997.4000000000001" y="226.8"/>
      <point x="1006.6" y="291.0" type="curve" smooth="yes"/>
      <point x="1018.4000000000001" y="372.8"/>
      <point x="1095.4" y="440.0"/>
      <point x="1174.8" y="440.0" type="curve" smooth="yes"/>
      <point x="1241.4" y="440.0"/>
      <point x="1286.2" y="387.2"/>
      <point x="1277.0" y="321.59999999999997" type="curve" smooth="yes"/>
      <point x="1266.2" y="241.2"/>
      <point x="1189.2" y="174.0"/>
    </contour>
  </outline>
</glyph>
<glyph name="ampersand" format="2">
  <advance width="1434.0"/>
  <unicode hex="0026"/>
  <outline>
    <contour>
      <point x="457.99999999999994" y="-26.0" type="curve" smooth="yes"/>
      <point x="616.0" y="-26.0"/>
      <point x="686.2" y="19.200000000000003"/>
      <point x="908.8000000000001" y="214.2" type="curve"/>
      <point x="1098.6000000000001" y="0.0" type="line"/>
      <point x="1311.0" y="190.8" type="line"/>
      <point x="1121.0" y="410.6" type="line"/>
      <point x="1204.6000000000001" y="480.8" type="line"/>
      <point x="1252.2" y="862.2" type="line"/>
      <point x="952.2" y="601.8" type="line"/>
      <point x="757.0" y="832.2" type="line"/>
      <point x="873.8000000000001" y="931.8000000000001"/>
      <point x="916.8000000000001" y="991.2"/>
      <point x="931.8000000000001" y="1097.6" type="curve" smooth="yes"/>
      <point x="958.8000000000001" y="1291.0"/>
      <point x="823.8000000000001" y="1443.6"/>
      <point x="634.1999999999999" y="1443.6" type="curve" smooth="yes"/>
      <point x="465.8" y="1443.6"/>
      <point x="302.0" y="1310.6000000000001"/>
      <point x="276.0" y="1128.0" type="curve" smooth="yes"/>
      <point x="259.2" y="1008.0"/>
      <point x="292.0" y="945.4"/>
      <point x="375.2" y="848.2" type="curve"/>
      <point x="151.2" y="651.8000000000001"/>
      <point x="92.2" y="587.2"/>
      <point x="69.8" y="426.2" type="curve" smooth="yes"/>
      <point x="35.6" y="185.2"/>
      <point x="202.2" y="-26.0"/>
    </contour>
    <contour>
      <point x="465.19999999999993" y="244.0" type="curve" smooth="yes"/>
      <point x="387.6" y="244.0"/>
      <point x="322.8" y="305.6"/>
      <point x="335.59999999999997" y="395.20000000000005" type="curve" smooth="yes"/>
      <point x="347.8" y="486.0"/>
      <point x="390.2" y="508.4"/>
      <point x="541.8" y="641.4" type="curve"/>
      <point x="738.0" y="416.2" type="line"/>
      <point x="590.8000000000001" y="289.2"/>
      <point x="556.6" y="244.0"/>
    </contour>
    <contour>
      <point x="574.1999999999999" y="988.0" type="curve"/>
      <point x="518.5999999999999" y="1051.1999999999998"/>
      <point x="502.2" y="1062.1999999999998"/>
      <point x="507.4" y="1102.8" type="curve" smooth="yes"/>
      <point x="516.2" y="1163.6"/>
      <point x="575.2" y="1212.0"/>
      <point x="632.1999999999999" y="1212.0" type="curve" smooth="yes"/>
      <point x="667.0" y="1212.0"/>
      <point x="706.8" y="1185.8"/>
      <point x="699.5999999999999" y="1133.2" type="curve" smooth="yes"/>
      <point x="691.8" y="1077.0"/>
      <point x="669.0" y="1069.2"/>
    </contour>
  </outline>
</glyph>
<glyph name="quotesingle" format="2">
  <advance width="307.5"/>
  <unicode hex="0027"/>
  <outline>
    <contour>
      <point x="115.6" y="878.0" type="line"/>
      <point x="298.0" y="878.0" type="line"/>
      <point x="371.0" y="1400.0" type="line"/>
      <point x="188.6" y="1400.0" type="line"/>
    </contour>
  </outline>
</glyph>
<glyph name="parenleft" format="2">
  <advance width="786.75"/>
  <unicode hex="0028"/>
  <outline>
    <contour>
      <point x="337.0" y="-106.6" type="curve"/>
      <point x="595.4" y="-117.4" type="line"/>
      <point x="478.4" y="40.4"/>
      <point x="366.6" y="324.20000000000005"/>
      <point x="408.2" y="628.8" type="curve" smooth="yes"/>
      <point x="445.8" y="883.8"/>
      <point x="677.6" y="1315.6000000000001"/>
      <point x="819.0" y="1396.4" type="curve"/>
      <point x="536.5999999999999" y="1402.8" type="line"/>
      <point x="358.6" y="1328.6"/>
      <point x="174.0" y="886.8000000000001"/>
      <point x="142.8" y="659.2" type="curve" smooth="yes"/>
      <point x="97.6" y="338.0"/>
      <point x="157.0" y="99.4"/>
    </contour>
  </outline>
</glyph>
<glyph name="parenright" format="2">
  <advance width="786.75"/>
  <unicode hex="0029"/>
  <outline>
    <contour>
      <point x="9.6" y="-106.6" type="curve"/>
      <point x="288.6" y="-117.4" type="line"/>
      <point x="526.4" y="88.6"/>
      <point x="641.5999999999999" y="323.6"/>
      <point x="685.0" y="628.8" type="curve" smooth="yes"/>
      <point x="718.8" y="872.2"/>
      <point x="646.8" y="1323.0"/>
      <point x="488.8" y="1397.2" type="curve"/>
      <point x="233.2" y="1403.6" type="line"/>
      <point x="353.2" y="1322.8"/>
      <point x="451.4" y="898.2"/>
      <point x="419.6" y="659.2" type="curve" smooth="yes"/>
      <point x="373.0" y="338.8"/>
      <point x="171.0" y="51.199999999999996"/>
    </contour>
  </outline>
</glyph>
<glyph name="asterisk" format="2">
  <advance width="728.5"/>
  <unicode hex="002A"/>
  <outline>
    <contour>
      <point x="305.59999999999997" y="831.0" type="line"/>
      <point x="419.8" y="960.8" type="line"/>
      <point x="493.59999999999997" y="831.0" type="line"/>
      <point x="651.6" y="938.8" type="line"/>
      <point x="573.2" y="1068.2" type="line"/>
      <point x="733.8000000000001" y="1116.2" type="line"/>
      <point x="700.2" y="1291.2" type="line"/>
      <point x="543.8000000000001" y="1241.8" type="line"/>
      <point x="567.4" y="1400.0" type="line"/>
      <point x="384.0" y="1400.0" type="line"/>
      <point x="361.4" y="1241.8" type="line"/>
      <point x="212.8" y="1291.2" type="line"/>
      <point x="135.2" y="1116.2" type="line"/>
      <point x="279.2" y="1068.2" type="line"/>
      <point x="166.79999999999998" y="938.8" type="line"/>
    </contour>
  </outline>
</glyph>
<glyph name="comma" format="2">
  <advance width="532.0"/>
  <unicode hex="002C"/>
  <outline>
    <contour>
      <point x="-6.8" y="-112.0" type="line"/>
      <point x="176.6" y="-112.0" type="line"/>
      <point x="375.8" y="226.0" type="line"/>
      <point x="102.2" y="226.0" type="line"/>
    </contour>
  </outline>
</glyph>
<glyph name="hyphen" format="2">
  <advance width="880.0"/>
  <unicode hex="002D"/>
  <outline>
    <contour>
      <point x="152.8" y="735.0" type="line"/>
      <point x="115.2" y="465.0" type="line"/>
      <point x="755.2" y="465.0" type="line"/>
      <point x="792.8" y="735.0" type="line"/>
    </contour>
  </outline>
</glyph>
<glyph name="period" format="2">
  <advance width="473.75"/>
  <unicode hex="002E"/>
  <outline>
    <contour>
      <point x="158.0" y="-26.0" type="curve" smooth="yes"/>
      <point x="225.0" y="-26.0"/>
      <point x="287.2" y="27.000000000000004"/>
      <point x="297.2" y="95.8" type="curve" smooth="yes"/>
      <point x="309.0" y="178.60000000000002"/>
      <point x="248.8" y="247.8"/>
      <point x="165.8" y="247.8" type="curve" smooth="yes"/>
      <point x="97.39999999999999" y="247.8"/>
      <point x="37.0" y="193.0"/>
      <point x="27.8" y="126.2" type="curve" smooth="yes"/>
      <point x="16.0" y="41.6"/>
      <point x="73.6" y="-26.0"/>
    </contour>
  </outline>
</glyph>
<glyph name="slash" format="2">
  <advance width="835.75"/>
  <unicode hex="002F"/>
  <outline>
    <contour>
      <point x="884.5999999999999" y="1400.0" type="line"/>
      <point x="610.0" y="1400.0" type="line"/>
      <point x="-7.8" y="-112.0" type="line"/>
      <point x="265.8" y="-112.0" type="line"/>
    </contour>
  </outline>
</glyph>
<glyph name="zero" format="2">
  <advance width="1213.0"/>
  <unicode hex="0030"/>
  <outline>
    <contour>
      <point x="548.8000000000001" y="-26.0" type="curve" smooth="yes"/>
      <point x="863.2" y="-26.0"/>
      <point x="1124.2" y="292.8"/>
      <point x="1179.2" y="684.8" type="curve" smooth="yes"/>
      <point x="1236.2" y="1093.0"/>
      <point x="1052.8" y="1426.0"/>
      <point x="722.2" y="1426.0" type="curve" smooth="yes"/>
      <point x="407.6" y="1426.0"/>
      <point x="145.8" y="1107.6000000000001"/>
      <point x="89.8" y="715.2" type="curve" smooth="yes"/>
      <point x="32.8" y="307.2"/>
      <point x="218.0" y="-26.0"/>
    </contour>
    <contour>
      <point x="556.0" y="244.0" type="curve" smooth="yes"/>
      <point x="365.20000000000005" y="244.0"/>
      <point x="306.8" y="457.8"/>
      <point x="338.8" y="684.8" type="curve" smooth="yes"/>
      <point x="373.0" y="928.2"/>
      <point x="504.8" y="1156.0"/>
      <point x="715.0" y="1156.0" type="curve" smooth="yes"/>
      <point x="899.8000000000001" y="1156.0"/>
      <point x="965.0" y="956.2"/>
      <point x="930.4" y="715.2" type="curve" smooth="yes"/>
      <point x="896.8000000000001" y="471.0"/>
      <point x="764.8000000000001" y="244.0"/>
    </contour>
  </outline>
</glyph>
<glyph name="one" format="2">
  <advance width="692.5"/>
  <unicode hex="0031"/>
  <outline>
    <contour>
      <point x="192.60000000000002" y="0.0" type="line"/>
      <point x="462.6" y="0.0" type="line"/>
      <point x="658.6" y="1400.0" type="line"/>
      <point x="276.8" y="1400.0" type="line"/>
      <point x="166.6" y="1130.0" type="line"/>
      <point x="350.8" y="1130.0" type="line"/>
    </contour>
  </outline>
</glyph>
<glyph name="two" format="2">
  <advance width="1156.5"/>
  <unicode hex="0032"/>
  <outline>
    <contour>
      <point x="10.0" y="0.0" type="line"/>
      <point x="966.5999999999999" y="0.0" type="line"/>
      <point x="1004.1999999999999" y="270.0" type="line"/>
      <point x="547.6" y="264.6" type="line"/>
      <point x="853.4000000000001" y="523.8000000000001"/>
      <point x="1062.8" y="718.5999999999999"/>
      <point x="1093.1999999999998" y="935.5999999999999" type="curve" smooth="yes"/>
      <point x="1132.1999999999998" y="1207.1999999999998"/>
      <point x="942.2" y="1426.0"/>
      <point x="674.2" y="1426.0" type="curve" smooth="yes"/>
      <point x="425.6" y="1426.0"/>
      <point x="186.79999999999998" y="1227.0"/>
      <point x="148.79999999999998" y="958.0" type="curve"/>
      <point x="417.20000000000005" y="943.5999999999999" type="line"/>
      <point x="432.6" y="1056.0"/>
      <point x="546.4" y="1156.0"/>
      <point x="667.0" y="1156.0" type="curve" smooth="yes"/>
      <point x="771.4" y="1156.0"/>
      <point x="842.4" y="1070.6000000000001"/>
      <point x="827.8000000000001" y="966.0" type="curve" smooth="yes"/>
      <point x="801.6" y="780.6"/>
      <point x="260.2" y="386.20000000000005"/>
      <point x="37.8" y="244.6" type="curve"/>
    </contour>
  </outline>
</glyph>
<glyph name="three" format="2">
  <advance width="1032.5"/>
  <unicode hex="0033"/>
  <outline>
    <contour>
      <point x="457.6" y="-26.0" type="curve" smooth="yes"/>
      <point x="699.0" y="-26.0"/>
      <point x="926.2" y="171.0"/>
      <point x="960.6" y="412.6" type="curve" smooth="yes"/>
      <point x="979.4" y="547.5999999999999"/>
      <point x="933.6" y="698.0"/>
      <point x="832.6" y="737.0" type="curve"/>
      <point x="933.2" y="782.1999999999999"/>
      <point x="989.0" y="895.2"/>
      <point x="1002.1999999999999" y="989.5999999999999" type="curve" smooth="yes"/>
      <point x="1036.3999999999999" y="1232.1999999999998"/>
      <point x="858.8" y="1427.8"/>
      <point x="622.2" y="1427.8" type="curve" smooth="yes"/>
      <point x="396.0" y="1427.8"/>
      <point x="167.79999999999998" y="1245.0"/>
      <point x="135.39999999999998" y="1012.0" type="curve"/>
      <point x="403.59999999999997" y="997.5999999999999" type="line"/>
      <point x="415.2" y="1081.0"/>
      <point x="524.8000000000001" y="1157.8"/>
      <point x="617.6" y="1157.8" type="curve" smooth="yes"/>
      <point x="693.8000000000001" y="1157.8"/>
      <point x="747.5999999999999" y="1095.6000000000001"/>
      <point x="736.8" y="1020.0" type="curve" smooth="yes"/>
      <point x="720.1999999999999" y="900.0"/>
      <point x="605.6" y="836.0"/>
      <point x="449.8" y="836.0" type="curve"/>
      <point x="436.0" y="629.0" type="line"/>
      <point x="611.2" y="629.0"/>
      <point x="712.0" y="569.8000000000001"/>
      <point x="694.2" y="443.0" type="curve" smooth="yes"/>
      <point x="679.6" y="334.8"/>
      <point x="572.8000000000001" y="244.0"/>
      <point x="464.80000000000007" y="244.0" type="curve" smooth="yes"/>
      <point x="367.6" y="244.0"/>
      <point x="304.2" y="320.20000000000005"/>
      <point x="318.8" y="420.6" type="curve"/>
      <point x="50.8" y="435.0" type="line"/>
      <point x="15.4" y="183.79999999999998"/>
      <point x="196.8" y="-26.0"/>
    </contour>
  </outline>
</glyph>
<glyph name="four" format="2">
  <advance width="1174.75"/>
  <unicode hex="0034"/>
  <outline>
    <contour>
      <point x="604.2" y="0.0" type="line"/>
      <point x="874.2" y="0.0" type="line"/>
      <point x="919.6" y="325.6" type="line"/>
      <point x="1030.0" y="325.6" type="line"/>
      <point x="1067.8" y="595.6" type="line"/>
      <point x="957.2" y="595.6" type="line"/>
      <point x="1070.2" y="1400.0" type="line"/>
      <point x="735.6" y="1400.0" type="line"/>
      <point x="90.4" y="596.0" type="line"/>
      <point x="55.2" y="325.6" type="line"/>
      <point x="649.6" y="325.6" type="line"/>
    </contour>
    <contour>
      <point x="408.80000000000007" y="596.0" type="line"/>
      <point x="751.8" y="1034.2" type="line"/>
      <point x="687.2" y="595.6" type="line"/>
    </contour>
  </outline>
</glyph>
<glyph name="five" format="2">
  <advance width="1159.75"/>
  <unicode hex="0035"/>
  <outline>
    <contour>
      <point x="496.99999999999994" y="-26.0" type="curve" smooth="yes"/>
      <point x="757.2" y="-26.0"/>
      <point x="995.5999999999999" y="185.8"/>
      <point x="1032.2" y="442.8" type="curve" smooth="yes"/>
      <point x="1070.0" y="718.5999999999999"/>
      <point x="893.6" y="935.0"/>
      <point x="611.2" y="945.6" type="curve"/>
      <point x="537.6" y="947.2" type="line"/>
      <point x="601.6" y="1130.0" type="line"/>
      <point x="1076.8" y="1130.0" type="line"/>
      <point x="1114.6" y="1400.0" type="line"/>
      <point x="417.2" y="1400.0" type="line"/>
      <point x="164.2" y="677.2" type="line"/>
      <point x="537.6" y="677.2" type="line" smooth="yes"/>
      <point x="738.8000000000001" y="677.2"/>
      <point x="781.5999999999999" y="584.2"/>
      <point x="765.8" y="473.2" type="curve" smooth="yes"/>
      <point x="748.0" y="346.2"/>
      <point x="629.6" y="244.0"/>
      <point x="504.19999999999993" y="244.0" type="curve" smooth="yes"/>
      <point x="393.20000000000005" y="244.0"/>
      <point x="316.4" y="331.8"/>
      <point x="333.2" y="450.8" type="curve"/>
      <point x="65.0" y="465.2" type="line"/>
      <point x="28.4" y="203.79999999999998"/>
      <point x="215.0" y="-26.0"/>
    </contour>
  </outline>
</glyph>
<glyph name="six" format="2">
  <advance width="1103.75"/>
  <unicode hex="0036"/>
  <outline>
    <contour>
      <point x="486.2" y="-26.0" type="curve" smooth="yes"/>
      <point x="754.2" y="-26.0"/>
      <point x="1000.5999999999999" y="191.2"/>
      <point x="1037.6" y="455.8" type="curve" smooth="yes"/>
      <point x="1076.6" y="734.0"/>
      <point x="883.4" y="954.0"/>
      <point x="622.4" y="957.0" type="curve"/>
      <point x="951.2" y="1400.0" type="line"/>
      <point x="631.6" y="1400.0" type="line"/>
      <point x="142.4" y="727.8000000000001" type="line" smooth="yes"/>
      <point x="88.39999999999999" y="647.8000000000001"/>
      <point x="59.8" y="567.2"/>
      <point x="48.2" y="486.2" type="curve" smooth="yes"/>
      <point x="8.6" y="204.0"/>
      <point x="207.8" y="-26.0"/>
    </contour>
    <contour>
      <point x="493.6" y="244.0" type="curve" smooth="yes"/>
      <point x="384.6" y="244.0"/>
      <point x="296.6" y="333.0"/>
      <point x="313.8" y="454.20000000000005" type="curve" smooth="yes"/>
      <point x="331.8" y="580.8"/>
      <point x="448.0" y="697.8"/>
      <point x="589.8" y="697.8" type="curve" smooth="yes"/>
      <point x="710.8000000000001" y="697.8"/>
      <point x="788.4" y="601.6"/>
      <point x="771.1999999999999" y="484.8" type="curve" smooth="yes"/>
      <point x="754.1999999999999" y="361.8"/>
      <point x="633.4" y="244.0"/>
    </contour>
  </outline>
</glyph>
<glyph name="seven" format="2">
  <advance width="1107.25"/>
  <unicode hex="0037"/>
  <outline>
    <contour>
      <point x="29.999999999999996" y="0.0" type="line"/>
      <point x="346.6" y="0.0" type="line"/>
      <point x="1158.2" y="1130.0" type="line"/>
      <point x="1193.2" y="1400.0" type="line"/>
      <point x="166.0" y="1400.0" type="line"/>
      <point x="128.2" y="1130.0" type="line"/>
      <point x="839.6" y="1130.0" type="line"/>
    </contour>
  </outline>
</glyph>
<glyph name="eight" format="2">
  <advance width="1099.25"/>
  <unicode hex="0038"/>
  <outline>
    <contour>
      <point x="489.99999999999994" y="-26.0" type="curve" smooth="yes"/>
      <point x="742.8000000000001" y="-26.0"/>
      <point x="972.0" y="165.8"/>
      <point x="1005.6" y="403.8" type="curve" smooth="yes"/>
      <point x="1024.2" y="534.0"/>
      <point x="981.0" y="649.8000000000001"/>
      <point x="903.0" y="725.6" type="curve"/>
      <point x="990.1999999999999" y="802.6"/>
      <point x="1043.8" y="897.0"/>
      <point x="1057.6000000000001" y="994.8" type="curve" smooth="yes"/>
      <point x="1090.8" y="1232.1999999999998"/>
      <point x="913.8" y="1426.0"/>
      <point x="663.5999999999999" y="1426.0" type="curve" smooth="yes"/>
      <point x="429.20000000000005" y="1426.0"/>
      <point x="214.6" y="1246.8"/>
      <point x="183.2" y="1025.2" type="curve" smooth="yes"/>
      <point x="167.39999999999998" y="911.6"/>
      <point x="203.8" y="813.4"/>
      <point x="259.8" y="746.8000000000001" type="curve"/>
      <point x="151.6" y="660.6"/>
      <point x="86.8" y="548.6"/>
      <point x="70.8" y="434.2" type="curve" smooth="yes"/>
      <point x="34.6" y="178.6"/>
      <point x="221.2" y="-26.0"/>
    </contour>
    <contour>
      <point x="497.19999999999993" y="244.0" type="curve" smooth="yes"/>
      <point x="403.40000000000003" y="244.0"/>
      <point x="337.2" y="315.0"/>
      <point x="349.2" y="403.8" type="curve" smooth="yes"/>
      <point x="364.0" y="508.59999999999997"/>
      <point x="467.2" y="594.0"/>
      <point x="577.1999999999999" y="594.0" type="curve" smooth="yes"/>
      <point x="671.8000000000001" y="594.0"/>
      <point x="738.2" y="523.0"/>
      <point x="725.2" y="434.2" type="curve" smooth="yes"/>
      <point x="710.6" y="329.59999999999997"/>
      <point x="607.8000000000001" y="244.0"/>
    </contour>
    <contour>
      <point x="584.5999999999999" y="864.0" type="curve" smooth="yes"/>
      <point x="506.8" y="864.0"/>
      <point x="453.6" y="922.5999999999999"/>
      <point x="463.4" y="994.8" type="curve" smooth="yes"/>
      <point x="476.0" y="1083.0"/>
      <point x="562.4" y="1156.0"/>
      <point x="656.1999999999999" y="1156.0" type="curve" smooth="yes"/>
      <point x="733.8000000000001" y="1156.0"/>
      <point x="787.2" y="1097.6000000000001"/>
      <point x="777.4" y="1025.2" type="curve" smooth="yes"/>
      <point x="764.8000000000001" y="937.0"/>
      <point x="678.4" y="864.0"/>
    </contour>
  </outline>
</glyph>
<glyph name="nine" format="2">
  <advance width="1107.5"/>
  <unicode hex="0039"/>
  <outline>
    <contour>
      <point x="201.2" y="0.0" type="line"/>
      <point x="519.6" y="0.0" type="line"/>
      <point x="1012.1999999999999" y="677.0" type="line" smooth="yes"/>
      <point x="1066.6" y="756.5999999999999"/>
      <point x="1095.1999999999998" y="836.5999999999999"/>
      <point x="1106.6" y="916.8" type="curve" smooth="yes"/>
      <point x="1145.0" y="1197.1999999999998"/>
      <point x="947.0" y="1426.0"/>
      <point x="670.2" y="1426.0" type="curve" smooth="yes"/>
      <point x="404.0" y="1426.0"/>
      <point x="160.2" y="1210.0"/>
      <point x="122.6" y="947.2" type="curve" smooth="yes"/>
      <point x="84.2" y="671.6"/>
      <point x="275.59999999999997" y="453.0"/>
      <point x="533.6" y="448.8" type="curve"/>
    </contour>
    <contour>
      <point x="567.6" y="708.0" type="curve" smooth="yes"/>
      <point x="448.2" y="708.0"/>
      <point x="372.6" y="803.0"/>
      <point x="388.6" y="918.2" type="curve" smooth="yes"/>
      <point x="405.40000000000003" y="1040.0"/>
      <point x="524.8000000000001" y="1156.2"/>
      <point x="663.0" y="1156.2" type="curve" smooth="yes"/>
      <point x="770.6" y="1156.2"/>
      <point x="857.4" y="1068.6000000000001"/>
      <point x="841.1999999999999" y="948.8000000000001" type="curve" smooth="yes"/>
      <point x="823.5999999999999" y="823.8000000000001"/>
      <point x="707.8000000000001" y="708.0"/>
    </contour>
  </outline>
</glyph>
<glyph name="colon" format="2">
  <advance width="473.75"/>
  <unicode hex="003A"/>
  <outline>
    <contour>
      <point x="263.8" y="726.2" type="curve" smooth="yes"/>
      <point x="330.6" y="726.2"/>
      <point x="392.8" y="779.2"/>
      <point x="402.8" y="848.0" type="curve" smooth="yes"/>
      <point x="414.6" y="930.8"/>
      <point x="354.6" y="1000.0"/>
      <point x="272.40000000000003" y="1000.0" type="curve" smooth="yes"/>
      <point x="203.2" y="1000.0"/>
      <point x="142.8" y="945.2"/>
      <point x="133.6" y="878.6" type="curve" smooth="yes"/>
      <point x="121.8" y="793.8000000000001"/>
      <point x="179.2" y="726.2"/>
    </contour>
    <contour>
      <point x="158.0" y="-26.0" type="curve" smooth="yes"/>
      <point x="225.0" y="-26.0"/>
      <point x="287.2" y="27.000000000000004"/>
      <point x="297.2" y="95.8" type="curve" smooth="yes"/>
      <point x="309.0" y="178.60000000000002"/>
      <point x="248.8" y="247.8"/>
      <point x="165.8" y="247.8" type="curve" smooth="yes"/>
      <point x="97.39999999999999" y="247.8"/>
      <point x="37.0" y="193.0"/>
      <point x="27.8" y="126.2" type="curve" smooth="yes"/>
      <point x="16.0" y="41.6"/>
      <point x="73.6" y="-26.0"/>
    </contour>
  </outline>
</glyph>
<glyph name="semicolon" format="2">
  <advance width="533.5"/>
  <unicode hex="003B"/>
  <outline>
    <contour>
      <point x="-6.8" y="-112.0" type="line"/>
      <point x="176.6" y="-112.0" type="line"/>
      <point x="375.8" y="226.0" type="line"/>
      <point x="102.2" y="226.0" type="line"/>
    </contour>
    <contour>
      <point x="323.8" y="726.2" type="curve" smooth="yes"/>
      <point x="390.40000000000003" y="726.2"/>
      <point x="452.6" y="779.2"/>
      <point x="462.6" y="847.8" type="curve" smooth="yes"/>
      <point x="474.40000000000003" y="930.8"/>
      <point x="414.40000000000003" y="1000.0"/>
      <point x="332.40000000000003" y="1000.0" type="curve" smooth="yes"/>
      <point x="262.8" y="1000.0"/>
      <point x="202.60000000000002" y="945.2"/>
      <point x="193.20000000000002" y="878.2" type="curve" smooth="yes"/>
      <point x="181.60000000000002" y="793.8000000000001"/>
      <point x="238.8" y="726.2"/>
    </contour>
  </outline>
</glyph>
<glyph name="less" format="2">
  <advance width="1160.0"/>
  <unicode hex="003C"/>
  <outline>
    <contour>
      <point x="1022.6" y="89.6" type="line"/>
      <point x="1061.2" y="370.2" type="line"/>
      <point x="288.0" y="600.0" type="line"/>
      <point x="1126.8" y="829.6" type="line"/>
      <point x="1165.6" y="1110.6" type="line"/>
      <point x="125.4" y="824.6" type="line"/>
      <point x="62.6" y="373.6" type="line"/>
    </contour>
  </outline>
</glyph>
<glyph name="equal" format="2">
  <advance width="1160.0"/>
  <unicode hex="003D"/>
  <outline>
    <contour>
      <point x="44.6" y="246.8" type="line"/>
      <point x="1044.6" y="246.8" type="line"/>
      <point x="1082.4" y="516.8" type="line"/>
      <point x="82.4" y="516.8" type="line"/>
    </contour>
    <contour>
      <point x="105.6" y="683.2" type="line"/>
      <point x="1105.6" y="683.2" type="line"/>
      <point x="1143.4" y="953.2" type="line"/>
      <point x="143.4" y="953.2" type="line"/>
    </contour>
  </outline>
</glyph>
<glyph name="greater" format="2">
  <advance width="1160.0"/>
  <unicode hex="003E"/>
  <outline>
    <contour>
      <point x="24.4" y="100.0" type="line"/>
      <point x="1062.6" y="373.6" type="line"/>
      <point x="1125.4" y="824.6" type="line"/>
      <point x="163.8" y="1100.0" type="line"/>
      <point x="125.0" y="819.0" type="line"/>
      <point x="900.0" y="600.0" type="line"/>
      <point x="63.0" y="380.8" type="line"/>
    </contour>
  </outline>
</glyph>
<glyph name="question" format="2">
  <advance width="1133.75"/>
  <unicode hex="003F"/>
  <outline>
    <contour>
      <point x="414.8" y="422.59999999999997" type="curve"/>
      <point x="683.0" y="408.0" type="line"/>
      <point x="690.8" y="464.6"/>
      <point x="733.8" y="517.1999999999999"/>
      <point x="792.4" y="539.2" type="curve" smooth="yes"/>
      <point x="946.8" y="622.4"/>
      <point x="1052.8" y="777.5999999999999"/>
      <point x="1076.2" y="945.8" type="curve" smooth="yes"/>
      <point x="1113.8" y="1209.8"/>
      <point x="927.4" y="1426.2"/>
      <point x="661.5999999999999" y="1426.2" type="curve" smooth="yes"/>
      <point x="412.2" y="1426.2"/>
      <point x="181.8" y="1224.2"/>
      <point x="146.0" y="968.2" type="curve"/>
      <point x="414.2" y="953.8" type="line"/>
      <point x="429.4" y="1062.1999999999998"/>
      <point x="538.0" y="1156.2"/>
      <point x="654.1999999999999" y="1156.2" type="curve" smooth="yes"/>
      <point x="754.6" y="1156.2"/>
      <point x="824.8" y="1076.8"/>
      <point x="810.5999999999999" y="976.2" type="curve" smooth="yes"/>
      <point x="799.0" y="891.0"/>
      <point x="745.1999999999999" y="820.4"/>
      <point x="673.6" y="791.6" type="curve" smooth="yes"/>
      <point x="532.1999999999999" y="713.4"/>
      <point x="437.0" y="578.0"/>
    </contour>
    <contour>
      <point x="514.2" y="-26.0" type="curve" smooth="yes"/>
      <point x="581.2" y="-26.0"/>
      <point x="641.6" y="27.200000000000003"/>
      <point x="651.6" y="97.60000000000001" type="curve" smooth="yes"/>
      <point x="663.6" y="180.20000000000002"/>
      <point x="605.2" y="247.8"/>
      <point x="522.0" y="247.8" type="curve" smooth="yes"/>
      <point x="453.6" y="247.8"/>
      <point x="393.2" y="194.8"/>
      <point x="384.2" y="128.0" type="curve" smooth="yes"/>
      <point x="372.2" y="41.800000000000004"/>
      <point x="429.8" y="-26.0"/>
    </contour>
  </outline>
</glyph>
<glyph name="at" format="2">
  <advance width="1860.125"/>
  <unicode hex="0040"/>
  <outline>
    <contour>
      <point x="829.8000000000001" y="-267.2" type="curve"/>
      <point x="852.4000000000001" y="2.8000000000000043" type="line"/>
      <point x="530.4000000000001" y="2.8000000000000043"/>
      <point x="311.0" y="221.8"/>
      <point x="355.2" y="534.8000000000001" type="curve" smooth="yes"/>
      <point x="401.2" y="865.1999999999999"/>
      <point x="708.1999999999999" y="1131.0"/>
      <point x="1033.6000000000001" y="1131.0" type="curve" smooth="yes"/>
      <point x="1343.2" y="1131.0"/>
      <point x="1563.2" y="880.2"/>
      <point x="1519.0" y="565.4000000000001" type="curve" smooth="yes"/>
      <point x="1505.2" y="467.8"/>
      <point x="1441.3999999999999" y="293.2"/>
      <point x="1349.1999999999998" y="293.2" type="curve" smooth="yes"/>
      <point x="1313.8" y="293.2"/>
      <point x="1297.8" y="313.6"/>
      <point x="1304.4" y="360.6" type="curve" smooth="yes"/>
      <point x="1378.0" y="883.4" type="line"/>
      <point x="1184.2" y="927.2" type="line"/>
      <point x="1172.6000000000001" y="887.6" type="line"/>
      <point x="1129.6" y="923.1999999999999"/>
      <point x="1037.1999999999998" y="948.0"/>
      <point x="957.5999999999999" y="948.0" type="curve" smooth="yes"/>
      <point x="746.5999999999999" y="948.0"/>
      <point x="551.5999999999999" y="777.2"/>
      <point x="521.5999999999999" y="565.4000000000001" type="curve" smooth="yes"/>
      <point x="489.59999999999997" y="338.2"/>
      <point x="649.0" y="152.2"/>
      <point x="876.1999999999999" y="152.2" type="curve" smooth="yes"/>
      <point x="948.6" y="152.2"/>
      <point x="1018.6000000000001" y="173.20000000000002"/>
      <point x="1079.2" y="224.6" type="curve"/>
      <point x="1081.6" y="120.8"/>
      <point x="1226.6000000000001" y="23.199999999999996"/>
      <point x="1359.4" y="23.199999999999996" type="curve" smooth="yes"/>
      <point x="1588.4" y="23.199999999999996"/>
      <point x="1748.8" y="278.6"/>
      <point x="1785.4" y="534.8000000000001" type="curve" smooth="yes"/>
      <point x="1852.0" y="1009.5999999999999"/>
      <point x="1521.8" y="1401.0"/>
      <point x="1041.8" y="1401.0" type="curve" smooth="yes"/>
      <point x="579.1999999999999" y="1401.0"/>
      <point x="154.6" y="1027.8"/>
      <point x="88.8" y="565.4000000000001" type="curve" smooth="yes"/>
      <point x="22.2" y="87.0"/>
      <point x="359.40000000000003" y="-267.2"/>
    </contour>
    <contour>
      <point x="896.4" y="351.2" type="curve" smooth="yes"/>
      <point x="795.2" y="351.2"/>
      <point x="724.1999999999999" y="433.20000000000005"/>
      <point x="739.0" y="534.8000000000001" type="curve" smooth="yes"/>
      <point x="755.4" y="653.8"/>
      <point x="866.2" y="748.8"/>
      <point x="982.6" y="748.8" type="curve" smooth="yes"/>
      <point x="1086.6" y="748.8"/>
      <point x="1149.2" y="667.6"/>
      <point x="1135.0" y="567.6" type="curve" smooth="yes"/>
      <point x="1118.8" y="452.2"/>
      <point x="1012.8" y="351.2"/>
    </contour>
  </outline>
</glyph>
<glyph name="A" format="2">
  <advance width="1483.75"/>
  <unicode hex="0041"/>
  <outline>
    <contour>
      <point x="712.6" y="1400.0" type="line"/>
      <point x="7.2" y="0.0" type="line"/>
      <point x="298.0" y="0.0" type="line"/>
      <point x="416.6" y="235.0" type="line"/>
      <point x="996.8" y="235.0" type="line"/>
      <point x="1049.1999999999998" y="0.0" type="line"/>
      <point x="1331.0" y="0.0" type="line"/>
      <point x="1019.8000000000001" y="1400.0" type="line"/>
    </contour>
    <contour>
      <point x="553.4" y="505.0" type="line"/>
      <point x="819.8" y="1029.8" type="line"/>
      <point x="935.6" y="505.0" type="line"/>
    </contour>
  </outline>
</glyph>
<glyph name="B" format="2">
  <advance width="1189.0"/>
  <unicode hex="0042"/>
  <outline>
    <contour>
      <point x="50.0" y="0.0" type="line"/>
      <point x="631.8" y="0.0" type="line" smooth="yes"/>
      <point x="859.6" y="0.0"/>
      <point x="1060.8" y="160.60000000000002"/>
      <point x="1090.6" y="369.20000000000005" type="curve" smooth="yes"/>
      <point x="1110.2" y="506.20000000000005"/>
      <point x="1105.0" y="720.6"/>
      <point x="941.6" y="761.8" type="curve"/>
      <point x="1055.6" y="807.1999999999999"/>
      <point x="1100.3999999999999" y="917.0"/>
      <point x="1112.6" y="1004.5999999999999" type="curve" smooth="yes"/>
      <point x="1146.1999999999998" y="1245.0"/>
      <point x="983.4" y="1399.8"/>
      <point x="758.2" y="1399.8" type="curve" smooth="yes"/>
      <point x="246.0" y="1399.8" type="line"/>
    </contour>
    <contour>
      <point x="351.6" y="229.8" type="line"/>
      <point x="410.0" y="639.4" type="line"/>
      <point x="693.8" y="639.4" type="line" smooth="yes"/>
      <point x="805.6" y="639.4"/>
      <point x="875.4" y="548.6"/>
      <point x="861.8" y="454.0" type="curve" smooth="yes"/>
      <point x="844.4" y="325.2"/>
      <point x="732.8000000000001" y="229.8"/>
      <point x="621.1999999999999" y="229.8" type="curve" smooth="yes"/>
    </contour>
    <contour>
      <point x="441.6" y="865.6" type="line"/>
      <point x="484.4" y="1168.2" type="line"/>
      <point x="709.1999999999999" y="1168.2" type="line" smooth="yes"/>
      <point x="799.0" y="1168.2"/>
      <point x="859.2" y="1124.2"/>
      <point x="847.0" y="1036.8" type="curve" smooth="yes"/>
      <point x="832.6" y="935.8000000000001"/>
      <point x="741.0" y="865.6"/>
      <point x="651.1999999999999" y="865.6" type="curve" smooth="yes"/>
    </contour>
  </outline>
</glyph>
<glyph name="C" format="2">
  <advance width="1398.0"/>
  <unicode hex="0043"/>
  <outline>
    <contour>
      <point x="689.2" y="-26.0" type="curve"/>
      <point x="907.2" y="-26.0"/>
      <point x="1117.6" y="81.6"/>
      <point x="1268.6" y="255.8" type="curve"/>
      <point x="1036.6" y="398.59999999999997" type="line"/>
      <point x="950.2" y="307.8"/>
      <point x="828.2" y="244.0"/>
      <point x="696.6" y="244.0" type="curve"/>
      <point x="474.20000000000005" y="244.0"/>
      <point x="321.8" y="442.0"/>
      <point x="356.2" y="684.8" type="curve"/>
      <point x="392.2" y="944.0"/>
      <point x="616.1999999999999" y="1156.0"/>
      <point x="855.6" y="1156.0" type="curve"/>
      <point x="969.6" y="1156.0"/>
      <point x="1071.1999999999998" y="1103.4"/>
      <point x="1134.4" y="1013.6" type="curve"/>
      <point x="1383.6" y="1131.6" type="line"/>
      <point x="1280.6" y="1305.8"/>
      <point x="1096.8" y="1426.0"/>
      <point x="862.8" y="1426.0" type="curve"/>
      <point x="490.8" y="1426.0"/>
      <point x="145.8" y="1109.0"/>
      <point x="89.8" y="715.2" type="curve"/>
      <point x="32.8" y="307.0"/>
      <point x="301.2" y="-26.0"/>
    </contour>
  </outline>
</glyph>
<glyph name="D" format="2">
  <advance width="1343.75"/>
  <unicode hex="0044"/>
  <outline>
    <contour>
      <point x="50.0" y="0.0" type="line"/>
      <point x="520.8" y="0.0" type="line" smooth="yes"/>
      <point x="907.2" y="0.0"/>
      <point x="1256.8" y="306.8"/>
      <point x="1310.0" y="684.8" type="curve" smooth="yes"/>
      <point x="1364.8" y="1078.8"/>
      <point x="1088.8" y="1400.0"/>
      <point x="702.5999999999999" y="1400.0" type="curve" smooth="yes"/>
      <point x="246.0" y="1400.0" type="line"/>
    </contour>
    <contour>
      <point x="357.8" y="270.0" type="line"/>
      <point x="478.2" y="1130.0" type="line"/>
      <point x="680.1999999999999" y="1130.0" type="line" smooth="yes"/>
      <point x="915.1999999999999" y="1130.0"/>
      <point x="1076.0" y="944.0"/>
      <point x="1043.6" y="715.2" type="curve" smooth="yes"/>
      <point x="1009.4" y="468.8"/>
      <point x="777.8000000000001" y="270.0"/>
      <point x="544.1999999999999" y="270.0" type="curve" smooth="yes"/>
    </contour>
  </outline>
</glyph>
<glyph name="E" format="2">
  <advance width="1104.5"/>
  <unicode hex="0045"/>
  <outline>
    <contour>
      <point x="50.0" y="0.0" type="line"/>
      <point x="934.6" y="0.0" type="line"/>
      <point x="972.2" y="270.0" type="line"/>
      <point x="357.8" y="270.0" type="line"/>
      <point x="406.2" y="615.0" type="line"/>
      <point x="887.2" y="615.0" type="line"/>
      <point x="924.8" y="885.0" type="line"/>
      <point x="443.8" y="885.0" type="line"/>
      <point x="478.2" y="1130.0" type="line"/>
      <point x="1092.8" y="1130.0" type="line"/>
      <point x="1130.6" y="1400.0" type="line"/>
      <point x="246.0" y="1400.0" type="line"/>
    </contour>
  </outline>
</glyph>
<glyph name="F" format="2">
  <advance width="969.5"/>
  <unicode hex="0046"/>
  <outline>
    <contour>
      <point x="50.0" y="0.0" type="line"/>
      <point x="320.0" y="0.0" type="line"/>
      <point x="406.2" y="615.0" type="line"/>
      <point x="869.6" y="615.0" type="line"/>
      <point x="907.4" y="885.0" type="line"/>
      <point x="443.8" y="885.0" type="line"/>
      <point x="478.2" y="1130.0" type="line"/>
      <point x="1037.8" y="1130.0" type="line"/>
      <point x="1075.6" y="1400.0" type="line"/>
      <point x="246.0" y="1400.0" type="line"/>
    </contour>
  </outline>
</glyph>
<glyph name="G" format="2">
  <advance width="1496.875"/>
  <unicode hex="0047"/>
  <outline>
    <contour>
      <point x="689.6" y="-26.0" type="curve" smooth="yes"/>
      <point x="1073.0" y="-26.0"/>
      <point x="1422.8" y="308.6"/>
      <point x="1466.6" y="720.5999999999999" type="curve"/>
      <point x="926.6" y="727.8" type="line"/>
      <point x="893.2" y="492.8" type="line"/>
      <point x="1114.0" y="499.2" type="line"/>
      <point x="1013.6" y="337.4"/>
      <point x="854.4" y="244.0"/>
      <point x="700.1999999999999" y="244.0" type="curve" smooth="yes"/>
      <point x="475.80000000000007" y="244.0"/>
      <point x="321.0" y="437.20000000000005"/>
      <point x="355.4" y="681.2" type="curve" smooth="yes"/>
      <point x="394.0" y="958.0"/>
      <point x="630.4" y="1156.0"/>
      <point x="857.6" y="1156.0" type="curve" smooth="yes"/>
      <point x="958.8000000000001" y="1156.0"/>
      <point x="1061.8" y="1112.8"/>
      <point x="1134.4" y="1011.8000000000001" type="curve"/>
      <point x="1383.8" y="1130.0" type="line"/>
      <point x="1261.6" y="1328.6"/>
      <point x="1073.2" y="1424.2"/>
      <point x="868.2" y="1424.2" type="curve" smooth="yes"/>
      <point x="516.2" y="1424.2"/>
      <point x="149.4" y="1133.6000000000001"/>
      <point x="90.8" y="717.0" type="curve" smooth="yes"/>
      <point x="33.8" y="310.8"/>
      <point x="290.8" y="-26.0"/>
    </contour>
  </outline>
</glyph>
<glyph name="H" format="2">
  <advance width="1320.75"/>
  <unicode hex="0048"/>
  <outline>
    <contour>
      <point x="1056.8" y="1400.0" type="line"/>
      <point x="984.5999999999999" y="885.0" type="line"/>
      <point x="443.8" y="885.0" type="line"/>
      <point x="516.0" y="1400.0" type="line"/>
      <point x="246.0" y="1400.0" type="line"/>
      <point x="50.0" y="0.0" type="line"/>
      <point x="320.0" y="0.0" type="line"/>
      <point x="406.2" y="615.0" type="line"/>
      <point x="946.8" y="615.0" type="line"/>
      <point x="860.8" y="0.0" type="line"/>
      <point x="1130.8" y="0.0" type="line"/>
      <point x="1326.8" y="1400.0" type="line"/>
    </contour>
  </outline>
</glyph>
<glyph name="I" format="2">
  <advance width="570.0"/>
  <unicode hex="0049"/>
  <outline>
    <contour>
      <point x="80.0" y="0.0" type="line"/>
      <point x="350.0" y="0.0" type="line"/>
      <point x="546.0" y="1400.0" type="line"/>
      <point x="276.0" y="1400.0" type="line"/>
    </contour>
  </outline>
</glyph>
<glyph name="J" format="2">
  <advance width="909.5"/>
  <unicode hex="004A"/>
  <outline>
    <contour>
      <point x="273.59999999999997" y="-26.0" type="curve" smooth="yes"/>
      <point x="517.6" y="-26.0"/>
      <point x="744.0" y="174.60000000000002"/>
      <point x="778.8000000000001" y="426.20000000000005" type="curve" smooth="yes"/>
      <point x="915.6" y="1400.0" type="line"/>
      <point x="645.6" y="1400.0" type="line"/>
      <point x="511.6" y="440.8" type="line" smooth="yes"/>
      <point x="496.6" y="338.2"/>
      <point x="391.40000000000003" y="244.0"/>
      <point x="280.8" y="244.0" type="curve" smooth="yes"/>
      <point x="234.79999999999998" y="244.0"/>
      <point x="199.0" y="261.8"/>
      <point x="176.8" y="283.0" type="curve"/>
      <point x="-15.0" y="85.0" type="line"/>
      <point x="59.2" y="15.200000000000001"/>
      <point x="159.0" y="-26.0"/>
    </contour>
  </outline>
</glyph>
<glyph name="K" format="2">
  <advance width="1199.25"/>
  <unicode hex="004B"/>
  <outline>
    <contour>
      <point x="1101.6000000000001" y="0.0" type="line"/>
      <point x="655.2" y="739.8" type="line"/>
      <point x="1305.1999999999998" y="1400.0" type="line"/>
      <point x="946.1999999999999" y="1400.0" type="line"/>
      <point x="440.6" y="882.8" type="line"/>
      <point x="516.8" y="1400.0" type="line"/>
      <point x="246.0" y="1400.0" type="line"/>
      <point x="50.0" y="0.0" type="line"/>
      <point x="320.0" y="0.0" type="line"/>
      <point x="387.6" y="463.2" type="line"/>
      <point x="454.40000000000003" y="529.0" type="line"/>
      <point x="754.4" y="0.0" type="line"/>
    </contour>
  </outline>
</glyph>
<glyph name="L" format="2">
  <advance width="1057.5"/>
  <unicode hex="004C"/>
  <outline>
    <contour>
      <point x="50.0" y="0.0" type="line"/>
      <point x="887.6" y="0.0" type="line"/>
      <point x="925.2" y="270.0" type="line"/>
      <point x="357.8" y="270.0" type="line"/>
      <point x="516.0" y="1400.0" type="line"/>
      <point x="246.0" y="1400.0" type="line"/>
    </contour>
  </outline>
</glyph>
<glyph name="M" format="2">
  <advance width="1895.0"/>
  <unicode hex="004D"/>
  <outline>
    <contour>
      <point x="48.2" y="0.0" type="line"/>
      <point x="326.2" y="0.0" type="line"/>
      <point x="600.5999999999999" y="815.0" type="line"/>
      <point x="788.8000000000001" y="17.200000000000003" type="line"/>
      <point x="974.6" y="17.200000000000003" type="line"/>
      <point x="1389.8" y="815.0" type="line"/>
      <point x="1430.3999999999999" y="0.0" type="line"/>
      <point x="1703.2" y="0.0" type="line"/>
      <point x="1628.2" y="1400.0" type="line"/>
      <point x="1400.0" y="1400.0" type="line"/>
      <point x="947.6" y="535.8" type="line"/>
      <point x="743.2" y="1400.0" type="line"/>
      <point x="516.8" y="1400.0" type="line"/>
    </contour>
  </outline>
</glyph>
<glyph name="N" format="2">
  <advance width="1363.75"/>
  <unicode hex="004E"/>
  <outline>
    <contour>
      <point x="53.8" y="0.0" type="line"/>
      <point x="323.8" y="0.0" type="line"/>
      <point x="454.2" y="912.2" type="line"/>
      <point x="881.2" y="0.0" type="line"/>
      <point x="1170.0" y="0.0" type="line"/>
      <point x="1366.0" y="1400.0" type="line"/>
      <point x="1096.0" y="1400.0" type="line"/>
      <point x="965.6" y="487.8" type="line"/>
      <point x="538.8000000000001" y="1400.0" type="line"/>
      <point x="249.8" y="1400.0" type="line"/>
    </contour>
  </outline>
</glyph>
<glyph name="O" format="2">
  <advance width="1540.0"/>
  <unicode hex="004F"/>
  <outline>
    <contour>
      <point x="711.2" y="-26.0" type="curve" smooth="yes"/>
      <point x="1083.2" y="-26.0"/>
      <point x="1431.2" y="292.8"/>
      <point x="1486.2" y="684.8" type="curve" smooth="yes"/>
      <point x="1543.2" y="1092.8"/>
      <point x="1272.8" y="1426.0"/>
      <point x="884.8" y="1426.0" type="curve" smooth="yes"/>
      <point x="512.8" y="1426.0"/>
      <point x="165.8" y="1107.2"/>
      <point x="109.8" y="715.2" type="curve" smooth="yes"/>
      <point x="52.8" y="307.2"/>
      <point x="323.2" y="-26.0"/>
    </contour>
    <contour>
      <point x="718.6" y="244.0" type="curve" smooth="yes"/>
      <point x="495.80000000000007" y="244.0"/>
      <point x="341.8" y="442.20000000000005"/>
      <point x="376.2" y="684.8" type="curve" smooth="yes"/>
      <point x="412.2" y="942.5999999999999"/>
      <point x="638.1999999999999" y="1156.0"/>
      <point x="877.6" y="1156.0" type="curve" smooth="yes"/>
      <point x="1100.2" y="1156.0"/>
      <point x="1254.2" y="957.6"/>
      <point x="1219.8" y="715.2" type="curve" smooth="yes"/>
      <point x="1183.8" y="457.59999999999997"/>
      <point x="957.8000000000001" y="244.0"/>
    </contour>
  </outline>
</glyph>
<glyph name="P" format="2">
  <advance width="1122.5"/>
  <unicode hex="0050"/>
  <outline>
    <contour>
      <point x="50.0" y="0.0" type="line"/>
      <point x="320.0" y="0.0" type="line"/>
      <point x="397.0" y="551.0" type="line"/>
      <point x="648.2" y="551.0" type="line" smooth="yes"/>
      <point x="869.2" y="551.0"/>
      <point x="1075.1999999999998" y="733.0"/>
      <point x="1107.1999999999998" y="960.2" type="curve" smooth="yes"/>
      <point x="1141.0" y="1199.8"/>
      <point x="980.5999999999999" y="1400.0"/>
      <point x="751.8" y="1400.0" type="curve" smooth="yes"/>
      <point x="246.0" y="1400.0" type="line"/>
    </contour>
    <contour>
      <point x="434.8" y="821.0" type="line"/>
      <point x="484.4" y="1168.6" type="line"/>
      <point x="704.8000000000001" y="1168.6" type="line" smooth="yes"/>
      <point x="797.6" y="1168.6"/>
      <point x="856.6" y="1098.2"/>
      <point x="844.4" y="1010.0" type="curve" smooth="yes"/>
      <point x="829.6" y="905.8000000000001"/>
      <point x="733.6" y="821.0"/>
      <point x="640.8000000000001" y="821.0" type="curve" smooth="yes"/>
    </contour>
  </outline>
</glyph>
<glyph name="Q" format="2">
  <advance width="1578.25"/>
  <unicode hex="0051"/>
  <outline>
    <contour>
      <point x="1235.2" y="-46.8" type="line"/>
      <point x="1447.6" y="144.0" type="line"/>
      <point x="1312.8" y="294.6" type="line"/>
      <point x="1405.6" y="410.6"/>
      <point x="1466.8" y="548.2"/>
      <point x="1486.8" y="691.8" type="curve" smooth="yes"/>
      <point x="1543.8" y="1099.8"/>
      <point x="1273.6" y="1433.0"/>
      <point x="886.6" y="1433.0" type="curve" smooth="yes"/>
      <point x="513.4" y="1433.0"/>
      <point x="166.8" y="1114.2"/>
      <point x="111.6" y="722.2" type="curve" smooth="yes"/>
      <point x="53.8" y="312.59999999999997"/>
      <point x="324.8" y="-19.0"/>
      <point x="712.2" y="-19.0" type="curve" smooth="yes"/>
      <point x="848.0" y="-19.0"/>
      <point x="984.1999999999999" y="22.199999999999996"/>
      <point x="1103.3999999999999" y="100.2" type="curve"/>
    </contour>
    <contour>
      <point x="720.2" y="251.0" type="curve" smooth="yes"/>
      <point x="497.0" y="251.0"/>
      <point x="342.6" y="447.6"/>
      <point x="377.2" y="691.8" type="curve" smooth="yes"/>
      <point x="413.2" y="949.2"/>
      <point x="639.0" y="1163.0"/>
      <point x="878.4" y="1163.0" type="curve" smooth="yes"/>
      <point x="1100.6000000000001" y="1163.0"/>
      <point x="1254.8" y="964.8000000000001"/>
      <point x="1221.3999999999999" y="722.2" type="curve" smooth="yes"/>
      <point x="1209.6" y="641.2"/>
      <point x="1178.6" y="570.4000000000001"/>
      <point x="1137.6" y="509.40000000000003" type="curve"/>
      <point x="1050.2" y="600.6" type="line"/>
      <point x="837.8000000000001" y="409.6" type="line"/>
      <point x="926.2" y="305.20000000000005" type="line"/>
      <point x="863.0" y="272.20000000000005"/>
      <point x="794.0" y="251.0"/>
    </contour>
  </outline>
</glyph>
<glyph name="R" format="2">
  <advance width="1241.5"/>
  <unicode hex="0052"/>
  <outline>
    <contour>
      <point x="53.8" y="0.0" type="line"/>
      <point x="323.8" y="0.0" type="line"/>
      <point x="400.8" y="551.0" type="line"/>
      <point x="536.0" y="551.0" type="line"/>
      <point x="778.8000000000001" y="0.0" type="line"/>
      <point x="1085.0" y="0.0" type="line"/>
      <point x="837.8" y="572.1999999999999" type="line"/>
      <point x="1005.5999999999999" y="637.1999999999999"/>
      <point x="1123.6" y="783.5999999999999"/>
      <point x="1148.6" y="960.2" type="curve" smooth="yes"/>
      <point x="1182.2" y="1201.6"/>
      <point x="1023.5999999999999" y="1400.0"/>
      <point x="794.8" y="1400.0" type="curve" smooth="yes"/>
      <point x="249.8" y="1400.0" type="line"/>
    </contour>
    <contour>
      <point x="438.6" y="821.0" type="line"/>
      <point x="488.2" y="1168.6" type="line"/>
      <point x="746.2" y="1168.6" type="line" smooth="yes"/>
      <point x="838.8000000000001" y="1168.6"/>
      <point x="897.8" y="1098.2"/>
      <point x="885.5999999999999" y="1010.0" type="curve" smooth="yes"/>
      <point x="870.8" y="905.8000000000001"/>
      <point x="774.8000000000001" y="821.0"/>
      <point x="682.2" y="821.0" type="curve" smooth="yes"/>
    </contour>
  </outline>
</glyph>
<glyph name="S" format="2">
  <advance width="1255.75"/>
  <unicode hex="0053"/>
  <outline>
    <contour>
      <point x="569.0" y="-26.0" type="curve" smooth="yes"/>
      <point x="843.8000000000001" y="-26.0"/>
      <point x="1104.0" y="139.0"/>
      <point x="1138.6" y="389.0" type="curve" smooth="yes"/>
      <point x="1175.8" y="651.0"/>
      <point x="945.6" y="791.4000000000001"/>
      <point x="659.4" y="832.2" type="curve" smooth="yes"/>
      <point x="529.0" y="855.6"/>
      <point x="422.59999999999997" y="866.0"/>
      <point x="438.59999999999997" y="979.5999999999999" type="curve" smooth="yes"/>
      <point x="452.4" y="1079.6"/>
      <point x="597.0" y="1155.0"/>
      <point x="734.1999999999999" y="1153.2" type="curve" smooth="yes"/>
      <point x="863.6" y="1153.2"/>
      <point x="963.6" y="1099.6000000000001"/>
      <point x="978.4" y="1029.0" type="curve"/>
      <point x="1239.6" y="1106.1999999999998" type="line"/>
      <point x="1196.2" y="1302.1999999999998"/>
      <point x="982.8000000000001" y="1425.0"/>
      <point x="742.4" y="1425.0" type="curve" smooth="yes"/>
      <point x="471.40000000000003" y="1425.0"/>
      <point x="208.6" y="1260.0"/>
      <point x="173.0" y="1010.0" type="curve" smooth="yes"/>
      <point x="133.6" y="730.8000000000001"/>
      <point x="350.2" y="610.4"/>
      <point x="652.1999999999999" y="567.2" type="curve" smooth="yes"/>
      <point x="766.5999999999999" y="546.4"/>
      <point x="886.2" y="509.59999999999997"/>
      <point x="873.2" y="419.59999999999997" type="curve" smooth="yes"/>
      <point x="858.4" y="315.8"/>
      <point x="717.6" y="244.0"/>
      <point x="576.1999999999999" y="244.0" type="curve" smooth="yes"/>
      <point x="447.8" y="244.0"/>
      <point x="347.8" y="299.6"/>
      <point x="333.0" y="370.0" type="curve"/>
      <point x="72.2" y="290.8" type="line"/>
      <point x="116.8" y="97.60000000000001"/>
      <point x="327.2" y="-26.0"/>
    </contour>
  </outline>
</glyph>
<glyph name="T" format="2">
  <advance width="1259.75"/>
  <unicode hex="0054"/>
  <outline>
    <contour>
      <point x="1305.8" y="1400.0" type="line"/>
      <point x="206.0" y="1400.0" type="line"/>
      <point x="168.2" y="1130.0" type="line"/>
      <point x="583.0" y="1130.0" type="line"/>
      <point x="424.8" y="0.0" type="line"/>
      <point x="694.8" y="0.0" type="line"/>
      <point x="853.0" y="1130.0" type="line"/>
      <point x="1268.0" y="1130.0" type="line"/>
    </contour>
  </outline>
</glyph>
<glyph name="U" format="2">
  <advance width="1368.25"/>
  <unicode hex="0055"/>
  <outline>
    <contour>
      <point x="626.2" y="-26.0" type="curve" smooth="yes"/>
      <point x="954.2" y="-26.0"/>
      <point x="1211.4" y="238.8"/>
      <point x="1259.4" y="576.8" type="curve" smooth="yes"/>
      <point x="1374.2" y="1400.0" type="line"/>
      <point x="1104.2" y="1400.0" type="line"/>
      <point x="991.2" y="591.2" type="line" smooth="yes"/>
      <point x="964.8000000000001" y="403.8"/>
      <point x="830.6" y="244.0"/>
      <point x="633.6" y="244.0" type="curve" smooth="yes"/>
      <point x="454.8" y="244.0"/>
      <point x="374.8" y="390.6"/>
      <point x="401.2" y="576.8" type="curve" smooth="yes"/>
      <point x="516.0" y="1400.0" type="line"/>
      <point x="246.0" y="1400.0" type="line"/>
      <point x="132.8" y="591.2" type="line" smooth="yes"/>
      <point x="85.0" y="253.2"/>
      <point x="282.2" y="-26.0"/>
    </contour>
  </outline>
</glyph>
<glyph name="V" format="2">
  <advance width="1403.25"/>
  <unicode hex="0056"/>
  <outline>
    <contour>
      <point x="459.8" y="0.0" type="line"/>
      <point x="806.8" y="0.0" type="line"/>
      <point x="1512.0" y="1400.0" type="line"/>
      <point x="1221.2" y="1400.0" type="line"/>
      <point x="670.6" y="312.6" type="line"/>
      <point x="430.59999999999997" y="1400.0" type="line"/>
      <point x="148.8" y="1400.0" type="line"/>
    </contour>
  </outline>
</glyph>
<glyph name="W" format="2">
  <advance width="1929.0"/>
  <unicode hex="0057"/>
  <outline>
    <contour>
      <point x="389.8" y="0.0" type="line"/>
      <point x="695.2" y="0.0" type="line"/>
      <point x="1009.1999999999999" y="791.5999999999999" type="line"/>
      <point x="1099.0" y="0.0" type="line"/>
      <point x="1404.8" y="0.0" type="line"/>
      <point x="1956.8" y="1400.0" type="line"/>
      <point x="1675.2" y="1400.0" type="line"/>
      <point x="1314.6000000000001" y="493.8" type="line"/>
      <point x="1213.4" y="1400.0" type="line"/>
      <point x="965.8" y="1400.0" type="line"/>
      <point x="605.2" y="493.8" type="line"/>
      <point x="504.2" y="1400.0" type="line"/>
      <point x="227.8" y="1400.0" type="line"/>
    </contour>
  </outline>
</glyph>
<glyph name="X" format="2">
  <advance width="1479.0"/>
  <unicode hex="0058"/>
  <outline>
    <contour>
      <point x="-12.8" y="0.0" type="line"/>
      <point x="327.6" y="0.0" type="line"/>
      <point x="741.6" y="473.6" type="line"/>
      <point x="1016.8000000000001" y="0.0" type="line"/>
      <point x="1346.2" y="0.0" type="line"/>
      <point x="936.0" y="704.0" type="line"/>
      <point x="1544.6" y="1402.0" type="line"/>
      <point x="1206.2" y="1402.0" type="line"/>
      <point x="794.6" y="932.6" type="line"/>
      <point x="521.2" y="1402.0" type="line"/>
      <point x="193.6" y="1402.0" type="line"/>
      <point x="601.2" y="704.0" type="line"/>
    </contour>
  </outline>
</glyph>
<glyph name="Y" format="2">
  <advance width="1356.5"/>
  <unicode hex="0059"/>
  <outline>
    <contour>
      <point x="1101.4" y="1400.0" type="line"/>
      <point x="732.4000000000001" y="924.2" type="line"/>
      <point x="501.8" y="1400.0" type="line"/>
      <point x="189.6" y="1400.0" type="line"/>
      <point x="564.2" y="630.8" type="line"/>
      <point x="473.20000000000005" y="0.0" type="line"/>
      <point x="743.2" y="0.0" type="line"/>
      <point x="834.2" y="630.8" type="line"/>
      <point x="1426.1999999999998" y="1400.0" type="line"/>
    </contour>
  </outline>
</glyph>
<glyph name="Z" format="2">
  <advance width="1372.0"/>
  <unicode hex="005A"/>
  <outline>
    <contour>
      <point x="50.0" y="0.0" type="line"/>
      <point x="1182.0" y="0.0" type="line"/>
      <point x="1219.8" y="270.0" type="line"/>
      <point x="455.6" y="270.0" type="line"/>
      <point x="1343.0" y="1130.0" type="line"/>
      <point x="1378.0" y="1400.0" type="line"/>
      <point x="246.0" y="1400.0" type="line"/>
      <point x="208.2" y="1130.0" type="line"/>
      <point x="972.6" y="1130.0" type="line"/>
      <point x="85.2" y="270.0" type="line"/>
    </contour>
  </outline>
</glyph>
<glyph name="bracketleft" format="2">
  <advance width="666.5"/>
  <unicode hex="005B"/>
  <outline>
    <contour>
      <point x="518.2" y="158.0" type="line"/>
      <point x="341.8" y="158.0" type="line"/>
      <point x="478.2" y="1130.0" type="line"/>
      <point x="654.8000000000001" y="1130.0" type="line"/>
      <point x="692.6" y="1400.0" type="line"/>
      <point x="246.0" y="1400.0" type="line"/>
      <point x="34.0" y="-112.0" type="line"/>
      <point x="480.6" y="-112.0" type="line"/>
    </contour>
  </outline>
</glyph>
<glyph name="backslash" format="2">
  <advance width="834.25"/>
  <unicode hex="005C"/>
  <outline>
    <contour>
      <point x="400.0" y="-112.0" type="line"/>
      <point x="666.6" y="-112.0" type="line"/>
      <point x="474.2" y="1400.0" type="line"/>
      <point x="208.8" y="1400.0" type="line"/>
    </contour>
  </outline>
</glyph>
<glyph name="bracketright" format="2">
  <advance width="668.25"/>
  <unicode hex="005D"/>
  <outline>
    <contour>
      <point x="14.0" y="-112.0" type="line"/>
      <point x="462.20000000000005" y="-112.0" type="line"/>
      <point x="674.2" y="1400.0" type="line"/>
      <point x="226.0" y="1400.0" type="line"/>
      <point x="188.2" y="1130.0" type="line"/>
      <point x="366.59999999999997" y="1130.0" type="line"/>
      <point x="230.0" y="158.0" type="line"/>
      <point x="51.8" y="158.0" type="line"/>
    </contour>
  </outline>
</glyph>
<glyph name="asciicircum" format="2">
  <advance width="1002.0"/>
  <unicode hex="005E"/>
  <outline>
    <contour>
      <point x="148.2" y="1000.0" type="line"/>
      <point x="440.6" y="1000.0" type="line"/>
      <point x="627.2" y="1367.2" type="line"/>
      <point x="706.8" y="1000.0" type="line"/>
      <point x="990.2" y="1000.0" type="line"/>
      <point x="845.2" y="1650.0" type="line"/>
      <point x="475.2" y="1650.0" type="line"/>
    </contour>
  </outline>
</glyph>
<glyph name="grave" format="2">
  <advance width="1150.0"/>
  <unicode hex="0060"/>
  <outline>
    <contour>
      <point x="452.8" y="1426.0" type="line"/>
      <point x="620.2" y="1138.0" type="line"/>
      <point x="758.2" y="1138.0" type="line"/>
      <point x="718.2" y="1426.0" type="line"/>
    </contour>
  </outline>
</glyph>
<glyph name="a" format="2">
  <advance width="1259.25"/>
  <unicode hex="0061"/>
  <outline>
    <contour>
      <point x="939.2" y="1000.0" type="line"/>
      <point x="918.6" y="885.0" type="line"/>
      <point x="866.8" y="965.8"/>
      <point x="781.6" y="1028.0"/>
      <point x="654.8" y="1028.0" type="curve"/>
      <point x="372.8" y="1028.0"/>
      <point x="111.8" y="799.2"/>
      <point x="71.8" y="515.2" type="curve"/>
      <point x="29.799999999999997" y="217.2"/>
      <point x="239.2" y="-26.0"/>
      <point x="537.2" y="-26.0" type="curve"/>
      <point x="648.0" y="-26.0"/>
      <point x="744.4" y="25.2"/>
      <point x="819.2" y="106.0" type="curve"/>
      <point x="798.4" y="0.0" type="line"/>
      <point x="1069.2" y="0.0" type="line"/>
      <point x="1209.2" y="1000.0" type="line"/>
    </contour>
    <contour>
      <point x="547.2" y="233.60000000000002" type="curve"/>
      <point x="416.4" y="233.60000000000002"/>
      <point x="325.8" y="346.2"/>
      <point x="345.2" y="484.8" type="curve"/>
      <point x="366.4" y="640.6"/>
      <point x="505.6" y="766.8"/>
      <point x="651.8" y="766.8" type="curve"/>
      <point x="784.8" y="766.8"/>
      <point x="868.2" y="655.6"/>
      <point x="847.8" y="515.2" type="curve"/>
      <point x="826.6" y="361.6"/>
      <point x="695.2" y="233.60000000000002"/>
    </contour>
  </outline>
</glyph>
<glyph name="b" format="2">
  <advance width="1249.25"/>
  <unicode hex="0062"/>
  <outline>
    <contour>
      <point x="720.2" y="1028.0" type="curve"/>
      <point x="611.4" y="1028.0"/>
      <point x="515.8000000000001" y="976.8000000000001"/>
      <point x="441.0" y="896.0" type="curve"/>
      <point x="531.0" y="1500.0" type="line"/>
      <point x="261.0" y="1500.0" type="line"/>
      <point x="50.0" y="0.0" type="line"/>
      <point x="320.0" y="0.0" type="line"/>
      <point x="340.8" y="117.0" type="line"/>
      <point x="393.59999999999997" y="36.199999999999996"/>
      <point x="477.8" y="-26.0"/>
      <point x="602.8000000000001" y="-26.0" type="curve"/>
      <point x="886.6" y="-26.0"/>
      <point x="1147.4" y="202.8"/>
      <point x="1187.6000000000001" y="486.6" type="curve"/>
      <point x="1229.4" y="784.8"/>
      <point x="1020.2" y="1028.0"/>
    </contour>
    <contour>
      <point x="605.6" y="235.2" type="curve"/>
      <point x="474.40000000000003" y="235.2"/>
      <point x="392.00000000000006" y="346.6"/>
      <point x="411.6" y="486.6" type="curve"/>
      <point x="432.6" y="640.2"/>
      <point x="564.2" y="768.6"/>
      <point x="710.4" y="768.6" type="curve"/>
      <point x="842.8" y="768.6"/>
      <point x="934.4000000000001" y="655.8000000000001"/>
      <point x="914.8000000000001" y="517.0" type="curve"/>
      <point x="892.8000000000001" y="361.59999999999997"/>
      <point x="753.5999999999999" y="235.2"/>
    </contour>
  </outline>
</glyph>
<glyph name="c" format="2">
  <advance width="1019.75"/>
  <unicode hex="0063"/>
  <outline>
    <contour>
      <point x="684.6" y="318.8" type="line"/>
      <point x="639.0" y="276.2"/>
      <point x="576.2" y="244.0"/>
      <point x="508.6" y="244.0" type="curve"/>
      <point x="386.6" y="244.0"/>
      <point x="309.8" y="357.20000000000005"/>
      <point x="328.2" y="484.8" type="curve"/>
      <point x="348.4" y="629.5999999999999"/>
      <point x="472.59999999999997" y="758.0"/>
      <point x="611.6" y="758.0" type="curve"/>
      <point x="661.4" y="758.0"/>
      <point x="713.5999999999999" y="737.8000000000001"/>
      <point x="749.4" y="692.1999999999999" type="curve"/>
      <point x="1000.1999999999999" y="811.8" type="line"/>
      <point x="925.6" y="939.8"/>
      <point x="790.5999999999999" y="1028.0"/>
      <point x="618.8" y="1028.0" type="curve"/>
      <point x="350.8" y="1028.0"/>
      <point x="101.8" y="799.2"/>
      <point x="61.8" y="515.2" type="curve"/>
      <point x="19.8" y="217.2"/>
      <point x="217.2" y="-26.0"/>
      <point x="501.2" y="-26.0" type="curve"/>
      <point x="657.0" y="-26.0"/>
      <point x="809.6" y="49.8"/>
      <point x="918.4" y="176.0" type="curve"/>
    </contour>
  </outline>
</glyph>
<glyph name="d" format="2">
  <advance width="1235.5"/>
  <unicode hex="0064"/>
  <outline>
    <contour>
      <point x="999.4000000000001" y="1500.0" type="line"/>
      <point x="908.6" y="885.0" type="line"/>
      <point x="856.8" y="965.8000000000001"/>
      <point x="771.5999999999999" y="1026.2"/>
      <point x="644.8" y="1026.2" type="curve"/>
      <point x="362.8" y="1026.2"/>
      <point x="101.8" y="797.6"/>
      <point x="61.8" y="515.2" type="curve"/>
      <point x="19.8" y="217.2"/>
      <point x="229.2" y="-26.0"/>
      <point x="527.2" y="-26.0" type="curve"/>
      <point x="638.0" y="-26.0"/>
      <point x="733.6" y="23.6"/>
      <point x="808.2" y="104.2" type="curve"/>
      <point x="788.4000000000001" y="0.0" type="line"/>
      <point x="1059.2" y="0.0" type="line"/>
      <point x="1270.2" y="1500.0" type="line"/>
    </contour>
    <contour>
      <point x="537.2" y="233.60000000000002" type="curve"/>
      <point x="406.40000000000003" y="233.60000000000002"/>
      <point x="314.8" y="344.6"/>
      <point x="335.2" y="484.8" type="curve"/>
      <point x="356.4" y="640.5999999999999"/>
      <point x="495.8" y="766.8"/>
      <point x="641.8000000000001" y="766.8" type="curve"/>
      <point x="774.8" y="766.8"/>
      <point x="858.2" y="655.6"/>
      <point x="837.8" y="515.2" type="curve"/>
      <point x="816.6" y="359.8"/>
      <point x="685.2" y="233.60000000000002"/>
    </contour>
  </outline>
</glyph>
<glyph name="e" format="2">
  <advance width="1119.75"/>
  <unicode hex="0065"/>
  <outline>
    <contour>
      <point x="501.2" y="-26.0" type="curve" smooth="yes"/>
      <point x="693.2" y="-26.0"/>
      <point x="877.8" y="90.8"/>
      <point x="983.5999999999999" y="268.8" type="curve"/>
      <point x="711.2" y="345.2" type="line"/>
      <point x="660.6" y="285.8"/>
      <point x="588.6" y="243.2"/>
      <point x="508.6" y="244.0" type="curve" smooth="yes"/>
      <point x="406.6" y="245.8"/>
      <point x="348.6" y="309.0"/>
      <point x="334.6" y="402.40000000000003" type="curve"/>
      <point x="1039.2" y="402.40000000000003" type="line"/>
      <point x="1136.0" y="722.4"/>
      <point x="941.8" y="1028.0"/>
      <point x="618.8" y="1028.0" type="curve" smooth="yes"/>
      <point x="350.8" y="1028.0"/>
      <point x="101.8" y="799.2"/>
      <point x="61.8" y="516.2" type="curve" smooth="yes"/>
      <point x="19.8" y="217.2"/>
      <point x="217.2" y="-26.0"/>
    </contour>
    <contour>
      <point x="358.59999999999997" y="602.4" type="line"/>
      <point x="400.6" y="707.8000000000001"/>
      <point x="504.59999999999997" y="793.0"/>
      <point x="615.8" y="793.0" type="curve" smooth="yes"/>
      <point x="713.4" y="793.0"/>
      <point x="786.4" y="721.4000000000001"/>
      <point x="798.2" y="616.8000000000001" type="curve"/>
    </contour>
  </outline>
</glyph>
<glyph name="f" format="2">
  <advance width="744.25"/>
  <unicode hex="0066"/>
  <outline>
    <contour>
      <point x="519.2" y="1189.8" type="line"/>
      <point x="523.6" y="1222.0"/>
      <point x="562.0" y="1254.0"/>
      <point x="602.2" y="1254.0" type="curve"/>
      <point x="613.8000000000001" y="1254.0"/>
      <point x="630.0" y="1250.0"/>
      <point x="636.8000000000001" y="1228.8" type="curve"/>
      <point x="851.8000000000001" y="1407.1999999999998" type="line"/>
      <point x="792.2" y="1483.3999999999999"/>
      <point x="706.0" y="1524.0"/>
      <point x="610.2" y="1524.0" type="curve"/>
      <point x="436.2" y="1524.0"/>
      <point x="275.8" y="1383.8"/>
      <point x="251.0" y="1203.8" type="curve"/>
      <point x="222.2" y="1000.0" type="line"/>
      <point x="120.2" y="1000.0" type="line"/>
      <point x="82.2" y="730.0" type="line"/>
      <point x="184.2" y="730.0" type="line"/>
      <point x="82.0" y="0.0" type="line"/>
      <point x="352.0" y="0.0" type="line"/>
      <point x="454.2" y="730.0" type="line"/>
      <point x="720.2" y="730.0" type="line"/>
      <point x="758.2" y="1000.0" type="line"/>
      <point x="492.2" y="1000.0" type="line"/>
    </contour>
  </outline>
</glyph>
<glyph name="g" format="2">
  <advance width="1239.25"/>
  <unicode hex="0067"/>
  <outline>
    <contour>
      <point x="919.2" y="1000.0" type="line"/>
      <point x="898.6" y="888.8000000000001" type="line"/>
      <point x="848.2" y="967.6"/>
      <point x="765.2" y="1026.2"/>
      <point x="641.5999999999999" y="1026.2" type="curve" smooth="yes"/>
      <point x="361.40000000000003" y="1026.2"/>
      <point x="101.8" y="797.6"/>
      <point x="61.8" y="515.2" type="curve" smooth="yes"/>
      <point x="19.8" y="217.2"/>
      <point x="227.8" y="-26.0"/>
      <point x="524.0" y="-26.0" type="curve" smooth="yes"/>
      <point x="631.6" y="-26.0"/>
      <point x="725.0" y="21.799999999999997"/>
      <point x="798.2" y="100.6" type="curve"/>
      <point x="777.6" y="-7.8" type="line" smooth="yes"/>
      <point x="758.2" y="-146.60000000000002"/>
      <point x="600.8000000000001" y="-228.2"/>
      <point x="446.19999999999993" y="-228.2" type="curve" smooth="yes"/>
      <point x="349.8" y="-228.2"/>
      <point x="263.2" y="-171.2"/>
      <point x="235.79999999999998" y="-70.0" type="curve"/>
      <point x="-19.200000000000006" y="-167.2" type="line"/>
      <point x="37.59999999999999" y="-357.8"/>
      <point x="219.39999999999998" y="-500.0"/>
      <point x="438.19999999999993" y="-500.0" type="curve" smooth="yes"/>
      <point x="726.4000000000001" y="-500.0"/>
      <point x="1004.0" y="-317.2"/>
      <point x="1045.6000000000001" y="-22.2" type="curve" smooth="yes"/>
      <point x="1189.2" y="1000.0" type="line"/>
    </contour>
    <contour>
      <point x="533.8000000000001" y="233.60000000000002" type="curve" smooth="yes"/>
      <point x="404.40000000000003" y="233.60000000000002"/>
      <point x="314.8" y="344.8"/>
      <point x="335.2" y="484.8" type="curve" smooth="yes"/>
      <point x="356.4" y="640.5999999999999"/>
      <point x="493.8" y="766.8"/>
      <point x="638.6" y="766.8" type="curve" smooth="yes"/>
      <point x="770.4000000000001" y="766.8"/>
      <point x="853.6" y="654.6"/>
      <point x="833.2" y="515.2" type="curve" smooth="yes"/>
      <point x="812.2" y="360.8"/>
      <point x="680.5999999999999" y="233.60000000000002"/>
    </contour>
  </outline>
</glyph>
<glyph name="h" format="2">
  <advance width="1160.5"/>
  <unicode hex="0068"/>
  <outline>
    <contour>
      <point x="1080.6" y="503.0" type="line"/>
      <point x="1116.8" y="786.5999999999999"/>
      <point x="969.2" y="1026.2"/>
      <point x="679.0" y="1026.2" type="curve"/>
      <point x="581.2" y="1026.2"/>
      <point x="504.2" y="1017.4000000000001"/>
      <point x="446.8" y="927.4000000000001" type="curve"/>
      <point x="531.0" y="1500.0" type="line"/>
      <point x="261.0" y="1500.0" type="line"/>
      <point x="50.0" y="0.0" type="line"/>
      <point x="321.8" y="0.0" type="line"/>
      <point x="391.8" y="499.0" type="line"/>
      <point x="411.6" y="643.2"/>
      <point x="497.4" y="766.8"/>
      <point x="644.6" y="766.8" type="curve"/>
      <point x="758.4000000000001" y="766.8"/>
      <point x="833.0" y="657.8000000000001"/>
      <point x="812.2" y="513.6" type="curve"/>
      <point x="740.6" y="0.0" type="line"/>
      <point x="1010.5999999999999" y="0.0" type="line"/>
    </contour>
  </outline>
</glyph>
<glyph name="i" format="2">
  <advance width="515.5"/>
  <unicode hex="0069"/>
  <outline>
    <contour>
      <point x="192.6" y="1000.0" type="line"/>
      <point x="52.599999999999994" y="0.0" type="line"/>
      <point x="322.6" y="0.0" type="line"/>
      <point x="462.6" y="1000.0" type="line"/>
    </contour>
    <contour>
      <point x="357.8" y="1112.6" type="curve"/>
      <point x="427.2" y="1112.6"/>
      <point x="487.0" y="1166.0"/>
      <point x="496.8" y="1234.0" type="curve"/>
      <point x="508.8" y="1316.8"/>
      <point x="450.2" y="1386.2"/>
      <point x="366.6" y="1386.2" type="curve"/>
      <point x="298.8" y="1386.2"/>
      <point x="236.8" y="1331.2"/>
      <point x="227.6" y="1264.6000000000001" type="curve"/>
      <point x="215.8" y="1180.6000000000001"/>
      <point x="275.8" y="1112.6"/>
    </contour>
  </outline>
</glyph>
<glyph name="j" format="2">
  <advance width="530.75"/>
  <unicode hex="006A"/>
  <outline>
    <contour>
      <point x="-221.0" y="-500.0" type="curve"/>
      <point x="42.80000000000001" y="-500.0"/>
      <point x="265.8" y="-302.2"/>
      <point x="301.8" y="-50.2" type="curve"/>
      <point x="448.8" y="1000.0" type="line"/>
      <point x="178.8" y="1000.0" type="line"/>
      <point x="33.599999999999994" y="-35.8" type="line"/>
      <point x="18.4" y="-140.60000000000002"/>
      <point x="-86.20000000000002" y="-230.0"/>
      <point x="-182.2" y="-230.0" type="curve"/>
      <point x="-175.0" y="-230.0"/>
      <point x="-228.2" y="-500.0"/>
    </contour>
    <contour>
      <point x="344.8" y="1112.6" type="curve"/>
      <point x="412.40000000000003" y="1112.6"/>
      <point x="474.8" y="1167.1999999999998"/>
      <point x="483.8" y="1234.0" type="curve"/>
      <point x="495.8" y="1318.6"/>
      <point x="435.40000000000003" y="1386.2"/>
      <point x="353.6" y="1386.2" type="curve"/>
      <point x="284.2" y="1386.2"/>
      <point x="223.8" y="1333.0"/>
      <point x="214.6" y="1264.6000000000001" type="curve"/>
      <point x="202.8" y="1181.8"/>
      <point x="261.2" y="1112.6"/>
    </contour>
  </outline>
</glyph>
<glyph name="k" format="2">
  <advance width="1096.25"/>
  <unicode hex="006B"/>
  <outline>
    <contour>
      <point x="972.6" y="0.0" type="line"/>
      <point x="716.6" y="589.8" type="line"/>
      <point x="1120.0" y="1000.0" type="line"/>
      <point x="761.8000000000001" y="1000.0" type="line"/>
      <point x="410.40000000000003" y="640.8" type="line"/>
      <point x="534.8" y="1500.0" type="line"/>
      <point x="264.8" y="1500.0" type="line"/>
      <point x="53.8" y="0.0" type="line"/>
      <point x="323.8" y="0.0" type="line"/>
      <point x="357.2" y="221.2" type="line"/>
      <point x="506.2" y="370.0" type="line"/>
      <point x="666.6" y="0.0" type="line"/>
    </contour>
  </outline>
</glyph>
<glyph name="l" format="2">
  <advance width="517.5"/>
  <unicode hex="006C"/>
  <outline>
    <contour>
      <point x="53.8" y="0.19999999999999996" type="line"/>
      <point x="323.8" y="0.19999999999999996" type="line"/>
      <point x="534.8" y="1500.0" type="line"/>
      <point x="264.8" y="1500.0" type="line"/>
    </contour>
  </outline>
</glyph>
<glyph name="m" format="2">
  <advance width="1739.25"/>
  <unicode hex="006D"/>
  <outline>
    <contour>
      <point x="12.599999999999994" y="0.0" type="line"/>
      <point x="282.6" y="0.0" type="line"/>
      <point x="355.6" y="524.5999999999999" type="line" smooth="yes"/>
      <point x="371.8" y="636.4"/>
      <point x="476.6" y="736.2"/>
      <point x="590.8" y="736.2" type="curve" smooth="yes"/>
      <point x="691.8" y="736.2"/>
      <point x="756.2" y="653.4000000000001"/>
      <point x="740.8000000000001" y="541.6" type="curve" smooth="yes"/>
      <point x="664.6" y="0.0" type="line"/>
      <point x="934.6" y="0.0" type="line"/>
      <point x="1008.2" y="527.0" type="line" smooth="yes"/>
      <point x="1024.3999999999999" y="638.8000000000001"/>
      <point x="1129.0" y="736.2"/>
      <point x="1244.6" y="736.2" type="curve" smooth="yes"/>
      <point x="1346.3999999999999" y="736.2"/>
      <point x="1408.3999999999999" y="653.4000000000001"/>
      <point x="1392.8" y="541.6" type="curve" smooth="yes"/>
      <point x="1316.8" y="0.0" type="line"/>
      <point x="1586.8" y="0.0" type="line"/>
      <point x="1660.2" y="527.0" type="line" smooth="yes"/>
      <point x="1697.2" y="786.5999999999999"/>
      <point x="1519.2" y="1006.2"/>
      <point x="1252.6" y="1006.2" type="curve" smooth="yes"/>
      <point x="1131.8" y="1006.2"/>
      <point x="1013.4" y="959.6"/>
      <point x="909.6" y="860.4" type="curve"/>
      <point x="843.8" y="948.2"/>
      <point x="734.8000000000001" y="1006.2"/>
      <point x="598.8" y="1006.2" type="curve" smooth="yes"/>
      <point x="533.6" y="1006.2"/>
      <point x="471.8" y="989.1999999999999"/>
      <point x="407.40000000000003" y="935.6" type="curve"/>
      <point x="424.20000000000005" y="1000.0" type="line"/>
      <point x="152.6" y="1000.0" type="line"/>
    </contour>
  </outline>
</glyph>
<glyph name="n" format="2">
  <advance width="1193.75"/>
  <unicode hex="006E"/>
  <outline>
    <contour>
      <point x="1094.6" y="504.8" type="line"/>
      <point x="1131.8" y="788.2"/>
      <point x="984.2" y="1028.0"/>
      <point x="694.0" y="1028.0" type="curve"/>
      <point x="589.2" y="1028.0"/>
      <point x="497.40000000000003" y="980.6"/>
      <point x="421.6" y="899.4" type="curve"/>
      <point x="440.8" y="1000.0" type="line"/>
      <point x="170.0" y="1000.0" type="line"/>
      <point x="30.0" y="0.0" type="line"/>
      <point x="300.0" y="0.0" type="line"/>
      <point x="370.0" y="500.8" type="line"/>
      <point x="389.8" y="643.2"/>
      <point x="494.8" y="768.6"/>
      <point x="640.4" y="768.6" type="curve"/>
      <point x="773.4000000000001" y="768.6"/>
      <point x="846.1999999999999" y="657.8000000000001"/>
      <point x="825.5999999999999" y="515.2" type="curve"/>
      <point x="753.8" y="0.0" type="line"/>
      <point x="1023.8" y="0.0" type="line"/>
    </contour>
  </outline>
</glyph>
<glyph name="o" format="2">
  <advance width="1120.0"/>
  <unicode hex="006F"/>
  <outline>
    <contour>
      <point x="501.2" y="-26.0" type="curve" smooth="yes"/>
      <point x="769.2" y="-26.0"/>
      <point x="1018.2" y="202.8"/>
      <point x="1058.2" y="484.8" type="curve" smooth="yes"/>
      <point x="1100.2" y="784.8"/>
      <point x="902.8" y="1028.0"/>
      <point x="618.8" y="1028.0" type="curve" smooth="yes"/>
      <point x="350.8" y="1028.0"/>
      <point x="101.8" y="799.2"/>
      <point x="61.8" y="515.2" type="curve" smooth="yes"/>
      <point x="19.8" y="217.2"/>
      <point x="217.2" y="-26.0"/>
    </contour>
    <contour>
      <point x="508.6" y="244.0" type="curve" smooth="yes"/>
      <point x="392.20000000000005" y="244.0"/>
      <point x="308.8" y="348.20000000000005"/>
      <point x="328.2" y="484.8" type="curve" smooth="yes"/>
      <point x="348.4" y="631.0"/>
      <point x="474.2" y="758.0"/>
      <point x="611.6" y="758.0" type="curve" smooth="yes"/>
      <point x="728.8000000000001" y="758.0"/>
      <point x="811.2" y="649.0"/>
      <point x="791.8" y="515.2" type="curve" smooth="yes"/>
      <point x="771.6" y="369.2"/>
      <point x="647.4" y="244.0"/>
    </contour>
  </outline>
</glyph>
<glyph name="p" format="2">
  <advance width="1267.5"/>
  <unicode hex="0070"/>
  <outline>
    <contour>
      <point x="249.8" y="-500.0" type="line"/>
      <point x="340.8" y="115.0" type="line"/>
      <point x="392.59999999999997" y="34.199999999999996"/>
      <point x="475.79999999999995" y="-28.0"/>
      <point x="602.8000000000001" y="-28.0" type="curve"/>
      <point x="886.4000000000001" y="-28.0"/>
      <point x="1145.6" y="200.8"/>
      <point x="1185.8" y="484.8" type="curve"/>
      <point x="1227.6" y="782.8"/>
      <point x="1020.0" y="1026.0"/>
      <point x="720.2" y="1026.0" type="curve"/>
      <point x="609.5999999999999" y="1026.0"/>
      <point x="514.8000000000001" y="974.8000000000001"/>
      <point x="440.2" y="894.0" type="curve"/>
      <point x="460.8" y="1000.0" type="line"/>
      <point x="190.0" y="1000.0" type="line"/>
      <point x="-21.0" y="-500.0" type="line"/>
    </contour>
    <contour>
      <point x="710.4" y="766.6" type="curve"/>
      <point x="843.8" y="766.6"/>
      <point x="933.4000000000001" y="653.0"/>
      <point x="914.0" y="515.2" type="curve"/>
      <point x="892.8000000000001" y="358.8"/>
      <point x="752.5999999999999" y="233.2"/>
      <point x="605.6" y="233.2" type="curve"/>
      <point x="473.8" y="233.2"/>
      <point x="391.20000000000005" y="345.20000000000005"/>
      <point x="411.6" y="484.8" type="curve"/>
      <point x="432.6" y="639.0"/>
      <point x="564.6" y="766.6"/>
    </contour>
  </outline>
</glyph>
<glyph name="q" format="2">
  <advance width="1267.5"/>
  <unicode hex="0071"/>
  <outline>
    <contour>
      <point x="547.2" y="-28.0" type="curve"/>
      <point x="657.8" y="-28.0"/>
      <point x="751.8000000000001" y="23.199999999999996"/>
      <point x="826.6" y="104.0" type="curve"/>
      <point x="736.6" y="-500.0" type="line"/>
      <point x="1006.5999999999999" y="-500.0" type="line"/>
      <point x="1217.6" y="1000.0" type="line"/>
      <point x="947.6" y="1000.0" type="line"/>
      <point x="926.6" y="883.0" type="line"/>
      <point x="874.0" y="963.8000000000001"/>
      <point x="791.5999999999999" y="1026.0"/>
      <point x="664.8" y="1026.0" type="curve"/>
      <point x="382.8" y="1026.0"/>
      <point x="121.8" y="797.2"/>
      <point x="81.8" y="515.2" type="curve"/>
      <point x="39.8" y="215.2"/>
      <point x="249.2" y="-28.0"/>
    </contour>
    <contour>
      <point x="661.8000000000001" y="766.6" type="curve"/>
      <point x="794.8" y="766.6"/>
      <point x="875.6" y="653.6"/>
      <point x="856.0" y="515.2" type="curve"/>
      <point x="834.8000000000001" y="359.8"/>
      <point x="705.2" y="233.2"/>
      <point x="557.2" y="233.2" type="curve"/>
      <point x="424.6" y="233.2"/>
      <point x="334.8" y="344.20000000000005"/>
      <point x="355.2" y="484.8" type="curve"/>
      <point x="376.4" y="638.5999999999999"/>
      <point x="513.8" y="766.6"/>
    </contour>
  </outline>
</glyph>
<glyph name="r" format="2">
  <advance width="813.25"/>
  <unicode hex="0072"/>
  <outline>
    <contour>
      <point x="777.8" y="728.8000000000001" type="curve"/>
      <point x="848.8000000000001" y="1011.6" type="line"/>
      <point x="810.8" y="1023.5999999999999"/>
      <point x="767.5999999999999" y="1026.2"/>
      <point x="714.2" y="1026.2" type="curve" smooth="yes"/>
      <point x="609.4" y="1026.2"/>
      <point x="517.4" y="978.8000000000001"/>
      <point x="441.6" y="899.4" type="curve"/>
      <point x="460.8" y="998.2" type="line"/>
      <point x="190.0" y="998.2" type="line"/>
      <point x="50.0" y="0.0" type="line"/>
      <point x="321.8" y="0.0" type="line"/>
      <point x="391.8" y="499.0" type="line" smooth="yes"/>
      <point x="411.6" y="643.2"/>
      <point x="514.8" y="766.8"/>
      <point x="660.6" y="766.8" type="curve" smooth="yes"/>
      <point x="705.2" y="766.8"/>
      <point x="746.2" y="754.8000000000001"/>
    </contour>
  </outline>
</glyph>
<glyph name="s" format="2">
  <advance width="891.25"/>
  <unicode hex="0073"/>
  <outline>
    <contour>
      <point x="364.2" y="-16.599999999999998" type="curve" smooth="yes"/>
      <point x="563.1999999999999" y="-34.8"/>
      <point x="773.5999999999999" y="93.0"/>
      <point x="800.1999999999999" y="281.20000000000005" type="curve" smooth="yes"/>
      <point x="830.2" y="460.6"/>
      <point x="675.0" y="562.8000000000001"/>
      <point x="501.0" y="616.6" type="curve" smooth="yes"/>
      <point x="449.6" y="638.1999999999999"/>
      <point x="351.6" y="638.8"/>
      <point x="360.2" y="698.8" type="curve" smooth="yes"/>
      <point x="371.2" y="777.8"/>
      <point x="446.59999999999997" y="810.4"/>
      <point x="534.0" y="806.0" type="curve" smooth="yes"/>
      <point x="587.2" y="799.8"/>
      <point x="634.4" y="766.1999999999999"/>
      <point x="654.4000000000001" y="726.6" type="curve"/>
      <point x="876.6" y="840.2" type="line"/>
      <point x="810.4" y="959.6"/>
      <point x="678.5999999999999" y="1034.0"/>
      <point x="513.2" y="1034.0" type="curve" smooth="yes"/>
      <point x="324.6" y="1034.0"/>
      <point x="137.79999999999998" y="915.8000000000001"/>
      <point x="110.19999999999999" y="722.2" type="curve" smooth="yes"/>
      <point x="83.8" y="532.6"/>
      <point x="247.4" y="419.8"/>
      <point x="435.2" y="388.0" type="curve" smooth="yes"/>
      <point x="487.59999999999997" y="374.40000000000003"/>
      <point x="563.1999999999999" y="366.2"/>
      <point x="554.8" y="308.2" type="curve" smooth="yes"/>
      <point x="545.5999999999999" y="240.2"/>
      <point x="468.19999999999993" y="209.8"/>
      <point x="396.0" y="209.8" type="curve" smooth="yes"/>
      <point x="319.2" y="209.8"/>
      <point x="270.6" y="255.20000000000002"/>
      <point x="252.8" y="288.0" type="curve"/>
      <point x="20.6" y="202.4" type="line"/>
      <point x="64.8" y="73.60000000000001"/>
      <point x="204.40000000000003" y="-5.2"/>
    </contour>
  </outline>
</glyph>
<glyph name="t" format="2">
  <advance width="722.5"/>
  <unicode hex="0074"/>
  <outline>
    <contour>
      <point x="695.1999999999999" y="730.0" type="line"/>
      <point x="732.8" y="1000.0" type="line"/>
      <point x="549.8" y="1000.0" type="line"/>
      <point x="594.8000000000001" y="1322.8" type="line"/>
      <point x="324.8" y="1322.8" type="line"/>
      <point x="279.8" y="1000.0" type="line"/>
      <point x="140.39999999999998" y="1000.0" type="line"/>
      <point x="102.6" y="730.0" type="line"/>
      <point x="242.20000000000002" y="730.0" type="line"/>
      <point x="139.6" y="0.0" type="line"/>
      <point x="409.6" y="0.0" type="line"/>
      <point x="512.1999999999999" y="730.0" type="line"/>
    </contour>
  </outline>
</glyph>
<glyph name="u" format="2">
  <advance width="1233.75"/>
  <unicode hex="0075"/>
  <outline>
    <contour>
      <point x="120.0" y="497.2" type="line"/>
      <point x="82.0" y="212.0"/>
      <point x="229.8" y="-27.8"/>
      <point x="519.8000000000001" y="-27.8" type="curve"/>
      <point x="624.8000000000001" y="-27.8"/>
      <point x="716.6" y="21.4"/>
      <point x="792.1999999999999" y="100.79999999999998" type="curve"/>
      <point x="772.8" y="0.0" type="line"/>
      <point x="1043.8" y="0.0" type="line"/>
      <point x="1183.8" y="1000.0" type="line"/>
      <point x="913.8" y="1000.0" type="line"/>
      <point x="843.8" y="501.2" type="line"/>
      <point x="824.0" y="357.0"/>
      <point x="718.8" y="233.60000000000002"/>
      <point x="573.4" y="233.60000000000002" type="curve"/>
      <point x="440.40000000000003" y="233.60000000000002"/>
      <point x="367.6" y="342.6"/>
      <point x="388.2" y="486.8" type="curve"/>
      <point x="460.0" y="1000.0" type="line"/>
      <point x="190.0" y="1000.0" type="line"/>
    </contour>
  </outline>
</glyph>
<glyph name="v" format="2">
  <advance width="1197.0"/>
  <unicode hex="0076"/>
  <outline>
    <contour>
      <point x="704.5999999999999" y="0.0" type="line"/>
      <point x="1209.8" y="1000.6" type="line"/>
      <point x="917.2" y="1000.6" type="line"/>
      <point x="567.2" y="310.20000000000005" type="line"/>
      <point x="416.2" y="1000.6" type="line"/>
      <point x="132.8" y="1000.6" type="line"/>
      <point x="356.0" y="0.0" type="line"/>
    </contour>
  </outline>
</glyph>
<glyph name="w" format="2">
  <advance width="1725.0"/>
  <unicode hex="0077"/>
  <outline>
    <contour>
      <point x="591.8" y="0.0" type="line"/>
      <point x="881.6" y="609.2" type="line"/>
      <point x="996.5999999999999" y="0.0" type="line"/>
      <point x="1262.6" y="0.0" type="line"/>
      <point x="1737.8" y="1000.2" type="line"/>
      <point x="1468.6000000000001" y="1000.2" type="line"/>
      <point x="1177.8" y="392.20000000000005" type="line"/>
      <point x="1063.2" y="1000.2" type="line"/>
      <point x="798.2" y="1000.2" type="line"/>
      <point x="509.20000000000005" y="392.20000000000005" type="line"/>
      <point x="392.8" y="1000.2" type="line"/>
      <point x="132.8" y="1000.2" type="line"/>
      <point x="326.0" y="0.0" type="line"/>
    </contour>
  </outline>
</glyph>
<glyph name="x" format="2">
  <advance width="1225.0"/>
  <unicode hex="0078"/>
  <outline>
    <contour>
      <point x="7.2" y="0.0" type="line"/>
      <point x="345.6" y="0.0" type="line"/>
      <point x="585.8" y="273.6" type="line"/>
      <point x="744.6" y="0.0" type="line"/>
      <point x="1072.2" y="0.0" type="line"/>
      <point x="779.0" y="502.0" type="line"/>
      <point x="1214.1999999999998" y="1000.6" type="line"/>
      <point x="875.8000000000001" y="1000.6" type="line"/>
      <point x="638.8" y="732.6" type="line"/>
      <point x="483.8" y="1000.6" type="line"/>
      <point x="156.2" y="1000.6" type="line"/>
      <point x="446.0" y="502.0" type="line"/>
    </contour>
  </outline>
</glyph>
<glyph name="y" format="2">
  <advance width="1173.5"/>
  <unicode hex="0079"/>
  <outline>
    <contour>
      <point x="874.0" y="1000.0" type="line"/>
      <point x="552.5999999999999" y="369.20000000000005" type="line"/>
      <point x="443.6" y="1000.0" type="line"/>
      <point x="152.8" y="1000.0" type="line"/>
      <point x="369.8" y="0.19999999999999996" type="line"/>
      <point x="116.80000000000003" y="-500.0" type="line"/>
      <point x="407.59999999999997" y="-500.0" type="line"/>
      <point x="1166.1999999999998" y="1000.0" type="line"/>
    </contour>
  </outline>
</glyph>
<glyph name="z" format="2">
  <advance width="1089.0"/>
  <unicode hex="007A"/>
  <outline>
    <contour>
      <point x="1006.4" y="730.0" type="line"/>
      <point x="1041.6" y="1000.0" type="line"/>
      <point x="187.6" y="1000.0" type="line"/>
      <point x="149.79999999999998" y="730.0" type="line"/>
      <point x="611.1999999999999" y="730.0" type="line"/>
      <point x="82.6" y="270.0" type="line"/>
      <point x="47.599999999999994" y="0.0" type="line"/>
      <point x="901.6" y="0.0" type="line"/>
      <point x="939.2" y="270.0" type="line"/>
      <point x="477.80000000000007" y="270.0" type="line"/>
    </contour>
  </outline>
</glyph>
<glyph name="braceleft" format="2">
  <advance width="825.0"/>
  <unicode hex="007B"/>
  <outline>
    <contour>
      <point x="529.8" y="-112.2" type="curve" smooth="yes"/>
      <point x="639.0" y="-112.2" type="line"/>
      <point x="676.8" y="157.8" type="line"/>
      <point x="553.1999999999999" y="157.8" type="line" smooth="yes"/>
      <point x="508.80000000000007" y="157.8"/>
      <point x="484.59999999999997" y="186.0"/>
      <point x="490.79999999999995" y="230.60000000000002" type="curve" smooth="yes"/>
      <point x="525.8" y="485.6" type="line" smooth="yes"/>
      <point x="531.1999999999999" y="552.2"/>
      <point x="464.8" y="575.5999999999999"/>
      <point x="457.8" y="628.5999999999999" type="curve" smooth="yes"/>
      <point x="481.0" y="692.2"/>
      <point x="556.5999999999999" y="722.8"/>
      <point x="569.8" y="787.8" type="curve" smooth="yes"/>
      <point x="604.8" y="1042.8" type="line" smooth="yes"/>
      <point x="611.1999999999999" y="1087.1999999999998"/>
      <point x="660.8000000000001" y="1130.0"/>
      <point x="705.1999999999999" y="1130.0" type="curve" smooth="yes"/>
      <point x="813.2" y="1130.0" type="line"/>
      <point x="851.0" y="1400.0" type="line"/>
      <point x="727.5999999999999" y="1400.0" type="line" smooth="yes"/>
      <point x="533.5999999999999" y="1400.0"/>
      <point x="363.8" y="1249.2"/>
      <point x="336.8" y="1057.2" type="curve" smooth="yes"/>
      <point x="302.6" y="811.2" type="line" smooth="yes"/>
      <point x="293.2" y="751.6"/>
      <point x="152.2" y="729.0"/>
      <point x="142.6" y="659.0" type="curve" smooth="yes"/>
      <point x="129.8" y="567.0"/>
      <point x="266.6" y="557.8000000000001"/>
      <point x="257.6" y="489.2" type="curve" smooth="yes"/>
      <point x="222.60000000000002" y="245.0" type="line" smooth="yes"/>
      <point x="195.60000000000002" y="51.2"/>
      <point x="335.8" y="-112.2"/>
    </contour>
  </outline>
</glyph>
<glyph name="braceright" format="2">
  <advance width="825.0"/>
  <unicode hex="007D"/>
  <outline>
    <contour>
      <point x="14.0" y="-112.2" type="line"/>
      <point x="137.39999999999998" y="-112.2" type="line" smooth="yes"/>
      <point x="331.4" y="-112.2"/>
      <point x="501.40000000000003" y="36.8"/>
      <point x="528.4000000000001" y="230.60000000000002" type="curve" smooth="yes"/>
      <point x="562.4000000000001" y="474.8" type="line" smooth="yes"/>
      <point x="572.8" y="543.2"/>
      <point x="712.2" y="552.5999999999999"/>
      <point x="723.2" y="628.5999999999999" type="curve" smooth="yes"/>
      <point x="735.4" y="714.5999999999999"/>
      <point x="600.2" y="737.0"/>
      <point x="608.2" y="796.8" type="curve" smooth="yes"/>
      <point x="642.4000000000001" y="1042.8" type="line" smooth="yes"/>
      <point x="669.4000000000001" y="1234.8"/>
      <point x="529.2" y="1400.0"/>
      <point x="335.2" y="1400.0" type="curve" smooth="yes"/>
      <point x="226.0" y="1400.0" type="line"/>
      <point x="188.2" y="1130.0" type="line"/>
      <point x="312.59999999999997" y="1130.0" type="line" smooth="yes"/>
      <point x="356.8" y="1130.0"/>
      <point x="380.59999999999997" y="1101.8"/>
      <point x="374.2" y="1057.2" type="curve" smooth="yes"/>
      <point x="339.2" y="802.2" type="line"/>
      <point x="333.8" y="737.2"/>
      <point x="400.8" y="706.4000000000001"/>
      <point x="408.20000000000005" y="658.8" type="curve" smooth="yes"/>
      <point x="383.6" y="589.8"/>
      <point x="309.4" y="566.8000000000001"/>
      <point x="296.0" y="500.0" type="curve"/>
      <point x="260.2" y="245.0" type="line" smooth="yes"/>
      <point x="253.79999999999998" y="200.6"/>
      <point x="205.20000000000002" y="157.8"/>
      <point x="160.79999999999998" y="157.8" type="curve" smooth="yes"/>
      <point x="51.8" y="157.8" type="line"/>
    </contour>
  </outline>
</glyph>
<glyph name="asciitilde" format="2">
  <advance width="1325.5"/>
  <unicode hex="007E"/>
  <outline>
    <contour>
      <point x="976.8" y="391.4" type="curve" smooth="yes"/>
      <point x="1155.8" y="391.4"/>
      <point x="1274.2" y="546.5999999999999"/>
      <point x="1272.8" y="729.8000000000001" type="curve"/>
      <point x="1012.6" y="749.1999999999999" type="line"/>
      <point x="1008.1999999999999" y="692.1999999999999"/>
      <point x="972.0" y="637.2"/>
      <point x="906.4" y="637.2" type="curve" smooth="yes"/>
      <point x="773.0" y="637.2"/>
      <point x="601.4" y="808.6"/>
      <point x="419.20000000000005" y="808.6" type="curve" smooth="yes"/>
      <point x="239.20000000000002" y="808.6"/>
      <point x="78.6" y="648.1999999999999"/>
      <point x="78.8" y="466.4" type="curve"/>
      <point x="340.0" y="446.6" type="line"/>
      <point x="343.6" y="497.40000000000003"/>
      <point x="376.2" y="556.2"/>
      <point x="441.59999999999997" y="555.8" type="curve" smooth="yes"/>
      <point x="572.4" y="556.2"/>
      <point x="793.4000000000001" y="391.4"/>
    </contour>
  </outline>
</glyph>
<glyph name="exclamdown" format="2">
  <advance width="467.0"/>
  <unicode hex="00A1"/>
  <outline>
    <contour>
      <point x="273.8" y="1026.0" type="curve"/>
      <point x="207.0" y="1026.0"/>
      <point x="146.6" y="973.0"/>
      <point x="136.6" y="902.6" type="curve"/>
      <point x="124.8" y="819.8000000000001"/>
      <point x="183.2" y="752.2"/>
      <point x="266.0" y="752.2" type="curve"/>
      <point x="334.6" y="752.2"/>
      <point x="395.0" y="805.2"/>
      <point x="404.2" y="872.0" type="curve"/>
      <point x="416.0" y="958.5999999999999"/>
      <point x="358.6" y="1026.0"/>
    </contour>
    <contour>
      <point x="340.0" y="580.0" type="line"/>
      <point x="113.8" y="580.0" type="line"/>
      <point x="-23.200000000000003" y="-400.0" type="line"/>
      <point x="203.0" y="-400.0" type="line"/>
    </contour>
  </outline>
</glyph>
<glyph name="cent" format="2">
  <advance width="1092.0"/>
  <unicode hex="00A2"/>
  <outline>
    <contour>
      <point x="419.4" y="0.0" type="line"/>
      <point x="602.8" y="0.0" type="line"/>
      <point x="638.8" y="205.2" type="line"/>
      <point x="786.2" y="230.79999999999998"/>
      <point x="915.8000000000001" y="313.20000000000005"/>
      <point x="1006.6" y="433.8" type="curve"/>
      <point x="783.6" y="581.2" type="line"/>
      <point x="733.0" y="516.2"/>
      <point x="647.8000000000001" y="468.0"/>
      <point x="562.6" y="468.0" type="curve" smooth="yes"/>
      <point x="443.6" y="468.0"/>
      <point x="358.8" y="565.5999999999999"/>
      <point x="376.2" y="686.8" type="curve" smooth="yes"/>
      <point x="395.4" y="821.5999999999999"/>
      <point x="523.8000000000001" y="934.0"/>
      <point x="658.6" y="934.0" type="curve" smooth="yes"/>
      <point x="728.6" y="934.0"/>
      <point x="794.8" y="898.2"/>
      <point x="829.6" y="833.2" type="curve"/>
      <point x="1073.4" y="955.8" type="line"/>
      <point x="1015.4" y="1076.1999999999998"/>
      <point x="902.8000000000001" y="1167.8"/>
      <point x="762.8" y="1193.2" type="curve"/>
      <point x="799.8" y="1400.0" type="line"/>
      <point x="616.2" y="1400.0" type="line"/>
      <point x="581.2" y="1196.8" type="line"/>
      <point x="342.4" y="1154.1999999999998"/>
      <point x="144.2" y="954.2"/>
      <point x="110.8" y="717.2" type="curve" smooth="yes"/>
      <point x="74.6" y="462.59999999999997"/>
      <point x="230.6" y="253.0"/>
      <point x="456.4" y="208.8" type="curve"/>
    </contour>
  </outline>
</glyph>
<glyph name="sterling" format="2">
  <advance width="1204.0"/>
  <unicode hex="00A3"/>
  <outline>
    <contour>
      <point x="34.0" y="0.0" type="line"/>
      <point x="1031.2" y="0.0" type="line"/>
      <point x="1069.0" y="270.0" type="line"/>
      <point x="571.8" y="262.8" type="line"/>
      <point x="586.8000000000001" y="277.8"/>
      <point x="609.4" y="319.6"/>
      <point x="613.8" y="351.20000000000005" type="curve" smooth="yes"/>
      <point x="652.2" y="619.2"/>
      <point x="373.6" y="668.2"/>
      <point x="404.8" y="889.8" type="curve" smooth="yes"/>
      <point x="424.8" y="1035.6"/>
      <point x="562.6" y="1156.0"/>
      <point x="708.6" y="1156.0" type="curve" smooth="yes"/>
      <point x="840.1999999999999" y="1156.0"/>
      <point x="931.6" y="1050.0"/>
      <point x="911.6" y="912.2" type="curve"/>
      <point x="1179.8" y="897.8" type="line"/>
      <point x="1220.4" y="1185.0"/>
      <point x="1011.2" y="1426.0"/>
      <point x="715.8" y="1426.0" type="curve" smooth="yes"/>
      <point x="438.20000000000005" y="1426.0"/>
      <point x="178.2" y="1197.8"/>
      <point x="139.4" y="920.2" type="curve" smooth="yes"/>
      <point x="110.6" y="717.8000000000001"/>
      <point x="317.6" y="580.8000000000001"/>
      <point x="355.40000000000003" y="463.20000000000005" type="curve" smooth="yes"/>
      <point x="392.20000000000005" y="345.2"/>
      <point x="195.79999999999998" y="270.0"/>
      <point x="64.6" y="270.0" type="curve"/>
    </contour>
    <contour>
      <point x="96.2" y="445.0" type="line"/>
      <point x="870.6" y="445.0" type="line"/>
      <point x="896.2" y="627.6" type="line"/>
      <point x="121.8" y="627.6" type="line"/>
    </contour>
  </outline>
</glyph>
<glyph name="currency" format="2">
  <advance width="1037.5"/>
  <unicode hex="00A4"/>
  <outline>
    <contour>
      <point x="180.79999999999998" y="261.2" type="line"/>
      <point x="332.8" y="393.8" type="line"/>
      <point x="433.6" y="325.0"/>
      <point x="568.8" y="319.2"/>
      <point x="692.8" y="384.59999999999997" type="curve"/>
      <point x="802.0" y="261.2" type="line"/>
      <point x="942.6" y="390.6" type="line"/>
      <point x="833.8" y="511.40000000000003" type="line"/>
      <point x="918.4000000000001" y="622.5999999999999"/>
      <point x="930.4000000000001" y="764.5999999999999"/>
      <point x="878.1999999999999" y="875.8000000000001" type="curve"/>
      <point x="1029.3999999999999" y="1011.2" type="line"/>
      <point x="914.5999999999999" y="1138.8" type="line"/>
      <point x="760.6" y="1006.1999999999999" type="line"/>
      <point x="663.2" y="1069.0"/>
      <point x="522.5999999999999" y="1076.0"/>
      <point x="405.6" y="1011.5999999999999" type="curve"/>
      <point x="294.20000000000005" y="1138.8" type="line"/>
      <point x="151.8" y="1011.2" type="line"/>
      <point x="265.6" y="884.6" type="line"/>
      <point x="180.8" y="775.1999999999999"/>
      <point x="169.0" y="637.1999999999999"/>
      <point x="218.0" y="527.6" type="curve"/>
      <point x="64.2" y="390.6" type="line"/>
    </contour>
    <contour>
      <point x="509.6" y="521.4" type="curve" smooth="yes"/>
      <point x="420.2" y="519.6"/>
      <point x="357.0" y="593.4"/>
      <point x="370.4" y="683.5999999999999" type="curve" smooth="yes"/>
      <point x="383.8" y="782.4"/>
      <point x="479.0" y="876.2"/>
      <point x="589.2" y="874.4" type="curve" smooth="yes"/>
      <point x="673.8000000000001" y="872.6"/>
      <point x="741.2" y="810.8000000000001"/>
      <point x="727.0" y="714.1999999999999" type="curve" smooth="yes"/>
      <point x="711.8000000000001" y="606.6"/>
      <point x="614.4" y="523.2"/>
    </contour>
  </outline>
</glyph>
<glyph name="yen" format="2">
  <advance width="1361.5"/>
  <unicode hex="00A5"/>
  <outline>
    <contour>
      <point x="475.79999999999995" y="0.0" type="line"/>
      <point x="745.8" y="0.0" type="line"/>
      <point x="764.5999999999999" y="136.8" type="line"/>
      <point x="993.5999999999999" y="136.8" type="line"/>
      <point x="1019.1999999999999" y="319.4" type="line"/>
      <point x="790.1999999999999" y="319.4" type="line"/>
      <point x="802.5999999999999" y="402.8" type="line"/>
      <point x="1031.6" y="402.8" type="line"/>
      <point x="1057.0" y="585.4" type="line"/>
      <point x="828.0" y="585.4" type="line"/>
      <point x="836.5999999999999" y="630.8" type="line"/>
      <point x="1428.6" y="1400.0" type="line"/>
      <point x="1103.8" y="1400.0" type="line"/>
      <point x="734.8" y="924.2" type="line"/>
      <point x="504.4" y="1400.0" type="line"/>
      <point x="192.2" y="1400.0" type="line"/>
      <point x="566.5999999999999" y="630.8" type="line"/>
      <point x="557.1999999999999" y="585.4" type="line"/>
      <point x="329.0" y="585.4" type="line"/>
      <point x="303.6" y="402.8" type="line"/>
      <point x="532.5999999999999" y="402.8" type="line"/>
      <point x="520.1999999999999" y="319.4" type="line"/>
      <point x="291.2" y="319.4" type="line"/>
      <point x="265.6" y="136.8" type="line"/>
      <point x="494.59999999999997" y="136.8" type="line"/>
    </contour>
  </outline>
</glyph>
<glyph name="brokenbar" format="2">
  <advance width="510.0"/>
  <unicode hex="00A6"/>
  <outline>
    <contour>
      <point x="113.0" y="448.0" type="line"/>
      <point x="7.0" y="-302.0" type="line"/>
      <point x="277.0" y="-302.0" type="line"/>
      <point x="383.0" y="448.0" type="line"/>
    </contour>
    <contour>
      <point x="246.0" y="1400.0" type="line"/>
      <point x="141.0" y="650.0" type="line"/>
      <point x="411.0" y="650.0" type="line"/>
      <point x="516.0" y="1400.0" type="line"/>
    </contour>
  </outline>
</glyph>
<glyph name="section" format="2">
  <advance width="1108.5"/>
  <unicode hex="00A7"/>
  <outline>
    <contour>
      <point x="435.6" y="-364.6" type="curve" smooth="yes"/>
      <point x="625.2" y="-364.6"/>
      <point x="812.0" y="-246.2"/>
      <point x="838.6" y="-52.8" type="curve" smooth="yes"/>
      <point x="850.8000000000001" y="35.0"/>
      <point x="821.2" y="99.8"/>
      <point x="770.6" y="141.4" type="curve"/>
      <point x="889.2" y="225.0"/>
      <point x="967.8000000000001" y="350.6"/>
      <point x="986.6" y="484.6" type="curve" smooth="yes"/>
      <point x="1020.8000000000001" y="729.0"/>
      <point x="881.6" y="910.8"/>
      <point x="654.6" y="951.6" type="curve" smooth="yes"/>
      <point x="598.0" y="965.0"/>
      <point x="510.20000000000005" y="971.0"/>
      <point x="518.8000000000001" y="1029.1999999999998" type="curve" smooth="yes"/>
      <point x="529.8000000000001" y="1108.1999999999998"/>
      <point x="605.4" y="1140.8"/>
      <point x="693.5999999999999" y="1136.6" type="curve" smooth="yes"/>
      <point x="745.8" y="1130.3999999999999"/>
      <point x="793.2" y="1096.6000000000001"/>
      <point x="814.0" y="1057.2" type="curve"/>
      <point x="1035.2" y="1170.6" type="line"/>
      <point x="969.0" y="1290.1999999999998"/>
      <point x="837.2" y="1364.6"/>
      <point x="672.8" y="1364.6" type="curve" smooth="yes"/>
      <point x="483.2" y="1364.6"/>
      <point x="296.6" y="1246.2"/>
      <point x="269.8" y="1052.8" type="curve" smooth="yes"/>
      <point x="257.6" y="964.8000000000001"/>
      <point x="287.2" y="900.0"/>
      <point x="336.20000000000005" y="860.2" type="curve"/>
      <point x="218.8" y="776.2"/>
      <point x="140.8" y="649.0"/>
      <point x="121.8" y="515.0" type="curve" smooth="yes"/>
      <point x="90.2" y="290.8"/>
      <point x="230.20000000000002" y="74.8"/>
      <point x="448.8" y="49.4" type="curve" smooth="yes"/>
      <point x="504.20000000000005" y="39.599999999999994"/>
      <point x="598.2" y="30.8"/>
      <point x="589.8" y="-29.199999999999996" type="curve" smooth="yes"/>
      <point x="578.6" y="-108.19999999999999"/>
      <point x="503.19999999999993" y="-140.8"/>
      <point x="414.79999999999995" y="-136.6" type="curve" smooth="yes"/>
      <point x="362.6" y="-130.4"/>
      <point x="315.4" y="-96.6"/>
      <point x="294.6" y="-57.199999999999996" type="curve"/>
      <point x="73.20000000000002" y="-170.6" type="line"/>
      <point x="139.6" y="-290.20000000000005"/>
      <point x="271.2" y="-364.6"/>
    </contour>
    <contour>
      <point x="520.6" y="283.8" type="curve" smooth="yes"/>
      <point x="403.8" y="283.8"/>
      <point x="338.40000000000003" y="372.0"/>
      <point x="354.8" y="484.6" type="curve" smooth="yes"/>
      <point x="370.6" y="597.8"/>
      <point x="482.20000000000005" y="716.2"/>
      <point x="580.8" y="716.2" type="curve" smooth="yes"/>
      <point x="702.5999999999999" y="716.2"/>
      <point x="770.4" y="635.6"/>
      <point x="753.4" y="514.2" type="curve" smooth="yes"/>
      <point x="737.0" y="397.59999999999997"/>
      <point x="628.0" y="283.8"/>
    </contour>
  </outline>
</glyph>
<glyph name="copyright" format="2">
  <advance width="1932.25"/>
  <unicode hex="00A9"/>
  <outline>
    <contour>
      <point x="861.8000000000001" y="-344.6" type="curve" smooth="yes"/>
      <point x="1344.2" y="-344.6"/>
      <point x="1787.6000000000001" y="43.8"/>
      <point x="1855.6000000000001" y="525.5999999999999" type="curve" smooth="yes"/>
      <point x="1926.2" y="1025.0"/>
      <point x="1577.8" y="1426.0"/>
      <point x="1080.0" y="1426.0" type="curve" smooth="yes"/>
      <point x="598.2" y="1426.0"/>
      <point x="155.8" y="1037.8"/>
      <point x="87.8" y="556.0" type="curve" smooth="yes"/>
      <point x="18.2" y="58.2"/>
      <point x="364.8" y="-344.6"/>
    </contour>
    <contour>
      <point x="869.8000000000001" y="-74.6" type="curve" smooth="yes"/>
      <point x="544.5999999999999" y="-74.6"/>
      <point x="306.0" y="185.2"/>
      <point x="353.4" y="525.5999999999999" type="curve" smooth="yes"/>
      <point x="401.6" y="866.5999999999999"/>
      <point x="717.4" y="1155.6"/>
      <point x="1072.8" y="1156.0" type="curve" smooth="yes"/>
      <point x="1407.8" y="1156.6"/>
      <point x="1636.6000000000001" y="885.2"/>
      <point x="1590.2" y="556.0" type="curve" smooth="yes"/>
      <point x="1542.0" y="215.6"/>
      <point x="1225.0" y="-74.6"/>
    </contour>
    <component base="c" xOffset="412.8" yOffset="40.8"/>
  </outline>
</glyph>
<glyph name="logicalnot" format="2">
  <advance width="1035.5"/>
  <unicode hex="00AC"/>
  <outline>
    <contour>
      <point x="654.6" y="282.6" type="line"/>
      <point x="924.6" y="282.6" type="line"/>
      <point x="1014.4" y="917.6" type="line"/>
      <point x="138.8" y="917.6" type="line"/>
      <point x="101.2" y="647.6" type="line"/>
      <point x="706.6" y="647.6" type="line"/>
    </contour>
  </outline>
</glyph>
<glyph name="registered" format="2">
  <advance width="1156.75"/>
  <unicode hex="00AE"/>
  <outline>
    <contour>
      <point x="576.4" y="382.6" type="curve" smooth="yes"/>
      <point x="850.8" y="382.8"/>
      <point x="1111.6" y="604.2"/>
      <point x="1151.0" y="886.5999999999999" type="curve" smooth="yes"/>
      <point x="1191.3999999999999" y="1173.8"/>
      <point x="990.6" y="1419.2"/>
      <point x="691.6" y="1419.2" type="curve" smooth="yes"/>
      <point x="412.8" y="1419.2"/>
      <point x="157.4" y="1194.2"/>
      <point x="118.8" y="917.0" type="curve" smooth="yes"/>
      <point x="77.4" y="622.2"/>
      <point x="282.2" y="382.8"/>
    </contour>
    <contour>
      <point x="573.2" y="573.8" type="curve" smooth="yes"/>
      <point x="400.20000000000005" y="573.8"/>
      <point x="281.4" y="712.8"/>
      <point x="305.59999999999997" y="886.5999999999999" type="curve" smooth="yes"/>
      <point x="332.2" y="1074.6"/>
      <point x="507.6" y="1228.0"/>
      <point x="694.8000000000001" y="1228.0" type="curve" smooth="yes"/>
      <point x="869.4000000000001" y="1228.0"/>
      <point x="988.4" y="1089.0"/>
      <point x="964.2" y="917.0" type="curve" smooth="yes"/>
      <point x="937.4" y="727.2"/>
      <point x="762.0" y="573.8"/>
    </contour>
    <contour>
      <point x="464.2" y="700.0" type="line"/>
      <point x="568.0" y="700.0" type="line"/>
      <point x="590.1999999999999" y="856.8" type="line"/>
      <point x="612.6" y="856.8" type="line"/>
      <point x="682.8" y="700.0" type="line"/>
      <point x="796.1999999999999" y="700.0" type="line"/>
      <point x="725.2" y="871.0" type="line"/>
      <point x="772.6" y="893.1999999999999"/>
      <point x="798.4" y="935.2"/>
      <point x="804.6" y="979.2" type="curve" smooth="yes"/>
      <point x="816.2" y="1063.1999999999998"/>
      <point x="760.4000000000001" y="1132.6"/>
      <point x="686.6" y="1132.6" type="curve" smooth="yes"/>
      <point x="525.2" y="1132.6" type="line"/>
    </contour>
    <contour>
      <point x="604.1999999999999" y="960.6" type="line"/>
      <point x="613.8" y="1028.8" type="line"/>
      <point x="687.8000000000001" y="1028.8" type="line" smooth="yes"/>
      <point x="703.0" y="1028.8"/>
      <point x="706.5999999999999" y="1021.0"/>
      <point x="705.1999999999999" y="1009.8000000000001" type="curve" smooth="yes"/>
      <point x="701.4" y="982.8000000000001"/>
      <point x="678.1999999999999" y="960.6"/>
      <point x="662.8000000000001" y="960.6" type="curve" smooth="yes"/>
    </contour>
  </outline>
</glyph>
<glyph name="macron" format="2">
  <advance width="1200.0"/>
  <unicode hex="00AF"/>
  <outline>
    <contour>
      <point x="392.0" y="1427.0" type="line"/>
      <point x="354.2" y="1157.0" type="line"/>
      <point x="1030.2" y="1157.0" type="line"/>
      <point x="1068.0" y="1427.0" type="line"/>
    </contour>
  </outline>
</glyph>
<glyph name="degree" format="2">
  <advance width="965.75"/>
  <unicode hex="00B0"/>
  <outline>
    <contour>
      <point x="524.1999999999999" y="678.0" type="curve" smooth="yes"/>
      <point x="732.4" y="678.0"/>
      <point x="933.4" y="842.5999999999999"/>
      <point x="965.0" y="1064.8" type="curve" smooth="yes"/>
      <point x="995.8" y="1285.6"/>
      <point x="844.6" y="1482.0"/>
      <point x="606.1999999999999" y="1482.0" type="curve" smooth="yes"/>
      <point x="389.40000000000003" y="1482.0"/>
      <point x="193.6" y="1305.2"/>
      <point x="163.8" y="1095.2" type="curve" smooth="yes"/>
      <point x="133.0" y="874.6"/>
      <point x="287.59999999999997" y="678.0"/>
    </contour>
    <contour>
      <point x="531.5999999999999" y="948.0" type="curve" smooth="yes"/>
      <point x="465.6" y="948.0"/>
      <point x="420.2" y="998.8"/>
      <point x="429.2" y="1064.8" type="curve" smooth="yes"/>
      <point x="441.2" y="1146.8"/>
      <point x="517.0" y="1212.0"/>
      <point x="599.0" y="1212.0" type="curve" smooth="yes"/>
      <point x="663.2" y="1212.0"/>
      <point x="708.5999999999999" y="1161.2"/>
      <point x="699.5999999999999" y="1095.2" type="curve" smooth="yes"/>
      <point x="687.5999999999999" y="1013.2"/>
      <point x="611.8" y="948.0"/>
    </contour>
  </outline>
</glyph>
<glyph name="plusminus" format="2">
  <advance width="1160.0"/>
  <unicode hex="00B1"/>
  <outline>
    <contour>
      <point x="429.2" y="387.6" type="line"/>
      <point x="699.2" y="387.6" type="line"/>
      <point x="750.4" y="752.6" type="line"/>
      <point x="1115.4" y="752.6" type="line"/>
      <point x="1153.2" y="1022.6" type="line"/>
      <point x="788.2" y="1022.6" type="line"/>
      <point x="839.2" y="1387.6" type="line"/>
      <point x="569.2" y="1387.6" type="line"/>
      <point x="518.2" y="1022.6" type="line"/>
      <point x="153.2" y="1022.6" type="line"/>
      <point x="115.4" y="752.6" type="line"/>
      <point x="480.4" y="752.6" type="line"/>
    </contour>
    <contour>
      <point x="10.0" y="0.19999999999999996" type="line"/>
      <point x="1010.0" y="0.19999999999999996" type="line"/>
      <point x="1047.8" y="270.2" type="line"/>
      <point x="47.8" y="270.2" type="line"/>
    </contour>
  </outline>
</glyph>
<glyph name="twosuperior" format="2">
  <advance width="719.875"/>
  <unicode hex="00B2"/>
  <outline>
    <contour>
      <point x="141.0" y="818.0" type="line"/>
      <point x="610.4" y="818.0" type="line"/>
      <point x="631.8" y="974.0" type="line"/>
      <point x="451.6" y="968.6" type="line"/>
      <point x="554.1999999999999" y="1045.6"/>
      <point x="664.1999999999999" y="1126.1999999999998"/>
      <point x="677.5999999999999" y="1223.3999999999999" type="curve"/>
      <point x="697.1999999999999" y="1364.1999999999998"/>
      <point x="598.1999999999999" y="1468.0"/>
      <point x="458.2" y="1468.0" type="curve"/>
      <point x="333.0" y="1468.0"/>
      <point x="219.2" y="1378.8"/>
      <point x="200.6" y="1245.8" type="curve"/>
      <point x="354.6" y="1231.3999999999999" type="line"/>
      <point x="361.2" y="1278.8"/>
      <point x="412.6" y="1322.6"/>
      <point x="468.2" y="1322.6" type="curve"/>
      <point x="505.8" y="1322.6"/>
      <point x="531.8" y="1293.4"/>
      <point x="522.5999999999999" y="1253.0" type="curve"/>
      <point x="439.2" y="1111.6000000000001"/>
      <point x="278.0" y="1036.8"/>
      <point x="154.4" y="959.6" type="curve"/>
    </contour>
  </outline>
</glyph>
<glyph name="threesuperior" format="2">
  <advance width="582.0"/>
  <unicode hex="00B3"/>
  <outline>
    <contour>
      <point x="349.2" y="798.0" type="curve" smooth="yes"/>
      <point x="459.8" y="798.0"/>
      <point x="562.8" y="878.2"/>
      <point x="578.8" y="991.8" type="curve" smooth="yes"/>
      <point x="588.2" y="1053.6"/>
      <point x="571.8000000000001" y="1106.8"/>
      <point x="541.6" y="1139.4" type="curve"/>
      <point x="577.6" y="1178.6"/>
      <point x="594.0" y="1221.3999999999999"/>
      <point x="599.4" y="1258.8" type="curve" smooth="yes"/>
      <point x="616.1999999999999" y="1380.0"/>
      <point x="529.8000000000001" y="1467.8"/>
      <point x="407.6" y="1467.8" type="curve" smooth="yes"/>
      <point x="302.6" y="1467.8"/>
      <point x="208.2" y="1394.6000000000001"/>
      <point x="192.6" y="1281.2" type="curve"/>
      <point x="345.8" y="1266.8" type="line"/>
      <point x="349.59999999999997" y="1293.6"/>
      <point x="383.8" y="1322.2"/>
      <point x="417.8" y="1322.2" type="curve" smooth="yes"/>
      <point x="436.40000000000003" y="1322.2"/>
      <point x="450.6" y="1308.0"/>
      <point x="447.8" y="1289.2" type="curve" smooth="yes"/>
      <point x="441.40000000000003" y="1246.8"/>
      <point x="405.8" y="1197.2"/>
      <point x="328.0" y="1197.2" type="curve"/>
      <point x="328.79999999999995" y="1096.4" type="line"/>
      <point x="406.6" y="1096.4"/>
      <point x="432.2" y="1057.4"/>
      <point x="427.4" y="1022.2" type="curve" smooth="yes"/>
      <point x="420.8" y="977.6"/>
      <point x="380.59999999999997" y="943.6"/>
      <point x="339.2" y="943.6" type="curve" smooth="yes"/>
      <point x="310.2" y="943.6"/>
      <point x="293.0" y="963.0"/>
      <point x="297.8" y="999.8" type="curve"/>
      <point x="144.6" y="1014.2" type="line"/>
      <point x="127.6" y="892.8000000000001"/>
      <point x="220.79999999999998" y="798.0"/>
    </contour>
  </outline>
</glyph>
<glyph name="paragraph" format="2">
  <advance width="1108.0"/>
  <unicode hex="00B6"/>
  <outline>
    <contour>
      <point x="307.0" y="-302.0" type="line"/>
      <point x="577.0" y="-302.0" type="line"/>
      <point x="816.0" y="1400.0" type="line"/>
      <point x="538.8" y="1400.0" type="line" smooth="yes"/>
      <point x="350.8" y="1400.0"/>
      <point x="185.8" y="1255.0"/>
      <point x="160.8" y="1075.0" type="curve" smooth="yes"/>
      <point x="132.8" y="877.2"/>
      <point x="270.2" y="718.0"/>
      <point x="458.2" y="718.0" type="curve"/>
    </contour>
    <contour>
      <point x="645.0" y="-302.0" type="line"/>
      <point x="915.0" y="-302.0" type="line"/>
      <point x="1154.0" y="1400.0" type="line"/>
      <point x="884.0" y="1400.0" type="line"/>
    </contour>
  </outline>
</glyph>
<glyph name="periodcentered" format="2">
  <advance width="433.75"/>
  <unicode hex="00B7"/>
  <outline>
    <contour>
      <point x="226.8" y="463.2" type="curve" smooth="yes"/>
      <point x="293.8" y="463.2"/>
      <point x="355.8" y="516.1999999999999"/>
      <point x="366.0" y="584.8000000000001" type="curve" smooth="yes"/>
      <point x="376.8" y="667.5999999999999"/>
      <point x="317.8" y="736.8"/>
      <point x="234.60000000000002" y="736.8" type="curve" smooth="yes"/>
      <point x="166.2" y="736.8"/>
      <point x="105.8" y="682.1999999999999"/>
      <point x="95.8" y="615.4000000000001" type="curve" smooth="yes"/>
      <point x="84.0" y="530.6"/>
      <point x="142.2" y="463.2"/>
    </contour>
  </outline>
</glyph>
<glyph name="onesuperior" format="2">
  <advance width="457.875"/>
  <unicode hex="00B9"/>
  <outline>
    <contour>
      <point x="202.8" y="818.0" type="line"/>
      <point x="358.8" y="818.0" type="line"/>
      <point x="446.8" y="1449.0" type="line"/>
      <point x="250.39999999999998" y="1449.0" type="line"/>
      <point x="206.8" y="1293.0" type="line"/>
      <point x="269.6" y="1293.0" type="line"/>
    </contour>
  </outline>
</glyph>
<glyph name="questiondown" format="2">
  <advance width="1129.0"/>
  <unicode hex="00BF"/>
  <outline>
    <contour>
      <point x="432.2" y="-426.2" type="curve" smooth="yes"/>
      <point x="681.8" y="-426.2"/>
      <point x="912.2" y="-224.2"/>
      <point x="948.0" y="31.8" type="curve"/>
      <point x="679.8" y="46.2" type="line"/>
      <point x="664.6" y="-61.999999999999986"/>
      <point x="555.8000000000001" y="-156.2"/>
      <point x="439.6" y="-156.2" type="curve" smooth="yes"/>
      <point x="339.2" y="-156.2"/>
      <point x="268.8" y="-76.6"/>
      <point x="283.2" y="23.8" type="curve" smooth="yes"/>
      <point x="294.8" y="109.0"/>
      <point x="348.6" y="179.6"/>
      <point x="420.2" y="208.8" type="curve" smooth="yes"/>
      <point x="561.8" y="287.0"/>
      <point x="656.8" y="422.6"/>
      <point x="679.0" y="577.8" type="curve"/>
      <point x="410.8" y="592.2" type="line"/>
      <point x="403.0" y="535.6"/>
      <point x="359.8" y="482.8"/>
      <point x="301.4" y="460.8" type="curve" smooth="yes"/>
      <point x="147.2" y="377.8"/>
      <point x="41.0" y="222.6"/>
      <point x="17.6" y="54.2" type="curve" smooth="yes"/>
      <point x="-20.0" y="-209.8"/>
      <point x="166.39999999999998" y="-426.2"/>
    </contour>
    <contour>
      <point x="571.8" y="752.2" type="curve" smooth="yes"/>
      <point x="640.2" y="752.2"/>
      <point x="700.6" y="805.2"/>
      <point x="709.6" y="872.0" type="curve" smooth="yes"/>
      <point x="721.6" y="958.5999999999999"/>
      <point x="664.0" y="1026.0"/>
      <point x="579.5999999999999" y="1026.0" type="curve" smooth="yes"/>
      <point x="512.5999999999999" y="1026.0"/>
      <point x="452.20000000000005" y="973.0"/>
      <point x="442.20000000000005" y="902.6" type="curve" smooth="yes"/>
      <point x="430.20000000000005" y="819.8000000000001"/>
      <point x="488.6" y="752.2"/>
    </contour>
  </outline>
</glyph>
<glyph name="AE" format="2">
  <advance width="1692.8"/>
  <unicode hex="00C6"/>
  <outline>
    <contour>
      <point x="7.2" y="0.0" type="line"/>
      <point x="298.0" y="0.0" type="line"/>
      <point x="416.6" y="235.0" type="line"/>
      <point x="811.6" y="235.0" type="line"/>
      <point x="778.6" y="0.0" type="line"/>
      <point x="1523.0" y="0.0" type="line"/>
      <point x="1560.8" y="270.0" type="line"/>
      <point x="1086.1999999999998" y="270.0" type="line"/>
      <point x="1127.6" y="565.0" type="line"/>
      <point x="1506.2" y="565.0" type="line"/>
      <point x="1543.8" y="835.0" type="line"/>
      <point x="1165.3999999999999" y="835.0" type="line"/>
      <point x="1206.8" y="1130.0" type="line"/>
      <point x="1681.2" y="1130.0" type="line"/>
      <point x="1719.0" y="1400.0" type="line"/>
      <point x="712.6" y="1400.0" type="line"/>
    </contour>
    <contour>
      <point x="553.4" y="505.0" type="line"/>
      <point x="868.6" y="1130.0" type="line"/>
      <point x="936.8000000000001" y="1130.0" type="line"/>
      <point x="849.4" y="505.0" type="line"/>
    </contour>
  </outline>
</glyph>
<glyph name="Eth" format="2">
  <advance width="1461.0"/>
  <unicode hex="00D0"/>
  <outline>
    <contour>
      <point x="168.79999999999998" y="0.0" type="line"/>
      <point x="638.0" y="0.0" type="line" smooth="yes"/>
      <point x="1024.0" y="0.0"/>
      <point x="1374.0" y="306.8"/>
      <point x="1427.2" y="684.8" type="curve" smooth="yes"/>
      <point x="1482.0" y="1078.8"/>
      <point x="1205.8" y="1400.0"/>
      <point x="819.8" y="1400.0" type="curve" smooth="yes"/>
      <point x="364.8" y="1400.0" type="line"/>
      <point x="292.6" y="885.0" type="line"/>
      <point x="154.0" y="885.0" type="line"/>
      <point x="116.4" y="615.0" type="line"/>
      <point x="254.8" y="615.0" type="line"/>
    </contour>
    <contour>
      <point x="476.40000000000003" y="270.0" type="line"/>
      <point x="524.8000000000001" y="615.0" type="line"/>
      <point x="782.8000000000001" y="615.0" type="line"/>
      <point x="820.6" y="885.0" type="line"/>
      <point x="562.6" y="885.0" type="line"/>
      <point x="597.0" y="1130.0" type="line"/>
      <point x="797.4" y="1130.0" type="line" smooth="yes"/>
      <point x="1032.8" y="1130.0"/>
      <point x="1193.3999999999999" y="944.8000000000001"/>
      <point x="1160.8" y="715.2" type="curve" smooth="yes"/>
      <point x="1126.8" y="471.59999999999997"/>
      <point x="899.0" y="270.0"/>
      <point x="661.4" y="270.0" type="curve" smooth="yes"/>
    </contour>
  </outline>
</glyph>
<glyph name="multiply" format="2">
  <advance width="1057.0"/>
  <unicode hex="00D7"/>
  <outline>
    <contour>
      <point x="226.8" y="150.8" type="line"/>
      <point x="519.8000000000001" y="409.2" type="line"/>
      <point x="742.0" y="150.8" type="line"/>
      <point x="954.6" y="341.6" type="line"/>
      <point x="732.2" y="600.0" type="line"/>
      <point x="1027.6" y="858.6" type="line"/>
      <point x="858.0" y="1049.2" type="line"/>
      <point x="563.2" y="790.8" type="line"/>
      <point x="342.8" y="1049.2" type="line"/>
      <point x="130.6" y="858.6" type="line"/>
      <point x="350.8" y="600.0" type="line"/>
      <point x="57.6" y="341.6" type="line"/>
    </contour>
  </outline>
</glyph>
<glyph name="Oslash" format="2">
  <advance width="1540.0"/>
  <unicode hex="00D8"/>
  <outline>
    <contour>
      <point x="375.6" y="-114.6" type="line"/>
      <point x="477.00000000000006" y="23.0" type="line"/>
      <point x="543.6" y="-6.800000000000001"/>
      <point x="620.0" y="-26.0"/>
      <point x="711.2" y="-26.0" type="curve" smooth="yes"/>
      <point x="1083.2" y="-26.0"/>
      <point x="1431.2" y="292.8"/>
      <point x="1486.2" y="684.8" type="curve" smooth="yes"/>
      <point x="1516.8" y="904.5999999999999"/>
      <point x="1451.2" y="1096.8"/>
      <point x="1331.6" y="1230.3999999999999" type="curve"/>
      <point x="1443.8" y="1379.6" type="line"/>
      <point x="1223.4" y="1514.6" type="line"/>
      <point x="1121.0" y="1378.8" type="line"/>
      <point x="1054.6" y="1407.0"/>
      <point x="978.0" y="1426.0"/>
      <point x="884.8" y="1426.0" type="curve" smooth="yes"/>
      <point x="512.8" y="1426.0"/>
      <point x="165.8" y="1107.2"/>
      <point x="109.8" y="715.2" type="curve" smooth="yes"/>
      <point x="79.2" y="495.8"/>
      <point x="146.8" y="303.4"/>
      <point x="264.8" y="171.4" type="curve"/>
      <point x="154.2" y="20.400000000000002" type="line"/>
    </contour>
    <contour>
      <point x="430.0" y="408.00000000000006" type="line"/>
      <point x="382.2" y="484.20000000000005"/>
      <point x="361.8" y="583.8"/>
      <point x="376.2" y="684.8" type="curve" smooth="yes"/>
      <point x="412.2" y="942.5999999999999"/>
      <point x="638.1999999999999" y="1156.0"/>
      <point x="877.6" y="1156.0" type="curve" smooth="yes"/>
      <point x="904.1999999999999" y="1156.0"/>
      <point x="937.5999999999999" y="1151.6"/>
      <point x="967.2" y="1141.6" type="curve"/>
    </contour>
    <contour>
      <point x="718.6" y="244.0" type="curve" smooth="yes"/>
      <point x="693.8000000000001" y="244.0"/>
      <point x="660.4000000000001" y="247.60000000000002"/>
      <point x="631.5999999999999" y="259.4" type="curve"/>
      <point x="1169.0" y="992.2" type="line"/>
      <point x="1216.3999999999999" y="915.8000000000001"/>
      <point x="1234.2" y="816.2"/>
      <point x="1219.8" y="715.2" type="curve" smooth="yes"/>
      <point x="1183.8" y="457.59999999999997"/>
      <point x="957.8000000000001" y="244.0"/>
    </contour>
  </outline>
</glyph>
<glyph name="Thorn" format="2">
  <advance width="1122.5"/>
  <unicode hex="00DE"/>
  <outline>
    <contour>
      <point x="50.0" y="0.0" type="line"/>
      <point x="320.0" y="0.0" type="line"/>
      <point x="358.6" y="275.6" type="line"/>
      <point x="608.8" y="275.6" type="line" smooth="yes"/>
      <point x="829.8" y="275.6"/>
      <point x="1036.8" y="457.6"/>
      <point x="1068.8" y="684.8" type="curve" smooth="yes"/>
      <point x="1102.6" y="924.2"/>
      <point x="942.1999999999999" y="1124.6"/>
      <point x="713.4" y="1124.6" type="curve" smooth="yes"/>
      <point x="477.6" y="1124.6" type="line"/>
      <point x="516.0" y="1400.0" type="line"/>
      <point x="246.0" y="1400.0" type="line"/>
    </contour>
    <contour>
      <point x="396.2" y="545.6" type="line"/>
      <point x="445.0" y="893.0" type="line"/>
      <point x="666.4000000000001" y="893.0" type="line" smooth="yes"/>
      <point x="759.2" y="893.0"/>
      <point x="818.0" y="822.8000000000001"/>
      <point x="805.8000000000001" y="734.6" type="curve" smooth="yes"/>
      <point x="791.0" y="630.2"/>
      <point x="695.2" y="545.6"/>
      <point x="602.4000000000001" y="545.6" type="curve" smooth="yes"/>
    </contour>
  </outline>
</glyph>
<glyph name="germandbls" format="2">
  <advance width="1164.0"/>
  <unicode hex="00DF"/>
  <outline>
    <contour>
      <point x="50.0" y="0.0" type="line"/>
      <point x="320.0" y="0.0" type="line"/>
      <point x="452.8" y="948.2" type="line" smooth="yes"/>
      <point x="469.4" y="1066.6"/>
      <point x="586.0" y="1168.2"/>
      <point x="711.5999999999999" y="1168.2" type="curve" smooth="yes"/>
      <point x="794.0" y="1168.2"/>
      <point x="850.6" y="1098.8"/>
      <point x="838.8000000000001" y="1013.8000000000001" type="curve" smooth="yes"/>
      <point x="824.6" y="912.8000000000001"/>
      <point x="733.0" y="841.8"/>
      <point x="641.5999999999999" y="829.5999999999999" type="curve" smooth="yes"/>
      <point x="623.2" y="825.2" type="line"/>
      <point x="593.4000000000001" y="606.0" type="line"/>
      <point x="684.0" y="602.6" type="line" smooth="yes"/>
      <point x="794.8000000000001" y="597.2"/>
      <point x="866.8" y="524.8000000000001"/>
      <point x="854.4" y="431.59999999999997" type="curve" smooth="yes"/>
      <point x="839.1999999999999" y="322.2"/>
      <point x="727.8000000000001" y="229.8"/>
      <point x="616.1999999999999" y="229.8" type="curve" smooth="yes"/>
      <point x="541.8000000000001" y="229.8" type="line"/>
      <point x="546.5999999999999" y="0.0" type="line"/>
      <point x="626.8" y="0.0" type="line" smooth="yes"/>
      <point x="854.6" y="0.0"/>
      <point x="1056.0" y="161.8"/>
      <point x="1087.6" y="381.8" type="curve" smooth="yes"/>
      <point x="1106.2" y="518.8"/>
      <point x="1095.8" y="703.4000000000001"/>
      <point x="931.8000000000001" y="727.1999999999999" type="curve"/>
      <point x="1050.6" y="777.8000000000001"/>
      <point x="1092.3999999999999" y="897.0"/>
      <point x="1104.3999999999999" y="983.2" type="curve" smooth="yes"/>
      <point x="1137.8" y="1221.1999999999998"/>
      <point x="978.4" y="1399.8"/>
      <point x="745.8000000000001" y="1399.8" type="curve" smooth="yes"/>
      <point x="467.8" y="1399.8"/>
      <point x="214.8" y="1176.0"/>
      <point x="175.2" y="892.8000000000001" type="curve" smooth="yes"/>
    </contour>
  </outline>
</glyph>
<glyph name="ae" format="2">
  <advance width="1829.125"/>
  <unicode hex="00E6"/>
  <outline>
    <contour>
      <point x="432.20000000000005" y="-22.8" type="curve" smooth="yes"/>
      <point x="556.4" y="-22.8" type="line" smooth="yes"/>
      <point x="694.6" y="-22.8"/>
      <point x="786.8000000000001" y="21.999999999999993"/>
      <point x="884.5999999999999" y="124.8" type="curve"/>
      <point x="955.2" y="39.199999999999996"/>
      <point x="1068.3999999999999" y="-22.8"/>
      <point x="1211.0" y="-22.8" type="curve" smooth="yes"/>
      <point x="1402.8" y="-22.8"/>
      <point x="1587.6000000000001" y="94.0"/>
      <point x="1692.6000000000001" y="272.0" type="curve"/>
      <point x="1419.8" y="350.2" type="line"/>
      <point x="1370.3999999999999" y="290.0"/>
      <point x="1298.2" y="247.2"/>
      <point x="1218.2" y="247.2" type="curve" smooth="yes"/>
      <point x="1115.2" y="249.0"/>
      <point x="1058.2" y="312.20000000000005"/>
      <point x="1044.4" y="406.6" type="curve"/>
      <point x="1748.8" y="406.6" type="line"/>
      <point x="1845.8" y="728.2"/>
      <point x="1650.6000000000001" y="1031.2"/>
      <point x="1328.6000000000001" y="1031.2" type="curve" smooth="yes"/>
      <point x="1202.2" y="1031.2"/>
      <point x="1076.3999999999999" y="980.0"/>
      <point x="970.8000000000001" y="882.8" type="curve"/>
      <point x="909.0" y="975.0"/>
      <point x="789.2" y="1031.2"/>
      <point x="608.6" y="1031.2" type="curve" smooth="yes"/>
      <point x="428.59999999999997" y="1031.2"/>
      <point x="285.0" y="1011.6"/>
      <point x="168.6" y="850.6" type="curve"/>
      <point x="389.0" y="701.2" type="line"/>
      <point x="416.4" y="740.8"/>
      <point x="463.8" y="785.8"/>
      <point x="604.8000000000001" y="785.8" type="curve" smooth="yes"/>
      <point x="731.6" y="785.8"/>
      <point x="789.8000000000001" y="726.2"/>
      <point x="791.0" y="621.0" type="curve"/>
      <point x="375.20000000000005" y="613.8" type="line" smooth="yes"/>
      <point x="212.6" y="613.8"/>
      <point x="81.2" y="511.0"/>
      <point x="58.199999999999996" y="356.0" type="curve" smooth="yes"/>
      <point x="25.800000000000004" y="122.0"/>
      <point x="161.2" y="-22.8"/>
    </contour>
    <contour>
      <point x="481.0" y="142.2" type="curve" smooth="yes"/>
      <point x="364.4" y="142.2"/>
      <point x="297.8" y="194.0"/>
      <point x="311.4" y="295.8" type="curve" smooth="yes"/>
      <point x="326.0" y="393.0"/>
      <point x="413.8" y="413.8"/>
      <point x="512.8" y="413.8" type="curve" smooth="yes"/>
      <point x="751.6" y="413.8" type="line"/>
      <point x="743.6" y="356.2" type="line" smooth="yes"/>
      <point x="730.4" y="263.8"/>
      <point x="628.6" y="142.2"/>
    </contour>
    <contour>
      <point x="1067.3999999999999" y="606.5999999999999" type="line"/>
      <point x="1108.6000000000001" y="712.0"/>
      <point x="1213.4" y="796.2"/>
      <point x="1325.6000000000001" y="796.2" type="curve" smooth="yes"/>
      <point x="1423.2" y="796.2"/>
      <point x="1495.2" y="725.6"/>
      <point x="1506.2" y="621.0" type="curve"/>
    </contour>
  </outline>
</glyph>
<glyph name="icircumflex" format="2">
  <advance width="509.8"/>
  <unicode hex="00EE"/>
  <outline>
    <contour>
      <point x="191.60000000000002" y="1000.0" type="line"/>
      <point x="51.599999999999994" y="0.0" type="line"/>
      <point x="321.6" y="0.0" type="line"/>
      <point x="461.6" y="1000.0" type="line"/>
    </contour>
    <component base="circumflexcomb" xOffset="-377.2"/>
  </outline>
</glyph>
<glyph name="idieresis" format="2">
  <advance width="812.5999999999999"/>
  <unicode hex="00EF"/>
  <outline>
    <contour>
      <point x="340.2" y="1000.0" type="line"/>
      <point x="200.2" y="0.0" type="line"/>
      <point x="470.20000000000005" y="0.0" type="line"/>
      <point x="610.2" y="1000.0" type="line"/>
    </contour>
    <component base="dieresiscomb" xOffset="-340.0"/>
  </outline>
</glyph>
<glyph name="divide" format="2">
  <advance width="1160.0"/>
  <unicode hex="00F7"/>
  <outline>
    <contour>
      <point x="75.2" y="465.0" type="line"/>
      <point x="1075.2" y="465.0" type="line"/>
      <point x="1112.8" y="735.0" type="line"/>
      <point x="112.8" y="735.0" type="line"/>
    </contour>
    <contour>
      <point x="649.6" y="1101.8" type="curve"/>
      <point x="577.2" y="1101.8"/>
      <point x="515.0" y="1044.2"/>
      <point x="505.6" y="975.6" type="curve"/>
      <point x="493.40000000000003" y="890.2"/>
      <point x="552.8000000000001" y="819.0"/>
      <point x="639.6" y="819.0" type="curve"/>
      <point x="709.4" y="819.0"/>
      <point x="773.8" y="875.8"/>
      <point x="783.2" y="945.0" type="curve"/>
      <point x="795.4" y="1029.8"/>
      <point x="733.8" y="1101.8"/>
    </contour>
    <contour>
      <point x="548.4" y="380.8" type="curve"/>
      <point x="476.0" y="380.8"/>
      <point x="413.8" y="323.59999999999997"/>
      <point x="404.40000000000003" y="254.6" type="curve"/>
      <point x="392.2" y="169.2"/>
      <point x="451.8" y="98.19999999999999"/>
      <point x="538.6" y="98.19999999999999" type="curve"/>
      <point x="608.2" y="98.19999999999999"/>
      <point x="673.2" y="154.8"/>
      <point x="682.6" y="224.0" type="curve"/>
      <point x="694.8000000000001" y="309.0"/>
      <point x="632.6" y="380.8"/>
    </contour>
  </outline>
</glyph>
<glyph name="oslash" format="2">
  <advance width="1120.0"/>
  <unicode hex="00F8"/>
  <outline>
    <contour>
      <point x="273.59999999999997" y="-80.2" type="line"/>
      <point x="338.2" y="5.599999999999997" type="line"/>
      <point x="383.0" y="-13.2"/>
      <point x="435.59999999999997" y="-26.0"/>
      <point x="501.2" y="-26.0" type="curve" smooth="yes"/>
      <point x="769.2" y="-26.0"/>
      <point x="1018.2" y="202.8"/>
      <point x="1058.2" y="484.8" type="curve" smooth="yes"/>
      <point x="1079.8" y="643.2"/>
      <point x="1034.1999999999998" y="780.4"/>
      <point x="953.2" y="876.4" type="curve"/>
      <point x="1026.1999999999998" y="973.8" type="line"/>
      <point x="847.6" y="1082.6" type="line"/>
      <point x="780.2" y="996.8000000000001" type="line"/>
      <point x="737.4" y="1015.6"/>
      <point x="683.2" y="1028.0"/>
      <point x="618.8" y="1028.0" type="curve" smooth="yes"/>
      <point x="350.8" y="1028.0"/>
      <point x="101.8" y="799.2"/>
      <point x="61.8" y="515.2" type="curve" smooth="yes"/>
      <point x="40.2" y="359.0"/>
      <point x="86.0" y="221.79999999999998"/>
      <point x="167.20000000000002" y="125.8" type="curve"/>
      <point x="94.20000000000002" y="28.6" type="line"/>
    </contour>
    <contour>
      <point x="321.0" y="340.6" type="line"/>
      <point x="304.20000000000005" y="379.2"/>
      <point x="298.4" y="424.20000000000005"/>
      <point x="304.6" y="469.0" type="curve" smooth="yes"/>
      <point x="329.8" y="651.5999999999999"/>
      <point x="495.59999999999997" y="801.8"/>
      <point x="647.2" y="784.8" type="curve"/>
    </contour>
    <contour>
      <point x="473.8" y="217.40000000000003" type="curve"/>
      <point x="799.4000000000001" y="661.6" type="line"/>
      <point x="814.4" y="622.8"/>
      <point x="821.6" y="575.8000000000001"/>
      <point x="815.4" y="531.0" type="curve" smooth="yes"/>
      <point x="790.2" y="349.59999999999997"/>
      <point x="629.6" y="199.8"/>
    </contour>
  </outline>
</glyph>
<glyph name="thorn" format="2">
  <advance width="1267.5"/>
  <unicode hex="00FE"/>
  <outline>
    <contour>
      <point x="-21.0" y="-500.0" type="line"/>
      <point x="249.0" y="-500.0" type="line"/>
      <point x="340.8" y="115.0" type="line"/>
      <point x="392.59999999999997" y="34.199999999999996"/>
      <point x="475.79999999999995" y="-28.0"/>
      <point x="602.8000000000001" y="-28.0" type="curve" smooth="yes"/>
      <point x="886.4000000000001" y="-28.0"/>
      <point x="1145.6" y="200.8"/>
      <point x="1185.8" y="484.8" type="curve" smooth="yes"/>
      <point x="1227.6" y="782.8"/>
      <point x="1020.0" y="1026.0"/>
      <point x="720.2" y="1026.0" type="curve" smooth="yes"/>
      <point x="609.5999999999999" y="1026.0"/>
      <point x="514.8000000000001" y="974.8000000000001"/>
      <point x="440.2" y="894.0" type="curve"/>
      <point x="516.8" y="1400.0" type="line"/>
      <point x="246.0" y="1400.0" type="line"/>
    </contour>
    <contour>
      <point x="605.6" y="233.2" type="curve" smooth="yes"/>
      <point x="473.8" y="233.2"/>
      <point x="391.20000000000005" y="345.20000000000005"/>
      <point x="411.6" y="484.8" type="curve" smooth="yes"/>
      <point x="432.6" y="639.0"/>
      <point x="564.6" y="766.6"/>
      <point x="710.4" y="766.6" type="curve" smooth="yes"/>
      <point x="843.8" y="766.6"/>
      <point x="933.4000000000001" y="653.0"/>
      <point x="914.0" y="515.2" type="curve" smooth="yes"/>
      <point x="892.8000000000001" y="358.8"/>
      <point x="752.5999999999999" y="233.2"/>
    </contour>
  </outline>
</glyph>
<glyph name="idotless" format="2">
  <advance width="510.2"/>
  <unicode hex="0131"/>
  <outline>
    <contour>
      <point x="190.0" y="1000.0" type="line"/>
      <point x="50.0" y="0.0" type="line"/>
      <point x="320.0" y="0.0" type="line"/>
      <point x="460.0" y="1000.0" type="line"/>
    </contour>
  </outline>
</glyph>
<glyph name="OE" format="2">
  <advance width="2109.75"/>
  <unicode hex="0152"/>
  <outline>
    <contour>
      <point x="711.2" y="-26.0" type="curve" smooth="yes"/>
      <point x="866.0" y="-26.0"/>
      <point x="1022.6" y="33.6"/>
      <point x="1148.1999999999998" y="136.79999999999998" type="curve"/>
      <point x="1122.6" y="0.0" type="line"/>
      <point x="1939.8" y="0.0" type="line"/>
      <point x="1977.6" y="270.0" type="line"/>
      <point x="1431.1999999999998" y="270.0" type="line"/>
      <point x="1472.6" y="565.0" type="line"/>
      <point x="1922.8" y="565.0" type="line"/>
      <point x="1960.6" y="835.0" type="line"/>
      <point x="1510.3999999999999" y="835.0" type="line"/>
      <point x="1551.8" y="1130.0" type="line"/>
      <point x="2098.0" y="1130.0" type="line"/>
      <point x="2135.8" y="1400.0" type="line"/>
      <point x="1319.6" y="1400.0" type="line"/>
      <point x="1293.1999999999998" y="1253.8" type="line"/>
      <point x="1196.6" y="1357.2"/>
      <point x="1055.6" y="1426.0"/>
      <point x="884.8" y="1426.0" type="curve" smooth="yes"/>
      <point x="512.8" y="1426.0"/>
      <point x="165.8" y="1107.2"/>
      <point x="109.8" y="715.2" type="curve" smooth="yes"/>
      <point x="52.8" y="307.2"/>
      <point x="323.2" y="-26.0"/>
    </contour>
    <contour>
      <point x="718.6" y="244.0" type="curve" smooth="yes"/>
      <point x="495.80000000000007" y="244.0"/>
      <point x="341.8" y="442.20000000000005"/>
      <point x="376.2" y="684.8" type="curve" smooth="yes"/>
      <point x="412.2" y="942.5999999999999"/>
      <point x="638.1999999999999" y="1156.0"/>
      <point x="877.6" y="1156.0" type="curve" smooth="yes"/>
      <point x="1100.2" y="1156.0"/>
      <point x="1254.2" y="957.6"/>
      <point x="1219.8" y="715.2" type="curve" smooth="yes"/>
      <point x="1183.8" y="457.59999999999997"/>
      <point x="957.8000000000001" y="244.0"/>
    </contour>
  </outline>
</glyph>
<glyph name="oe" format="2">
  <advance width="1849.75"/>
  <unicode hex="0153"/>
  <outline>
    <contour>
      <point x="501.2" y="-26.0" type="curve" smooth="yes"/>
      <point x="639.2" y="-26.0"/>
      <point x="777.6" y="37.199999999999996"/>
      <point x="886.2" y="148.6" type="curve"/>
      <point x="954.2" y="48.199999999999996"/>
      <point x="1077.2" y="-26.0"/>
      <point x="1231.2" y="-26.0" type="curve" smooth="yes"/>
      <point x="1423.2" y="-26.0"/>
      <point x="1607.8" y="90.8"/>
      <point x="1712.8" y="268.8" type="curve"/>
      <point x="1440.2" y="347.0" type="line"/>
      <point x="1390.6000000000001" y="286.8"/>
      <point x="1318.6" y="244.0"/>
      <point x="1238.6" y="244.0" type="curve" smooth="yes"/>
      <point x="1135.6" y="245.8"/>
      <point x="1078.6" y="309.0"/>
      <point x="1064.6" y="403.20000000000005" type="curve"/>
      <point x="1769.2" y="403.20000000000005" type="line"/>
      <point x="1866.0" y="725.0"/>
      <point x="1670.8" y="1028.0"/>
      <point x="1348.8" y="1028.0" type="curve" smooth="yes"/>
      <point x="1210.8" y="1028.0"/>
      <point x="1072.6" y="964.8000000000001"/>
      <point x="963.8" y="853.2" type="curve"/>
      <point x="895.8000000000001" y="953.8000000000001"/>
      <point x="772.8" y="1028.0"/>
      <point x="618.8" y="1028.0" type="curve" smooth="yes"/>
      <point x="350.8" y="1028.0"/>
      <point x="101.8" y="799.2"/>
      <point x="61.8" y="515.2" type="curve" smooth="yes"/>
      <point x="19.8" y="217.2"/>
      <point x="217.2" y="-26.0"/>
    </contour>
    <contour>
      <point x="508.6" y="244.0" type="curve" smooth="yes"/>
      <point x="392.20000000000005" y="244.0"/>
      <point x="308.8" y="348.20000000000005"/>
      <point x="328.2" y="484.8" type="curve" smooth="yes"/>
      <point x="348.4" y="631.0"/>
      <point x="474.2" y="758.0"/>
      <point x="611.6" y="758.0" type="curve" smooth="yes"/>
      <point x="728.8000000000001" y="758.0"/>
      <point x="811.2" y="649.0"/>
      <point x="791.8" y="515.2" type="curve" smooth="yes"/>
      <point x="771.6" y="369.2"/>
      <point x="647.4" y="244.0"/>
    </contour>
    <contour>
      <point x="1087.6" y="603.2" type="line"/>
      <point x="1128.8" y="708.8"/>
      <point x="1233.6" y="793.0"/>
      <point x="1345.8" y="793.0" type="curve" smooth="yes"/>
      <point x="1443.3999999999999" y="793.0"/>
      <point x="1515.6" y="722.2"/>
      <point x="1526.6" y="617.8000000000001" type="curve"/>
    </contour>
  </outline>
</glyph>
<glyph name="caron" format="2">
  <advance width="709.5"/>
  <unicode hex="02C7"/>
  <outline>
    <contour>
      <point x="316.0" y="1166.0" type="line"/>
      <point x="585.2" y="1166.0" type="line"/>
      <point x="718.2" y="1400.0" type="line"/>
      <point x="539.6" y="1400.0" type="line"/>
      <point x="456.8" y="1254.8" type="line"/>
      <point x="418.59999999999997" y="1400.0" type="line"/>
      <point x="248.8" y="1400.0" type="line"/>
    </contour>
  </outline>
</glyph>
<glyph name="breve" format="2">
  <advance width="1144.0"/>
  <unicode hex="02D8"/>
  <outline>
    <contour>
      <point x="675.4" y="1128.0" type="curve" smooth="yes"/>
      <point x="851.2" y="1128.0"/>
      <point x="1012.0" y="1268.1999999999998"/>
      <point x="1038.2" y="1452.8" type="curve"/>
      <point x="874.8" y="1467.2" type="line"/>
      <point x="861.8" y="1373.2"/>
      <point x="767.8" y="1293.0"/>
      <point x="668.6" y="1293.0" type="curve" smooth="yes"/>
      <point x="584.5999999999999" y="1293.0"/>
      <point x="525.8" y="1361.1999999999998"/>
      <point x="539.2" y="1452.8" type="curve"/>
      <point x="375.8" y="1467.2" type="line"/>
      <point x="350.8" y="1285.2"/>
      <point x="486.2" y="1128.0"/>
    </contour>
  </outline>
</glyph>
<glyph name="ogonek" format="2">
  <advance width="1183.0"/>
  <unicode hex="02DB"/>
  <outline>
    <contour>
      <point x="518.5999999999999" y="-434.2" type="curve" smooth="yes"/>
      <point x="623.6" y="-434.2" type="line"/>
      <point x="651.8" y="-236.0" type="line"/>
      <point x="528.0" y="-236.0" type="line" smooth="yes"/>
      <point x="438.59999999999997" y="-236.0"/>
      <point x="368.0" y="-153.79999999999998"/>
      <point x="380.4" y="-66.0" type="curve" smooth="yes"/>
      <point x="398.2" y="62.0" type="line"/>
      <point x="200.0" y="62.0" type="line"/>
      <point x="184.8" y="-48.0" type="line" smooth="yes"/>
      <point x="155.2" y="-257.20000000000005"/>
      <point x="307.6" y="-434.2"/>
    </contour>
  </outline>
</glyph>
<glyph name="gravecomb" format="2">
  <unicode hex="0300"/>
  <outline>
    <contour>
      <point x="452.8" y="1426.0" type="line"/>
      <point x="620.2" y="1138.0" type="line"/>
      <point x="758.2" y="1138.0" type="line"/>
      <point x="718.2" y="1426.0" type="line"/>
    </contour>
  </outline>
</glyph>
<glyph name="acutecomb" format="2">
  <unicode hex="0301"/>
  <outline>
    <contour>
      <point x="568.2" y="1138.0" type="line"/>
      <point x="715.2" y="1138.0" type="line"/>
      <point x="962.8" y="1426.0" type="line"/>
      <point x="688.2" y="1426.0" type="line"/>
    </contour>
  </outline>
</glyph>
<glyph name="circumflexcomb" format="2">
  <unicode hex="0302"/>
  <outline>
    <contour>
      <point x="624.6" y="1400.0" type="line"/>
      <point x="491.2" y="1166.0" type="line"/>
      <point x="670.0" y="1166.0" type="line"/>
      <point x="754.5999999999999" y="1311.2" type="line"/>
      <point x="791.0" y="1166.0" type="line"/>
      <point x="960.8000000000001" y="1166.0" type="line"/>
      <point x="893.8000000000001" y="1400.0" type="line"/>
    </contour>
  </outline>
</glyph>
<glyph name="tildecomb" format="2">
  <unicode hex="0303"/>
  <outline>
    <contour>
      <point x="917.8000000000001" y="1209.0" type="curve" smooth="yes"/>
      <point x="1057.6000000000001" y="1209.0"/>
      <point x="1148.2" y="1329.6"/>
      <point x="1115.6" y="1504.8" type="curve"/>
      <point x="957.0" y="1468.0" type="line"/>
      <point x="965.8" y="1430.8"/>
      <point x="962.0" y="1377.6"/>
      <point x="915.6" y="1377.6" type="curve" smooth="yes"/>
      <point x="887.5999999999999" y="1377.6"/>
      <point x="723.8" y="1520.0"/>
      <point x="619.8000000000001" y="1520.0" type="curve" smooth="yes"/>
      <point x="471.6" y="1520.0"/>
      <point x="390.59999999999997" y="1395.8"/>
      <point x="425.0" y="1229.8" type="curve"/>
      <point x="579.2" y="1257.6" type="line"/>
      <point x="572.4" y="1299.6"/>
      <point x="579.5999999999999" y="1321.8"/>
      <point x="597.0" y="1335.8" type="curve" smooth="yes"/>
      <point x="625.8000000000001" y="1383.0"/>
      <point x="809.0" y="1209.0"/>
    </contour>
  </outline>
</glyph>
<glyph name="dotaccentcomb" format="2">
  <unicode hex="0307"/>
  <outline>
    <contour>
      <point x="643.0" y="1137.2" type="curve" smooth="yes"/>
      <point x="712.2" y="1137.2"/>
      <point x="772.6" y="1188.1999999999998"/>
      <point x="781.8000000000001" y="1258.8" type="curve" smooth="yes"/>
      <point x="793.6" y="1343.6"/>
      <point x="735.2" y="1410.8"/>
      <point x="651.5999999999999" y="1410.8" type="curve" smooth="yes"/>
      <point x="580.2" y="1410.8"/>
      <point x="520.8" y="1358.0"/>
      <point x="510.8" y="1289.2" type="curve" smooth="yes"/>
      <point x="498.8" y="1202.8"/>
      <point x="557.2" y="1137.2"/>
    </contour>
  </outline>
</glyph>
<glyph name="dieresiscomb" format="2">
  <unicode hex="0308"/>
  <outline>
    <contour>
      <point x="643.2" y="1137.2" type="curve" smooth="yes"/>
      <point x="712.6" y="1137.2"/>
      <point x="773.2" y="1188.1999999999998"/>
      <point x="782.2" y="1258.8" type="curve" smooth="yes"/>
      <point x="794.2" y="1343.1999999999998"/>
      <point x="735.6" y="1411.0"/>
      <point x="651.8" y="1411.0" type="curve" smooth="yes"/>
      <point x="580.6" y="1411.0"/>
      <point x="520.8" y="1357.8"/>
      <point x="510.8" y="1289.2" type="curve" smooth="yes"/>
      <point x="498.8" y="1202.8"/>
      <point x="557.6" y="1137.2"/>
    </contour>
    <contour>
      <point x="1059.8" y="1137.2" type="curve" smooth="yes"/>
      <point x="1129.0" y="1137.2"/>
      <point x="1189.6" y="1188.1999999999998"/>
      <point x="1198.8" y="1258.8" type="curve" smooth="yes"/>
      <point x="1210.6" y="1343.1999999999998"/>
      <point x="1152.2" y="1411.0"/>
      <point x="1068.3999999999999" y="1411.0" type="curve" smooth="yes"/>
      <point x="997.2" y="1411.0"/>
      <point x="937.2" y="1357.8"/>
      <point x="927.2" y="1289.2" type="curve" smooth="yes"/>
      <point x="915.4" y="1202.8"/>
      <point x="974.0" y="1137.2"/>
    </contour>
  </outline>
</glyph>
<glyph name="ringcomb" format="2">
  <unicode hex="030A"/>
  <outline>
    <contour>
      <point x="690.6" y="1089.6" type="curve" smooth="yes"/>
      <point x="788.2" y="1089.6"/>
      <point x="878.2" y="1168.8"/>
      <point x="892.6" y="1268.6" type="curve" smooth="yes"/>
      <point x="908.0" y="1380.1999999999998"/>
      <point x="827.8" y="1474.2"/>
      <point x="713.8000000000001" y="1474.2" type="curve" smooth="yes"/>
      <point x="616.2" y="1474.2"/>
      <point x="526.2" y="1394.8"/>
      <point x="512.6" y="1299.0" type="curve" smooth="yes"/>
      <point x="496.4" y="1185.2"/>
      <point x="576.8000000000001" y="1089.6"/>
    </contour>
    <contour>
      <point x="674.0" y="1191.8" type="curve" smooth="yes"/>
      <point x="632.0" y="1191.8"/>
      <point x="604.2" y="1224.6"/>
      <point x="610.4000000000001" y="1268.6" type="curve" smooth="yes"/>
      <point x="618.2" y="1324.6"/>
      <point x="672.4000000000001" y="1371.8"/>
      <point x="729.6" y="1371.8" type="curve" smooth="yes"/>
      <point x="772.4000000000001" y="1371.8"/>
      <point x="800.2" y="1339.0"/>
      <point x="794.8000000000001" y="1299.0" type="curve" smooth="yes"/>
      <point x="786.2" y="1239.0"/>
      <point x="732.0" y="1191.8"/>
    </contour>
  </outline>
</glyph>
<glyph name="cedillacomb" format="2">
  <unicode hex="0327"/>
  <outline>
    <contour>
      <point x="287.0" y="-306.0" type="line"/>
      <point x="406.40000000000003" y="-306.0" type="line" smooth="yes"/>
      <point x="617.4000000000001" y="-306.0"/>
      <point x="802.8" y="-143.6"/>
      <point x="832.4" y="65.8" type="curve" smooth="yes"/>
      <point x="848.6" y="185.2" type="line"/>
      <point x="650.4" y="185.2" type="line"/>
      <point x="635.0" y="76.8" type="line" smooth="yes"/>
      <point x="622.5999999999999" y="-10.999999999999996"/>
      <point x="512.2" y="-107.8"/>
      <point x="422.79999999999995" y="-107.8" type="curve" smooth="yes"/>
      <point x="314.2" y="-107.8" type="line"/>
    </contour>
  </outline>
</glyph>
<glyph name="mu" format="2">
  <advance width="1153.75"/>
  <unicode hex="03BC"/>
  <outline>
    <contour>
      <point x="-51.0" y="-432.0" type="line"/>
      <point x="219.0" y="-432.0" type="line"/>
      <point x="290.8" y="28.8" type="line"/>
      <point x="338.6" y="-4.2"/>
      <point x="399.59999999999997" y="-27.8"/>
      <point x="479.8" y="-27.8" type="curve" smooth="yes"/>
      <point x="584.8000000000001" y="-27.8"/>
      <point x="676.6" y="21.4"/>
      <point x="752.1999999999999" y="100.79999999999998" type="curve"/>
      <point x="732.8" y="0.0" type="line"/>
      <point x="1003.8" y="0.0" type="line"/>
      <point x="1143.8" y="1000.0" type="line"/>
      <point x="873.8" y="1000.0" type="line"/>
      <point x="803.8" y="501.2" type="line" smooth="yes"/>
      <point x="784.0" y="357.0"/>
      <point x="678.8" y="233.60000000000002"/>
      <point x="533.4" y="233.60000000000002" type="curve" smooth="yes"/>
      <point x="400.40000000000003" y="233.60000000000002"/>
      <point x="327.6" y="342.6"/>
      <point x="348.2" y="486.8" type="curve" smooth="yes"/>
      <point x="420.0" y="1000.0" type="line"/>
      <point x="150.0" y="1000.0" type="line"/>
    </contour>
  </outline>
</glyph>
<glyph name="Germandbls" format="2">
  <advance width="1224.0"/>
  <unicode hex="1E9E"/>
  <outline>
    <contour>
      <point x="50.0" y="0.0" type="line"/>
      <point x="320.0" y="0.0" type="line"/>
      <point x="452.8" y="948.2" type="line" smooth="yes"/>
      <point x="469.4" y="1066.6"/>
      <point x="587.6" y="1168.2"/>
      <point x="693.8" y="1168.2" type="curve" smooth="yes"/>
      <point x="780.6" y="1168.2"/>
      <point x="858.0" y="1172.0"/>
      <point x="848.2" y="1099.0" type="curve" smooth="yes"/>
      <point x="841.0" y="1046.2"/>
      <point x="629.2" y="852.2"/>
      <point x="610.8" y="710.0" type="curve" smooth="yes"/>
      <point x="595.8000000000001" y="602.6" type="line"/>
      <point x="683.8000000000001" y="602.6" type="line" smooth="yes"/>
      <point x="795.6" y="602.6"/>
      <point x="932.8" y="564.8000000000001"/>
      <point x="914.4" y="431.8" type="curve" smooth="yes"/>
      <point x="893.1999999999999" y="282.2"/>
      <point x="727.8000000000001" y="229.8"/>
      <point x="616.1999999999999" y="229.8" type="curve" smooth="yes"/>
      <point x="541.8000000000001" y="229.8" type="line"/>
      <point x="565.0" y="0.0" type="line"/>
      <point x="626.8" y="0.0" type="line" smooth="yes"/>
      <point x="854.6" y="0.0"/>
      <point x="1113.6" y="139.2"/>
      <point x="1150.2" y="399.20000000000005" type="curve" smooth="yes"/>
      <point x="1175.2" y="579.0"/>
      <point x="1014.2" y="768.0"/>
      <point x="833.2" y="727.8000000000001" type="curve"/>
      <point x="1015.2" y="911.4"/>
      <point x="1102.2" y="977.0"/>
      <point x="1114.0" y="1063.1999999999998" type="curve" smooth="yes"/>
      <point x="1140.6000000000001" y="1249.8"/>
      <point x="959.2" y="1399.8"/>
      <point x="746.2" y="1399.8" type="curve" smooth="yes"/>
      <point x="469.8" y="1399.8"/>
      <point x="214.8" y="1176.0"/>
      <point x="175.0" y="892.6" type="curve" smooth="yes"/>
    </contour>
  </outline>
</glyph>
<glyph name="endash" format="2">
  <advance width="1240.0"/>
  <unicode hex="2013"/>
  <outline>
    <contour>
      <point x="152.8" y="735.0" type="line"/>
      <point x="115.2" y="465.0" type="line"/>
      <point x="1115.2" y="465.0" type="line"/>
      <point x="1152.8" y="735.0" type="line"/>
    </contour>
  </outline>
</glyph>
<glyph name="emdash" format="2">
  <advance width="2040.0"/>
  <unicode hex="2014"/>
  <outline>
    <contour>
      <point x="152.8" y="735.0" type="line"/>
      <point x="115.2" y="465.0" type="line"/>
      <point x="1915.2" y="465.0" type="line"/>
      <point x="1952.8" y="735.0" type="line"/>
    </contour>
  </outline>
</glyph>
<glyph name="quoteleft" format="2">
  <advance width="432.0"/>
  <unicode hex="2018"/>
  <unicode hex="02BB"/>
  <outline>
    <contour>
      <point x="111.2" y="878.0" type="line"/>
      <point x="383.8" y="878.0" type="line"/>
      <point x="519.0" y="1400.0" type="line"/>
      <point x="336.2" y="1400.0" type="line"/>
    </contour>
  </outline>
</glyph>
<glyph name="quoteright" format="2">
  <advance width="432.0"/>
  <unicode hex="2019"/>
  <unicode hex="2032"/>
  <outline>
    <contour>
      <point x="92.2" y="878.0" type="line"/>
      <point x="274.8" y="878.0" type="line"/>
      <point x="500.8" y="1400.0" type="line"/>
      <point x="228.0" y="1400.0" type="line"/>
    </contour>
  </outline>
</glyph>
<glyph name="dagger" format="2">
  <advance width="876.0"/>
  <unicode hex="2020"/>
  <outline>
    <contour>
      <point x="152.6" y="1017.6" type="line"/>
      <point x="375.6" y="1017.6" type="line"/>
      <point x="311.8" y="565.0" type="line"/>
      <point x="581.8" y="565.0" type="line"/>
      <point x="645.6" y="1017.6" type="line"/>
      <point x="868.6" y="1017.6" type="line"/>
      <point x="906.2" y="1287.6" type="line"/>
      <point x="683.2" y="1287.6" type="line"/>
      <point x="714.0" y="1500.0" type="line"/>
      <point x="444.0" y="1500.0" type="line"/>
      <point x="413.2" y="1287.6" type="line"/>
      <point x="190.2" y="1287.6" type="line"/>
    </contour>
  </outline>
</glyph>
<glyph name="daggerdbl" format="2">
  <advance width="876.0"/>
  <unicode hex="2021"/>
  <outline>
    <contour>
      <point x="110.2" y="717.0" type="line"/>
      <point x="333.2" y="717.0" type="line"/>
      <point x="311.0" y="560.0" type="line"/>
      <point x="581.0" y="560.0" type="line"/>
      <point x="603.2" y="717.0" type="line"/>
      <point x="826.2" y="717.0" type="line"/>
      <point x="863.8" y="985.0" type="line"/>
      <point x="640.8" y="985.0" type="line"/>
      <point x="657.8" y="1105.0" type="line"/>
      <point x="880.8" y="1105.0" type="line"/>
      <point x="918.6" y="1375.0" type="line"/>
      <point x="695.6" y="1375.0" type="line"/>
      <point x="714.0" y="1500.0" type="line"/>
      <point x="444.0" y="1500.0" type="line"/>
      <point x="425.6" y="1375.0" type="line"/>
      <point x="202.6" y="1375.0" type="line"/>
      <point x="164.8" y="1105.0" type="line"/>
      <point x="387.8" y="1105.0" type="line"/>
      <point x="370.8" y="985.0" type="line"/>
      <point x="147.8" y="985.0" type="line"/>
    </contour>
  </outline>
</glyph>
<glyph name="bullet" format="2">
  <advance width="525.0"/>
  <unicode hex="2022"/>
  <outline>
    <contour>
      <point x="266.0" y="417.6" type="curve" smooth="yes"/>
      <point x="358.6" y="417.6"/>
      <point x="443.6" y="490.6"/>
      <point x="457.2" y="585.0" type="curve" smooth="yes"/>
      <point x="471.8" y="693.2"/>
      <point x="395.4" y="782.6"/>
      <point x="286.59999999999997" y="782.6" type="curve" smooth="yes"/>
      <point x="192.6" y="782.6"/>
      <point x="109.6" y="707.8000000000001"/>
      <point x="95.8" y="615.6" type="curve" smooth="yes"/>
      <point x="80.4" y="505.0"/>
      <point x="155.79999999999998" y="417.6"/>
    </contour>
  </outline>
</glyph>
<glyph name="perthousand" format="2">
  <advance width="2246.0"/>
  <unicode hex="2030"/>
  <outline>
    <contour>
      <point x="149.79999999999998" y="0.0" type="line"/>
      <point x="466.6" y="0.0" type="line"/>
      <point x="1471.6" y="1400.0" type="line"/>
      <point x="1153.8" y="1400.0" type="line"/>
    </contour>
    <contour>
      <point x="450.2" y="777.6" type="curve"/>
      <point x="610.2" y="777.6"/>
      <point x="767.4" y="905.2"/>
      <point x="792.0" y="1076.8" type="curve"/>
      <point x="817.5999999999999" y="1259.0"/>
      <point x="688.1999999999999" y="1406.8"/>
      <point x="508.59999999999997" y="1406.8" type="curve"/>
      <point x="346.8" y="1406.8"/>
      <point x="189.4" y="1280.6000000000001"/>
      <point x="165.8" y="1107.2" type="curve"/>
      <point x="139.4" y="923.2"/>
      <point x="270.40000000000003" y="777.6"/>
    </contour>
    <contour>
      <point x="445.8" y="960.0" type="curve"/>
      <point x="379.2" y="960.0"/>
      <point x="334.6" y="1011.0"/>
      <point x="343.8" y="1076.8" type="curve"/>
      <point x="354.6" y="1158.8"/>
      <point x="431.59999999999997" y="1224.2"/>
      <point x="513.6" y="1224.2" type="curve"/>
      <point x="577.8000000000001" y="1224.2"/>
      <point x="623.2" y="1173.2"/>
      <point x="614.0" y="1107.2" type="curve"/>
      <point x="602.2" y="1025.6000000000001"/>
      <point x="525.4" y="960.0"/>
    </contour>
    <contour>
      <point x="1104.8" y="-8.400000000000006" type="curve"/>
      <point x="1270.8" y="-8.400000000000006"/>
      <point x="1424.8" y="126.60000000000001"/>
      <point x="1447.6000000000001" y="291.0" type="curve"/>
      <point x="1472.2" y="466.20000000000005"/>
      <point x="1351.6000000000001" y="622.6"/>
      <point x="1163.2" y="622.6" type="curve"/>
      <point x="1003.1999999999999" y="622.6"/>
      <point x="845.6" y="493.0"/>
      <point x="821.0" y="321.59999999999997" type="curve"/>
      <point x="796.4000000000001" y="148.0"/>
      <point x="920.6" y="-8.400000000000006"/>
    </contour>
    <contour>
      <point x="1099.8" y="174.0" type="curve"/>
      <point x="1035.6" y="174.0"/>
      <point x="989.8" y="226.8"/>
      <point x="999.1999999999999" y="291.0" type="curve"/>
      <point x="1010.8" y="372.8"/>
      <point x="1087.8" y="440.0"/>
      <point x="1167.4" y="440.0" type="curve"/>
      <point x="1233.8" y="440.0"/>
      <point x="1278.6" y="387.2"/>
      <point x="1269.6" y="321.59999999999997" type="curve"/>
      <point x="1258.6" y="241.2"/>
      <point x="1181.6" y="174.0"/>
    </contour>
    <contour>
      <point x="1793.6" y="-8.400000000000006" type="curve"/>
      <point x="1959.6" y="-8.400000000000006"/>
      <point x="2113.6" y="126.60000000000001"/>
      <point x="2136.4" y="291.0" type="curve"/>
      <point x="2161.0" y="466.20000000000005"/>
      <point x="2040.4" y="622.6"/>
      <point x="1852.0" y="622.6" type="curve"/>
      <point x="1691.8" y="622.6"/>
      <point x="1534.4" y="493.0"/>
      <point x="1509.8" y="321.59999999999997" type="curve"/>
      <point x="1485.2" y="148.0"/>
      <point x="1609.3999999999999" y="-8.400000000000006"/>
    </contour>
    <contour>
      <point x="1788.6" y="174.0" type="curve"/>
      <point x="1724.3999999999999" y="174.0"/>
      <point x="1678.6" y="226.8"/>
      <point x="1687.8" y="291.0" type="curve"/>
      <point x="1699.6" y="372.8"/>
      <point x="1776.6" y="440.0"/>
      <point x="1856.2" y="440.0" type="curve"/>
      <point x="1922.6" y="440.0"/>
      <point x="1967.3999999999999" y="387.2"/>
      <point x="1958.1999999999998" y="321.59999999999997" type="curve"/>
      <point x="1947.3999999999999" y="241.2"/>
      <point x="1870.3999999999999" y="174.0"/>
    </contour>
  </outline>
</glyph>
<glyph name="primeReversed" format="2">
  <advance width="572.0"/>
  <unicode hex="2035"/>
  <outline>
    <contour>
      <point x="326.8" y="878.0" type="line"/>
      <point x="504.2" y="878.0" type="line"/>
      <point x="516.0" y="1400.0" type="line"/>
      <point x="248.8" y="1400.0" type="line"/>
    </contour>
  </outline>
</glyph>
<glyph name="guilsinglleft" format="2">
  <advance width="792.5"/>
  <unicode hex="2039"/>
  <outline>
    <contour>
      <point x="389.6" y="261.0" type="line"/>
      <point x="655.8000000000001" y="261.0" type="line"/>
      <point x="408.2" y="601.0" type="line"/>
      <point x="757.2" y="939.0" type="line"/>
      <point x="479.2" y="939.0" type="line"/>
      <point x="134.0" y="601.0" type="line"/>
    </contour>
  </outline>
</glyph>
<glyph name="guilsinglright" format="2">
  <advance width="792.5"/>
  <unicode hex="203A"/>
  <outline>
    <contour>
      <point x="63.4" y="261.0" type="line"/>
      <point x="342.20000000000005" y="261.0" type="line"/>
      <point x="686.6" y="601.0" type="line"/>
      <point x="431.8" y="939.0" type="line"/>
      <point x="164.6" y="939.0" type="line"/>
      <point x="412.2" y="601.0" type="line"/>
    </contour>
  </outline>
</glyph>
<glyph name="fraction" format="2">
  <advance width="1028.5"/>
  <unicode hex="2044"/>
  <unicode hex="2215"/>
  <outline>
    <contour>
      <point x="-72.8" y="0.0" type="line"/>
      <point x="153.20000000000002" y="0.0" type="line"/>
      <point x="1158.1999999999998" y="1400.0" type="line"/>
      <point x="931.4" y="1400.0" type="line"/>
    </contour>
  </outline>
</glyph>
<glyph name="zerosuperior" format="2">
  <advance width="648.0"/>
  <unicode hex="2070"/>
  <outline>
    <contour>
      <point x="381.2" y="798.0" type="curve"/>
      <point x="512.2" y="798.0"/>
      <point x="637.2" y="934.5999999999999"/>
      <point x="663.2" y="1118.6" type="curve"/>
      <point x="691.2" y="1316.8"/>
      <point x="591.8" y="1468.0"/>
      <point x="444.8" y="1468.0" type="curve"/>
      <point x="313.8" y="1468.0"/>
      <point x="188.8" y="1331.2"/>
      <point x="162.8" y="1149.0" type="curve"/>
      <point x="134.8" y="949.0"/>
      <point x="234.2" y="798.0"/>
    </contour>
    <contour>
      <point x="371.2" y="943.6" type="curve"/>
      <point x="317.0" y="943.6"/>
      <point x="304.2" y="1040.6"/>
      <point x="315.2" y="1118.6" type="curve"/>
      <point x="327.2" y="1204.0"/>
      <point x="380.6" y="1322.6"/>
      <point x="454.8" y="1322.6" type="curve"/>
      <point x="506.40000000000003" y="1322.6"/>
      <point x="521.8" y="1223.8"/>
      <point x="510.8" y="1149.0" type="curve"/>
      <point x="499.8" y="1069.2"/>
      <point x="440.2" y="943.6"/>
    </contour>
  </outline>
</glyph>
<glyph name="foursuperior" format="2">
  <advance width="693.25"/>
  <unicode hex="2074"/>
  <outline>
    <contour>
      <point x="382.0" y="818.0" type="line"/>
      <point x="538.0" y="818.0" type="line"/>
      <point x="550.8" y="910.6" type="line"/>
      <point x="607.2" y="910.6" type="line"/>
      <point x="628.6" y="1066.6" type="line"/>
      <point x="572.2" y="1066.6" type="line"/>
      <point x="626.0" y="1449.0" type="line"/>
      <point x="449.2" y="1449.0" type="line"/>
      <point x="177.2" y="1098.2" type="line"/>
      <point x="153.8" y="910.6" type="line"/>
      <point x="394.8" y="910.6" type="line"/>
    </contour>
    <contour>
      <point x="331.2" y="1066.6" type="line"/>
      <point x="457.2" y="1231.4" type="line"/>
      <point x="431.2" y="1066.6" type="line"/>
    </contour>
  </outline>
</glyph>
<glyph name="fivesuperior" format="2">
  <advance width="701.5"/>
  <unicode hex="2075"/>
  <outline>
    <contour>
      <point x="377.2" y="798.0" type="curve" smooth="yes"/>
      <point x="499.8" y="798.0"/>
      <point x="611.6" y="883.8000000000001"/>
      <point x="628.6" y="1006.5999999999999" type="curve" smooth="yes"/>
      <point x="649.8000000000001" y="1155.6"/>
      <point x="553.2" y="1260.0"/>
      <point x="389.4" y="1256.6" type="curve"/>
      <point x="407.8" y="1314.0" type="line"/>
      <point x="606.0" y="1314.0" type="line"/>
      <point x="624.8" y="1449.0" type="line"/>
      <point x="282.8" y="1449.0" type="line"/>
      <point x="206.4" y="1089.2" type="line"/>
      <point x="275.6" y="1099.6"/>
      <point x="374.2" y="1105.8"/>
      <point x="419.2" y="1104.1999999999998" type="curve" smooth="yes"/>
      <point x="456.4" y="1098.8"/>
      <point x="481.8" y="1072.6000000000001"/>
      <point x="477.0" y="1037.2" type="curve" smooth="yes"/>
      <point x="469.40000000000003" y="985.8000000000001"/>
      <point x="419.4" y="943.6"/>
      <point x="367.2" y="943.6" type="curve" smooth="yes"/>
      <point x="329.8" y="943.6"/>
      <point x="306.2" y="971.2"/>
      <point x="311.8" y="1014.5999999999999" type="curve"/>
      <point x="158.6" y="1029.2" type="line"/>
      <point x="139.8" y="898.4000000000001"/>
      <point x="240.0" y="798.0"/>
    </contour>
  </outline>
</glyph>
<glyph name="sixsuperior" format="2">
  <advance width="706.0"/>
  <unicode hex="2076"/>
  <outline>
    <contour>
      <point x="386.2" y="798.0" type="curve" smooth="yes"/>
      <point x="504.59999999999997" y="798.0"/>
      <point x="615.0" y="879.1999999999999"/>
      <point x="632.2" y="1002.0" type="curve" smooth="yes"/>
      <point x="648.8" y="1119.6"/>
      <point x="585.6" y="1213.0"/>
      <point x="467.2" y="1242.4" type="curve"/>
      <point x="623.8" y="1446.0" type="line"/>
      <point x="437.2" y="1452.2" type="line"/>
      <point x="199.6" y="1121.8"/>
      <point x="180.0" y="1099.2"/>
      <point x="170.8" y="1034.2" type="curve" smooth="yes"/>
      <point x="152.0" y="895.6"/>
      <point x="247.39999999999998" y="798.0"/>
    </contour>
    <contour>
      <point x="376.2" y="943.6" type="curve" smooth="yes"/>
      <point x="351.2" y="943.6"/>
      <point x="322.6" y="952.5999999999999"/>
      <point x="319.6" y="989.5999999999999" type="curve" smooth="yes"/>
      <point x="320.40000000000003" y="1037.8"/>
      <point x="364.2" y="1094.2"/>
      <point x="428.0" y="1094.2" type="curve" smooth="yes"/>
      <point x="456.8" y="1094.2"/>
      <point x="479.8" y="1076.2"/>
      <point x="483.4" y="1046.6000000000001" type="curve" smooth="yes"/>
      <point x="482.8" y="992.4000000000001"/>
      <point x="430.4" y="943.6"/>
    </contour>
  </outline>
</glyph>
<glyph name="sevensuperior" format="2">
  <advance width="676.75"/>
  <unicode hex="2077"/>
  <outline>
    <contour>
      <point x="195.79999999999998" y="818.0" type="line"/>
      <point x="379.6" y="818.0" type="line"/>
      <point x="719.1999999999999" y="1294.8" type="line"/>
      <point x="737.8" y="1446.4" type="line"/>
      <point x="253.0" y="1446.4" type="line"/>
      <point x="230.8" y="1290.4" type="line"/>
      <point x="532.6" y="1290.4" type="line"/>
    </contour>
  </outline>
</glyph>
<glyph name="eightsuperior" format="2">
  <advance width="630.625"/>
  <unicode hex="2078"/>
  <outline>
    <contour>
      <point x="371.59999999999997" y="798.0" type="curve" smooth="yes"/>
      <point x="486.8" y="798.0"/>
      <point x="587.6" y="873.8000000000001"/>
      <point x="603.6" y="987.4" type="curve" smooth="yes"/>
      <point x="612.6" y="1052.2"/>
      <point x="594.2" y="1104.3999999999999"/>
      <point x="569.0" y="1137.6000000000001" type="curve"/>
      <point x="605.8000000000001" y="1176.2"/>
      <point x="623.2" y="1220.1999999999998"/>
      <point x="628.6" y="1257.0" type="curve" smooth="yes"/>
      <point x="645.4" y="1380.1999999999998"/>
      <point x="556.5999999999999" y="1469.8"/>
      <point x="435.8" y="1469.8" type="curve" smooth="yes"/>
      <point x="329.8" y="1469.8"/>
      <point x="234.6" y="1394.8"/>
      <point x="218.79999999999998" y="1287.6000000000001" type="curve" smooth="yes"/>
      <point x="211.79999999999998" y="1234.8"/>
      <point x="226.0" y="1188.6000000000001"/>
      <point x="243.8" y="1160.8" type="curve"/>
      <point x="198.6" y="1116.8"/>
      <point x="175.8" y="1066.6000000000001"/>
      <point x="168.6" y="1017.8000000000001" type="curve" smooth="yes"/>
      <point x="150.8" y="888.4000000000001"/>
      <point x="242.39999999999998" y="798.0"/>
    </contour>
    <contour>
      <point x="361.59999999999997" y="941.8" type="curve" smooth="yes"/>
      <point x="334.59999999999997" y="941.8"/>
      <point x="317.0" y="961.2"/>
      <point x="320.8" y="987.4" type="curve" smooth="yes"/>
      <point x="326.6" y="1031.2"/>
      <point x="367.4" y="1066.6"/>
      <point x="408.59999999999997" y="1066.6" type="curve" smooth="yes"/>
      <point x="437.59999999999997" y="1066.6"/>
      <point x="455.8" y="1045.6000000000001"/>
      <point x="451.20000000000005" y="1017.8000000000001" type="curve" smooth="yes"/>
      <point x="445.6" y="975.8000000000001"/>
      <point x="404.79999999999995" y="941.8"/>
    </contour>
    <contour>
      <point x="401.2" y="1222.6" type="curve" smooth="yes"/>
      <point x="381.6" y="1222.6"/>
      <point x="368.6" y="1238.1999999999998"/>
      <point x="371.20000000000005" y="1257.0" type="curve" smooth="yes"/>
      <point x="375.8" y="1293.8"/>
      <point x="410.20000000000005" y="1322.6"/>
      <point x="445.0" y="1322.6" type="curve" smooth="yes"/>
      <point x="465.8" y="1322.6"/>
      <point x="480.0" y="1308.4"/>
      <point x="476.2" y="1287.6000000000001" type="curve" smooth="yes"/>
      <point x="471.8" y="1252.8"/>
      <point x="437.2" y="1222.6"/>
    </contour>
  </outline>
</glyph>
<glyph name="ninesuperior" format="2">
  <advance width="658.125"/>
  <unicode hex="2079"/>
  <outline>
    <contour>
      <point x="186.39999999999998" y="818.0" type="line"/>
      <point x="371.8" y="818.0" type="line"/>
      <point x="599.6" y="1124.3999999999999" type="line"/>
      <point x="620.5999999999999" y="1158.0"/>
      <point x="630.8" y="1191.6"/>
      <point x="635.6" y="1217.3999999999999" type="curve" smooth="yes"/>
      <point x="665.4" y="1352.3999999999999"/>
      <point x="573.2" y="1468.0"/>
      <point x="425.8" y="1468.0" type="curve" smooth="yes"/>
      <point x="310.20000000000005" y="1468.0"/>
      <point x="206.20000000000002" y="1389.2"/>
      <point x="184.6" y="1276.6000000000001" type="curve" smooth="yes"/>
      <point x="155.6" y="1158.2"/>
      <point x="223.0" y="1040.2"/>
      <point x="342.4" y="1023.8" type="curve"/>
    </contour>
    <contour>
      <point x="384.2" y="1170.0" type="curve" smooth="yes"/>
      <point x="362.2" y="1170.0"/>
      <point x="327.2" y="1181.3999999999999"/>
      <point x="330.2" y="1224.8" type="curve" smooth="yes"/>
      <point x="334.40000000000003" y="1273.0"/>
      <point x="377.40000000000003" y="1322.6"/>
      <point x="435.8" y="1322.6" type="curve" smooth="yes"/>
      <point x="463.2" y="1322.6"/>
      <point x="491.2" y="1298.8"/>
      <point x="490.0" y="1270.0" type="curve" smooth="yes"/>
      <point x="485.8" y="1217.2"/>
      <point x="435.8" y="1170.0"/>
    </contour>
  </outline>
</glyph>
<glyph name="zeroinferior" format="2">
  <advance width="648.0"/>
  <unicode hex="2080"/>
  <outline>
    <contour>
      <point x="264.4" y="-31.0" type="curve"/>
      <point x="396.2" y="-31.0"/>
      <point x="521.8" y="115.8"/>
      <point x="548.0" y="299.8" type="curve"/>
      <point x="575.8" y="497.2"/>
      <point x="477.4" y="658.8"/>
      <point x="331.2" y="658.8" type="curve"/>
      <point x="199.4" y="658.8"/>
      <point x="73.6" y="511.59999999999997"/>
      <point x="48.6" y="330.2" type="curve"/>
      <point x="19.6" y="130.2"/>
      <point x="118.2" y="-31.0"/>
    </contour>
    <contour>
      <point x="256.0" y="125.0" type="curve"/>
      <point x="202.8" y="125.0"/>
      <point x="188.8" y="221.79999999999998"/>
      <point x="200.0" y="299.8" type="curve"/>
      <point x="211.8" y="384.40000000000003"/>
      <point x="266.2" y="502.8"/>
      <point x="339.6" y="502.8" type="curve"/>
      <point x="392.0" y="502.8"/>
      <point x="406.8" y="404.2"/>
      <point x="396.6" y="330.2" type="curve"/>
      <point x="384.6" y="249.6"/>
      <point x="326.0" y="125.0"/>
    </contour>
  </outline>
</glyph>
<glyph name="oneinferior" format="2">
  <advance width="457.875"/>
  <unicode hex="2081"/>
  <outline>
    <contour>
      <point x="87.80000000000001" y="0.0" type="line"/>
      <point x="243.8" y="0.0" type="line"/>
      <point x="331.8" y="631.0" type="line"/>
      <point x="135.39999999999998" y="631.0" type="line"/>
      <point x="91.8" y="475.0" type="line"/>
      <point x="154.60000000000002" y="475.0" type="line"/>
    </contour>
  </outline>
</glyph>
<glyph name="twoinferior" format="2">
  <advance width="719.875"/>
  <unicode hex="2082"/>
  <outline>
    <contour>
      <point x="26.0" y="0.0" type="line"/>
      <point x="495.4" y="0.0" type="line"/>
      <point x="516.8" y="156.0" type="line"/>
      <point x="336.6" y="150.6" type="line"/>
      <point x="439.2" y="228.60000000000002"/>
      <point x="549.1999999999999" y="308.20000000000005"/>
      <point x="562.5999999999999" y="406.20000000000005" type="curve"/>
      <point x="582.1999999999999" y="546.2"/>
      <point x="484.0" y="660.6"/>
      <point x="344.79999999999995" y="660.6" type="curve"/>
      <point x="218.79999999999998" y="660.6"/>
      <point x="104.2" y="560.8000000000001"/>
      <point x="86.4" y="428.8" type="curve"/>
      <point x="239.6" y="414.20000000000005" type="line"/>
      <point x="246.2" y="461.8"/>
      <point x="298.6" y="504.6"/>
      <point x="353.2" y="504.6" type="curve"/>
      <point x="391.8" y="504.6"/>
      <point x="416.8" y="476.4"/>
      <point x="407.6" y="435.8" type="curve"/>
      <point x="325.0" y="294.59999999999997"/>
      <point x="163.0" y="219.6"/>
      <point x="39.4" y="141.6" type="curve"/>
    </contour>
  </outline>
</glyph>
<glyph name="threeinferior" format="2">
  <advance width="582.0"/>
  <unicode hex="2083"/>
  <outline>
    <contour>
      <point x="232.4" y="-31.0" type="curve" smooth="yes"/>
      <point x="343.6" y="-31.0"/>
      <point x="447.8" y="59.8"/>
      <point x="463.6" y="172.2" type="curve" smooth="yes"/>
      <point x="473.0" y="234.2"/>
      <point x="456.59999999999997" y="287.20000000000005"/>
      <point x="426.4" y="320.8" type="curve"/>
      <point x="463.2" y="360.2"/>
      <point x="478.8" y="401.8"/>
      <point x="484.2" y="440.20000000000005" type="curve" smooth="yes"/>
      <point x="501.8" y="561.4"/>
      <point x="415.59999999999997" y="658.8"/>
      <point x="294.2" y="658.8" type="curve" smooth="yes"/>
      <point x="188.20000000000002" y="658.8"/>
      <point x="93.2" y="575.8000000000001"/>
      <point x="77.2" y="462.8" type="curve"/>
      <point x="230.6" y="448.20000000000005" type="line"/>
      <point x="234.2" y="474.2"/>
      <point x="269.59999999999997" y="502.8"/>
      <point x="302.6" y="502.8" type="curve" smooth="yes"/>
      <point x="322.2" y="502.8"/>
      <point x="335.6" y="488.59999999999997"/>
      <point x="332.8" y="470.8" type="curve" smooth="yes"/>
      <point x="327.0" y="428.4"/>
      <point x="290.59999999999997" y="378.6"/>
      <point x="212.8" y="378.6" type="curve"/>
      <point x="214.6" y="276.8" type="line"/>
      <point x="291.2" y="276.8"/>
      <point x="317.0" y="237.79999999999998"/>
      <point x="312.2" y="202.79999999999998" type="curve" smooth="yes"/>
      <point x="306.6" y="158.79999999999998"/>
      <point x="266.2" y="125.0"/>
      <point x="224.0" y="125.0" type="curve" smooth="yes"/>
      <point x="196.0" y="125.0"/>
      <point x="177.8" y="144.4"/>
      <point x="183.4" y="180.2" type="curve"/>
      <point x="29.2" y="194.79999999999998" type="line"/>
      <point x="12.4" y="74.2"/>
      <point x="104.6" y="-31.0"/>
    </contour>
  </outline>
</glyph>
<glyph name="fourinferior" format="2">
  <advance width="693.25"/>
  <unicode hex="2084"/>
  <outline>
    <contour>
      <point x="267.0" y="0.0" type="line"/>
      <point x="423.0" y="0.0" type="line"/>
      <point x="435.8" y="92.6" type="line"/>
      <point x="492.20000000000005" y="92.6" type="line"/>
      <point x="513.6" y="248.6" type="line"/>
      <point x="457.2" y="248.6" type="line"/>
      <point x="511.0" y="631.0" type="line"/>
      <point x="334.2" y="631.0" type="line"/>
      <point x="62.2" y="280.2" type="line"/>
      <point x="38.8" y="92.6" type="line"/>
      <point x="279.8" y="92.6" type="line"/>
    </contour>
    <contour>
      <point x="216.2" y="248.6" type="line"/>
      <point x="342.2" y="413.4" type="line"/>
      <point x="316.2" y="248.6" type="line"/>
    </contour>
  </outline>
</glyph>
<glyph name="fiveinferior" format="2">
  <advance width="701.5"/>
  <unicode hex="2085"/>
  <outline>
    <contour>
      <point x="260.2" y="-31.0" type="curve"/>
      <point x="383.8" y="-31.0"/>
      <point x="496.20000000000005" y="64.39999999999999"/>
      <point x="513.2" y="187.2" type="curve"/>
      <point x="532.8000000000001" y="328.40000000000003"/>
      <point x="459.2" y="438.0"/>
      <point x="307.4" y="438.0" type="curve"/>
      <point x="281.59999999999997" y="437.2" type="line"/>
      <point x="290.8" y="492.6" type="line"/>
      <point x="490.8" y="492.6" type="line"/>
      <point x="509.6" y="629.2" type="line"/>
      <point x="167.60000000000002" y="629.2" type="line"/>
      <point x="83.0" y="277.8" type="line"/>
      <point x="296.8" y="282.0" type="line"/>
      <point x="342.0" y="282.0"/>
      <point x="366.6" y="254.0"/>
      <point x="361.8" y="217.79999999999998" type="curve"/>
      <point x="355.0" y="166.2"/>
      <point x="305.2" y="125.0"/>
      <point x="251.8" y="125.0" type="curve"/>
      <point x="215.60000000000002" y="125.0"/>
      <point x="190.8" y="151.8"/>
      <point x="197.6" y="195.2" type="curve"/>
      <point x="43.4" y="209.79999999999998" type="line"/>
      <point x="24.6" y="78.8"/>
      <point x="123.80000000000001" y="-31.0"/>
    </contour>
  </outline>
</glyph>
<glyph name="sixinferior" format="2">
  <advance width="682.0"/>
  <unicode hex="2086"/>
  <outline>
    <contour>
      <point x="269.4" y="-31.0" type="curve" smooth="yes"/>
      <point x="388.59999999999997" y="-31.0"/>
      <point x="499.8" y="60.599999999999994"/>
      <point x="517.2" y="182.60000000000002" type="curve" smooth="yes"/>
      <point x="533.6" y="301.0"/>
      <point x="470.4" y="394.59999999999997"/>
      <point x="351.8" y="422.8" type="curve"/>
      <point x="508.59999999999997" y="627.8" type="line"/>
      <point x="322.2" y="634.0" type="line"/>
      <point x="84.6" y="303.4"/>
      <point x="64.8" y="280.59999999999997"/>
      <point x="55.6" y="215.79999999999998" type="curve" smooth="yes"/>
      <point x="36.8" y="76.8"/>
      <point x="131.2" y="-31.0"/>
    </contour>
    <contour>
      <point x="261.0" y="125.0" type="curve" smooth="yes"/>
      <point x="237.0" y="125.0"/>
      <point x="207.4" y="133.20000000000002"/>
      <point x="205.4" y="170.0" type="curve" smooth="yes"/>
      <point x="207.0" y="218.2"/>
      <point x="249.0" y="274.8"/>
      <point x="312.8" y="274.8" type="curve" smooth="yes"/>
      <point x="341.8" y="274.8"/>
      <point x="364.59999999999997" y="257.6"/>
      <point x="368.2" y="227.20000000000002" type="curve" smooth="yes"/>
      <point x="367.59999999999997" y="173.0"/>
      <point x="316.2" y="125.0"/>
    </contour>
  </outline>
</glyph>
<glyph name="seveninferior" format="2">
  <advance width="676.75"/>
  <unicode hex="2087"/>
  <outline>
    <contour>
      <point x="77.8" y="0.0" type="line"/>
      <point x="261.8" y="0.0" type="line"/>
      <point x="604.1999999999999" y="479.4" type="line"/>
      <point x="622.8" y="631.0" type="line"/>
      <point x="138.0" y="631.0" type="line"/>
      <point x="116.6" y="475.0" type="line"/>
      <point x="418.6" y="475.0" type="line"/>
    </contour>
  </outline>
</glyph>
<glyph name="eightinferior" format="2">
  <advance width="630.625"/>
  <unicode hex="2088"/>
  <outline>
    <contour>
      <point x="254.6" y="-31.0" type="curve" smooth="yes"/>
      <point x="370.6" y="-31.0"/>
      <point x="472.40000000000003" y="55.4"/>
      <point x="488.20000000000005" y="167.79999999999998" type="curve" smooth="yes"/>
      <point x="497.40000000000003" y="232.8"/>
      <point x="478.8" y="286.8"/>
      <point x="453.8" y="318.2" type="curve"/>
      <point x="490.59999999999997" y="357.6"/>
      <point x="508.2" y="400.8"/>
      <point x="513.6" y="437.6" type="curve" smooth="yes"/>
      <point x="531.0" y="561.8"/>
      <point x="442.2" y="659.0"/>
      <point x="321.59999999999997" y="659.0" type="curve" smooth="yes"/>
      <point x="215.6" y="659.0"/>
      <point x="119.6" y="576.2"/>
      <point x="103.8" y="468.2" type="curve" smooth="yes"/>
      <point x="96.6" y="415.2"/>
      <point x="110.8" y="370.0"/>
      <point x="128.60000000000002" y="341.6" type="curve"/>
      <point x="84.4" y="298.4"/>
      <point x="60.6" y="247.2"/>
      <point x="53.2" y="198.39999999999998" type="curve" smooth="yes"/>
      <point x="35.6" y="69.8"/>
      <point x="126.19999999999999" y="-31.0"/>
    </contour>
    <contour>
      <point x="246.2" y="122.4" type="curve" smooth="yes"/>
      <point x="219.6" y="122.4"/>
      <point x="201.8" y="141.8"/>
      <point x="205.6" y="167.79999999999998" type="curve" smooth="yes"/>
      <point x="211.2" y="211.8"/>
      <point x="252.2" y="247.2"/>
      <point x="293.4" y="247.2" type="curve" smooth="yes"/>
      <point x="322.2" y="247.2"/>
      <point x="340.6" y="226.2"/>
      <point x="335.8" y="198.39999999999998" type="curve" smooth="yes"/>
      <point x="330.20000000000005" y="156.2"/>
      <point x="289.59999999999997" y="122.4"/>
    </contour>
    <contour>
      <point x="285.8" y="403.2" type="curve" smooth="yes"/>
      <point x="266.40000000000003" y="403.2"/>
      <point x="253.40000000000003" y="419.8"/>
      <point x="256.20000000000005" y="437.6" type="curve" smooth="yes"/>
      <point x="260.8" y="474.40000000000003"/>
      <point x="295.8" y="503.0"/>
      <point x="329.8" y="503.0" type="curve" smooth="yes"/>
      <point x="351.59999999999997" y="503.0"/>
      <point x="364.8" y="488.8"/>
      <point x="361.2" y="468.2" type="curve" smooth="yes"/>
      <point x="356.6" y="434.2"/>
      <point x="322.0" y="403.2"/>
    </contour>
  </outline>
</glyph>
<glyph name="nineinferior" format="2">
  <advance width="658.25"/>
  <unicode hex="2089"/>
  <outline>
    <contour>
      <point x="71.39999999999999" y="0.0" type="line"/>
      <point x="256.8" y="0.0" type="line"/>
      <point x="485.59999999999997" y="307.8" type="line"/>
      <point x="594.2" y="465.20000000000005"/>
      <point x="496.8" y="660.6"/>
      <point x="312.59999999999997" y="660.6" type="curve" smooth="yes"/>
      <point x="196.2" y="660.6"/>
      <point x="91.4" y="572.2"/>
      <point x="70.6" y="459.59999999999997" type="curve" smooth="yes"/>
      <point x="40.6" y="341.2"/>
      <point x="107.99999999999999" y="222.2"/>
      <point x="227.39999999999998" y="205.8" type="curve"/>
    </contour>
    <contour>
      <point x="269.2" y="353.0" type="curve" smooth="yes"/>
      <point x="248.2" y="353.0"/>
      <point x="212.20000000000002" y="363.40000000000003"/>
      <point x="215.20000000000002" y="407.0" type="curve" smooth="yes"/>
      <point x="219.4" y="455.0"/>
      <point x="263.20000000000005" y="504.6"/>
      <point x="320.8" y="504.6" type="curve" smooth="yes"/>
      <point x="349.0" y="504.6"/>
      <point x="376.2" y="480.8"/>
      <point x="375.0" y="452.0" type="curve" smooth="yes"/>
      <point x="370.8" y="399.4"/>
      <point x="321.6" y="353.0"/>
    </contour>
  </outline>
</glyph>
<glyph name="euro" format="2">
  <advance width="1109.25"/>
  <unicode hex="20AC"/>
  <outline>
    <contour>
      <point x="964.4000000000001" y="-16.6" type="curve"/>
      <point x="988.8000000000001" y="265.6" type="line"/>
      <point x="783.6" y="208.2"/>
      <point x="610.2" y="288.20000000000005"/>
      <point x="541.2" y="468.6" type="curve"/>
      <point x="799.2" y="475.0" type="line"/>
      <point x="824.8" y="657.6" type="line"/>
      <point x="515.6" y="657.6" type="line"/>
      <point x="525.2" y="739.0" type="line"/>
      <point x="836.2" y="739.0" type="line"/>
      <point x="861.8" y="921.6" type="line"/>
      <point x="609.8000000000001" y="915.2" type="line"/>
      <point x="723.2" y="1091.3999999999999"/>
      <point x="929.5999999999999" y="1198.1999999999998"/>
      <point x="1126.8" y="1139.0" type="curve"/>
      <point x="1150.2" y="1415.2" type="line"/>
      <point x="803.8" y="1473.2"/>
      <point x="461.8" y="1269.8"/>
      <point x="312.6" y="928.8000000000001" type="curve"/>
      <point x="138.8" y="921.6" type="line"/>
      <point x="113.2" y="739.0" type="line"/>
      <point x="255.0" y="739.0" type="line"/>
      <point x="243.60000000000002" y="657.6" type="line"/>
      <point x="101.8" y="657.6" type="line"/>
      <point x="76.2" y="475.0" type="line"/>
      <point x="254.40000000000003" y="482.2" type="line"/>
      <point x="312.2" y="147.2"/>
      <point x="598.8" y="-74.8"/>
    </contour>
  </outline>
</glyph>
<glyph name="leftArrow" format="2">
  <advance width="1415.5"/>
  <unicode hex="2190"/>
  <outline>
    <contour>
      <point x="586.2" y="208.8" type="line"/>
      <point x="797.6" y="399.6" type="line"/>
      <point x="609.8000000000001" y="615.0" type="line"/>
      <point x="1351.6" y="615.0" type="line"/>
      <point x="1389.3999999999999" y="885.0" type="line"/>
      <point x="653.2" y="885.0" type="line"/>
      <point x="896.6" y="1100.6" type="line"/>
      <point x="727.2" y="1291.2" type="line"/>
      <point x="115.0" y="750.0" type="line"/>
    </contour>
  </outline>
</glyph>
<glyph name="upArrow" format="2">
  <advance width="1242.75"/>
  <unicode hex="2191"/>
  <outline>
    <contour>
      <point x="433.20000000000005" y="121.2" type="line"/>
      <point x="703.2" y="121.2" type="line"/>
      <point x="809.6" y="860.6" type="line"/>
      <point x="998.2" y="646.6" type="line"/>
      <point x="1210.6" y="837.6" type="line"/>
      <point x="739.4" y="1378.8" type="line"/>
      <point x="127.8" y="837.6" type="line"/>
      <point x="297.2" y="646.6" type="line"/>
      <point x="539.6" y="860.6" type="line"/>
    </contour>
  </outline>
</glyph>
<glyph name="rightArrow" format="2">
  <advance width="1417.25"/>
  <unicode hex="2192"/>
  <outline>
    <contour>
      <point x="759.8" y="208.8" type="line"/>
      <point x="1372.2" y="750.0" type="line"/>
      <point x="901.8" y="1291.2" type="line"/>
      <point x="689.6" y="1100.6" type="line"/>
      <point x="875.4" y="885.0" type="line"/>
      <point x="133.8" y="885.0" type="line"/>
      <point x="96.2" y="615.0" type="line"/>
      <point x="832.1999999999999" y="615.0" type="line"/>
      <point x="590.6" y="399.6" type="line"/>
    </contour>
  </outline>
</glyph>
<glyph name="downArrow" format="2">
  <advance width="1241.0"/>
  <unicode hex="2193"/>
  <outline>
    <contour>
      <point x="571.6" y="121.6" type="line"/>
      <point x="1184.2" y="662.8" type="line"/>
      <point x="1014.2" y="853.6" type="line"/>
      <point x="771.6" y="639.8" type="line"/>
      <point x="877.8000000000001" y="1378.6" type="line"/>
      <point x="607.8000000000001" y="1378.6" type="line"/>
      <point x="501.6" y="639.8" type="line"/>
      <point x="314.6" y="853.6" type="line"/>
      <point x="103.2" y="662.8" type="line"/>
    </contour>
  </outline>
</glyph>
<glyph name="leftRightArrow" format="2">
  <advance width="1882.25"/>
  <unicode hex="2194"/>
  <outline>
    <contour>
      <point x="586.2" y="208.8" type="line"/>
      <point x="797.6" y="399.6" type="line"/>
      <point x="609.8000000000001" y="615.0" type="line"/>
      <point x="1297.2" y="615.0" type="line"/>
      <point x="1055.6" y="399.6" type="line"/>
      <point x="1224.8" y="208.8" type="line"/>
      <point x="1837.2" y="750.0" type="line"/>
      <point x="1366.8" y="1291.2" type="line"/>
      <point x="1154.6" y="1100.6" type="line"/>
      <point x="1340.3999999999999" y="885.0" type="line"/>
      <point x="653.2" y="885.0" type="line"/>
      <point x="896.6" y="1100.6" type="line"/>
      <point x="727.2" y="1291.2" type="line"/>
      <point x="115.0" y="750.0" type="line"/>
    </contour>
  </outline>
</glyph>
<glyph name="upDownArrow" format="2">
  <advance width="1242.75"/>
  <unicode hex="2195"/>
  <outline>
    <contour>
      <point x="540.8000000000001" y="-111.2" type="line"/>
      <point x="1152.6" y="430.2" type="line"/>
      <point x="983.1999999999999" y="621.2" type="line"/>
      <point x="740.6" y="407.0" type="line"/>
      <point x="841.8000000000001" y="1093.0" type="line"/>
      <point x="1030.3999999999999" y="879.0" type="line"/>
      <point x="1243.0" y="1070.0" type="line"/>
      <point x="771.8000000000001" y="1611.2" type="line"/>
      <point x="160.2" y="1070.0" type="line"/>
      <point x="329.40000000000003" y="879.0" type="line"/>
      <point x="571.8000000000001" y="1093.0" type="line"/>
      <point x="470.59999999999997" y="407.0" type="line"/>
      <point x="282.2" y="621.2" type="line"/>
      <point x="69.8" y="430.2" type="line"/>
    </contour>
  </outline>
</glyph>
<glyph name="northWestArrow" format="2">
  <advance width="1144.0"/>
  <unicode hex="2196"/>
  <outline>
    <contour>
      <point x="844.8000000000001" y="258.2" type="line"/>
      <point x="1057.2" y="448.8" type="line"/>
      <point x="604.2" y="971.8" type="line"/>
      <point x="911.0" y="971.8" type="line"/>
      <point x="949.6" y="1241.8" type="line"/>
      <point x="184.6" y="1241.8" type="line"/>
      <point x="76.8" y="476.8" type="line"/>
      <point x="346.8" y="476.8" type="line"/>
      <point x="392.6" y="781.2" type="line"/>
    </contour>
  </outline>
</glyph>
<glyph name="northEastArrow" format="2">
  <advance width="1143.75"/>
  <unicode hex="2197"/>
  <outline>
    <contour>
      <point x="242.4" y="259.0" type="line"/>
      <point x="835.5999999999999" y="780.2" type="line"/>
      <point x="790.5999999999999" y="476.0" type="line"/>
      <point x="1060.6" y="476.0" type="line"/>
      <point x="1167.6" y="1241.0" type="line"/>
      <point x="400.8" y="1241.0" type="line"/>
      <point x="363.0" y="971.0" type="line"/>
      <point x="666.2" y="971.0" type="line"/>
      <point x="73.2" y="449.8" type="line"/>
    </contour>
  </outline>
</glyph>
